SplineFontDB: 3.2
FontName: InstrumentSerif-Regular
FullName: Instrument Serif Regular
FamilyName: Instrument Serif
Weight: Book
Copyright: Copyright 2022 The Instrument Serif Project Authors (https://github.com/Instrument/instrument-serif)
Version: 1.000; ttfautohint (v1.8.4.7-5d5b);gftools[0.9.27]
ItalicAngle: 0
UnderlinePosition: -199
UnderlineWidth: 38
Ascent: 800
Descent: 200
InvalidEm: 0
sfntRevision: 0x00010000
LayerCount: 2
Layer: 0 1 "Back" 1
Layer: 1 1 "Fore" 0
XUID: [1021 518 1904332368 5295550]
StyleMap: 0x0040
FSType: 0
OS2Version: 4
OS2_WeightWidthSlopeOnly: 0
OS2_UseTypoMetrics: 1
CreationTime: 1659194366
ModificationTime: 1782497008
PfmFamily: 81
TTFWeight: 400
TTFWidth: 5
LineGap: 0
VLineGap: 0
Panose: 0 0 0 0 0 0 0 0 0 0
OS2TypoAscent: 990
OS2TypoAOffset: 0
OS2TypoDescent: -310
OS2TypoDOffset: 0
OS2TypoLinegap: 0
OS2WinAscent: 990
OS2WinAOffset: 0
OS2WinDescent: 310
OS2WinDOffset: 0
HheadAscent: 990
HheadAOffset: 0
HheadDescent: -310
HheadDOffset: 0
OS2SubXSize: 650
OS2SubYSize: 600
OS2SubXOff: 0
OS2SubYOff: 75
OS2SupXSize: 650
OS2SupYSize: 600
OS2SupXOff: 0
OS2SupYOff: 350
OS2StrikeYSize: 38
OS2StrikeYPos: 301
OS2CapHeight: 720
OS2XHeight: 510
OS2Vendor: 'NONE'
OS2CodePages: 00000093.00000000
OS2UnicodeRanges: a000006f.0000004a.00000000.00000000
Lookup: 1 0 0 "'aalt' Access All Alternates in Latin lookup 0" { "'aalt' Access All Alternates in Latin lookup 0 subtable"  } ['aalt' ('DFLT' <'dflt' > 'latn' <'AZE ' 'CAT ' 'CRT ' 'KAZ ' 'MOL ' 'ROM ' 'TAT ' 'TRK ' 'dflt' > ) ]
Lookup: 3 0 0 "'aalt' Access All Alternates in Latin lookup 1" { "'aalt' Access All Alternates in Latin lookup 1 subtable"  } ['aalt' ('DFLT' <'dflt' > 'latn' <'AZE ' 'CAT ' 'CRT ' 'KAZ ' 'MOL ' 'ROM ' 'TAT ' 'TRK ' 'dflt' > ) ]
Lookup: 6 0 0 "'ccmp' Glyph Composition/Decomposition in Latin lookup 2" { "'ccmp' Glyph Composition/Decomposition in Latin lookup 2 subtable"  } ['ccmp' ('DFLT' <'dflt' > 'latn' <'AZE ' 'CAT ' 'CRT ' 'KAZ ' 'MOL ' 'ROM ' 'TAT ' 'TRK ' 'dflt' > ) ]

StartChar: .notdef
Encoding: 65536 -1 0
Width: 632
GlyphClass: 1
Flags: W
LayerCount: 2
Fore
SplineSet
99.7001953125 -130 m 2,0,1
 90.900390625 -130 90.900390625 -130 90.900390625 -122 c 2,2,-1
 90.900390625 782 l 2,3,4
 90.900390625 790 90.900390625 790 99.7001953125 790 c 2,5,-1
 502.299804688 790 l 2,6,7
 511.099609375 790 511.099609375 790 511.099609375 782 c 2,8,-1
 511.099609375 -122 l 2,9,10
 511.099609375 -130 511.099609375 -130 502.299804688 -130 c 2,11,-1
 99.7001953125 -130 l 2,0,1
126.099609375 -98 m 1,12,-1
 475.900390625 -98 l 1,13,-1
 475.900390625 758 l 1,14,-1
 126.099609375 758 l 1,15,-1
 126.099609375 -98 l 1,12,-1
EndSplineSet
EndChar

StartChar: A
Encoding: 65 65 1
Width: 479
GlyphClass: 2
Flags: W
AnchorPoint: "Anchor-2" 440.25 0 basechar 0
AnchorPoint: "Anchor-1" 229.05 0 basechar 0
AnchorPoint: "Anchor-0" 229.05 720 basechar 0
LayerCount: 2
Fore
SplineSet
-26.150390625 0 m 2,0,1
 -42.650390625 0 -42.650390625 0 -42.650390625 10 c 256,2,3
 -42.650390625 20 -42.650390625 20 -27.25 23 c 2,4,-1
 -10.75 26 l 2,5,6
 11.25 30 11.25 30 22.25 45.5 c 128,-1,7
 33.25 61 33.25 61 40.9501953125 89 c 2,8,-1
 211.450195312 714 l 2,9,10
 213.650390625 724 213.650390625 724 218.599609375 727 c 128,-1,11
 223.549804688 730 223.549804688 730 227.950195312 730 c 0,12,13
 233.450195312 730 233.450195312 730 238.400390625 727 c 128,-1,14
 243.349609375 724 243.349609375 724 245.549804688 714 c 2,15,-1
 419.349609375 80 l 2,16,17
 427.049804688 52 427.049804688 52 436.950195312 41 c 128,-1,18
 446.849609375 30 446.849609375 30 467.75 26 c 2,19,-1
 484.25 23 l 2,20,21
 499.650390625 20 499.650390625 20 499.650390625 10 c 256,22,23
 499.650390625 0 499.650390625 0 483.150390625 0 c 2,24,-1
 295.049804688 0 l 2,25,26
 279.650390625 0 279.650390625 0 279.650390625 11 c 256,27,28
 279.650390625 22 279.650390625 22 298.349609375 23 c 2,29,-1
 319.25 25 l 2,30,31
 337.950195312 27 337.950195312 27 342.900390625 36 c 128,-1,32
 347.849609375 45 347.849609375 45 342.349609375 67 c 2,33,-1
 300.549804688 222 l 2,34,35
 293.950195312 248 293.950195312 248 264.25 248 c 2,36,-1
 148.75 248 l 2,37,38
 120.150390625 248 120.150390625 248 112.450195312 222 c 2,39,-1
 75.0498046875 88 l 2,40,41
 58.5498046875 31 58.5498046875 31 108.049804688 25 c 2,42,-1
 124.549804688 23 l 2,43,44
 143.25 20 143.25 20 143.25 11 c 0,45,46
 143.25 0 143.25 0 127.849609375 0 c 2,47,-1
 -26.150390625 0 l 2,0,1
145.450195312 278 m 2,48,-1
 266.450195312 278 l 2,49,50
 284.049804688 278 284.049804688 278 280.75 295 c 2,51,-1
 210.349609375 563 l 1,52,-1
 204.849609375 563 l 1,53,-1
 131.150390625 295 l 2,54,55
 127.849609375 278 127.849609375 278 145.450195312 278 c 2,48,-1
EndSplineSet
Substitution2: "Single Substitution lookup 17 subtable" ordfeminine
Substitution2: "'aalt' Access All Alternates in Latin lookup 0 subtable" ordfeminine
EndChar

StartChar: AE
Encoding: 198 198 12
Width: 819
GlyphClass: 1
Flags: W
LayerCount: 2
Fore
SplineSet
-39.662109375 0 m 2,0,1
 -56.162109375 0 -56.162109375 0 -56.162109375 11 c 0,2,3
 -56.162109375 20 -56.162109375 20 -40.7626953125 23 c 2,4,-1
 -24.2626953125 26 l 2,5,6
 19.7373046875 34 19.7373046875 34 49.4375 89 c 2,7,-1
 359.637695312 654 l 2,8,9
 371.737304688 675 371.737304688 675 364.037109375 681.5 c 128,-1,10
 356.337890625 688 356.337890625 688 333.237304688 692 c 2,11,-1
 307.9375 697 l 2,12,13
 293.637695312 700 293.637695312 700 293.637695312 709 c 0,14,15
 293.637695312 720 293.637695312 720 310.137695312 720 c 2,16,-1
 728.137695312 720 l 2,17,18
 753.4375 720 753.4375 720 755.637695312 697 c 2,19,-1
 764.4375 531 l 2,20,21
 766.637695312 514 766.637695312 514 750.137695312 514 c 0,22,23
 736.9375 514 736.9375 514 734.737304688 527 c 2,24,-1
 728.137695312 564 l 2,25,26
 716.037109375 632 716.037109375 632 678.637695312 663.5 c 128,-1,27
 641.237304688 695 641.237304688 695 575.237304688 695 c 0,28,29
 531.237304688 695 531.237304688 695 514.1875 683.5 c 128,-1,30
 497.137695312 672 497.137695312 672 497.137695312 643 c 2,31,-1
 497.137695312 402 l 2,32,33
 497.137695312 388 497.137695312 388 512.537109375 388 c 2,34,-1
 567.537109375 388 l 2,35,36
 615.9375 388 615.9375 388 626.9375 435 c 2,37,-1
 637.9375 485 l 2,38,39
 642.337890625 500 642.337890625 500 656.637695312 498 c 0,40,41
 668.737304688 496 668.737304688 496 668.737304688 481 c 2,42,-1
 668.737304688 256 l 2,43,44
 668.737304688 241 668.737304688 241 656.637695312 239 c 0,45,46
 642.337890625 237 642.337890625 237 637.9375 252 c 2,47,-1
 626.9375 301 l 2,48,49
 619.237304688 336 619.237304688 336 605.487304688 347 c 128,-1,50
 591.737304688 358 591.737304688 358 566.4375 358 c 2,51,-1
 512.537109375 358 l 2,52,53
 497.137695312 358 497.137695312 358 497.137695312 344 c 2,54,-1
 497.137695312 93 l 2,55,56
 497.137695312 57 497.137695312 57 517.487304688 41 c 128,-1,57
 537.837890625 25 537.837890625 25 591.737304688 25 c 0,58,59
 646.737304688 25 646.737304688 25 685.787109375 50.5 c 128,-1,60
 724.837890625 76 724.837890625 76 740.237304688 146 c 2,61,-1
 753.4375 205 l 2,62,63
 756.737304688 218 756.737304688 218 769.9375 218 c 0,64,65
 785.337890625 218 785.337890625 218 783.137695312 201 c 2,66,-1
 772.137695312 23 l 2,67,68
 769.9375 0 769.9375 0 744.637695312 0 c 2,69,-1
 358.537109375 0 l 2,70,71
 342.037109375 0 342.037109375 0 342.037109375 11 c 0,72,73
 342.037109375 20 342.037109375 20 356.337890625 23 c 2,74,-1
 381.637695312 27 l 2,75,76
 404.737304688 31 404.737304688 31 411.887695312 38 c 128,-1,77
 419.037109375 45 419.037109375 45 419.037109375 66 c 2,78,-1
 419.037109375 344 l 2,79,80
 419.037109375 358 419.037109375 358 403.637695312 358 c 2,81,-1
 246.337890625 358 l 2,82,83
 233.137695312 358 233.137695312 358 228.737304688 348 c 2,84,-1
 85.7373046875 88 l 2,85,86
 71.4375 62 71.4375 62 76.3876953125 45 c 128,-1,87
 81.337890625 28 81.337890625 28 106.637695312 25 c 2,88,-1
 124.237304688 23 l 2,89,90
 142.9375 20 142.9375 20 142.9375 11 c 0,91,92
 142.9375 0 142.9375 0 125.337890625 0 c 2,93,-1
 -39.662109375 0 l 2,0,1
259.537109375 405 m 2,94,95
 256.237304688 398 256.237304688 398 259.537109375 393 c 128,-1,96
 262.837890625 388 262.837890625 388 270.537109375 388 c 2,97,-1
 403.637695312 388 l 2,98,99
 419.037109375 388 419.037109375 388 419.037109375 402 c 2,100,-1
 419.037109375 664 l 2,101,102
 419.037109375 673 419.037109375 673 413.537109375 674 c 128,-1,103
 408.037109375 675 408.037109375 675 403.637695312 667 c 2,104,-1
 259.537109375 405 l 2,94,95
EndSplineSet
EndChar

StartChar: B
Encoding: 66 66 13
Width: 502
GlyphClass: 1
Flags: W
LayerCount: 2
Fore
SplineSet
13.9501953125 0 m 2,0,1
 -2.5498046875 0 -2.5498046875 0 -2.5498046875 11 c 0,2,3
 -2.5498046875 20 -2.5498046875 20 11.75 23 c 2,4,-1
 37.0498046875 27 l 2,5,6
 60.150390625 31 60.150390625 31 67.2998046875 38 c 128,-1,7
 74.4501953125 45 74.4501953125 45 74.4501953125 66 c 2,8,-1
 74.4501953125 654 l 2,9,10
 74.4501953125 675 74.4501953125 675 67.2998046875 682 c 128,-1,11
 60.150390625 689 60.150390625 689 37.0498046875 693 c 2,12,-1
 11.75 697 l 2,13,14
 -2.5498046875 700 -2.5498046875 700 -2.5498046875 709 c 0,15,16
 -2.5498046875 720 -2.5498046875 720 13.9501953125 720 c 2,17,-1
 237.25 720 l 2,18,19
 292.25 720 292.25 720 335.150390625 699 c 128,-1,20
 378.049804688 678 378.049804688 678 402.799804688 642 c 128,-1,21
 427.549804688 606 427.549804688 606 427.549804688 560 c 0,22,23
 427.549804688 515 427.549804688 515 398.400390625 476.5 c 128,-1,24
 369.25 438 369.25 438 314.25 412 c 0,25,26
 307.650390625 409 307.650390625 409 307.650390625 404 c 128,-1,27
 307.650390625 399 307.650390625 399 315.349609375 397 c 0,28,29
 390.150390625 374 390.150390625 374 430.849609375 323.5 c 128,-1,30
 471.549804688 273 471.549804688 273 471.549804688 204 c 0,31,32
 471.549804688 145 471.549804688 145 441.849609375 98.5 c 128,-1,33
 412.150390625 52 412.150390625 52 359.900390625 26 c 128,-1,34
 307.650390625 0 307.650390625 0 241.650390625 0 c 2,35,-1
 13.9501953125 0 l 2,0,1
210.849609375 411 m 0,36,37
 269.150390625 411 269.150390625 411 308.200195312 452.5 c 128,-1,38
 347.25 494 347.25 494 347.25 556 c 256,39,40
 347.25 618 347.25 618 309.849609375 656.5 c 128,-1,41
 272.450195312 695 272.450195312 695 210.849609375 695 c 0,42,43
 152.549804688 695 152.549804688 695 152.549804688 655 c 2,44,-1
 152.549804688 466 l 2,45,46
 152.549804688 437 152.549804688 437 166.299804688 424 c 128,-1,47
 180.049804688 411 180.049804688 411 210.849609375 411 c 0,36,37
227.349609375 25 m 0,48,49
 298.849609375 25 298.849609375 25 343.950195312 74.5 c 128,-1,50
 389.049804688 124 389.049804688 124 389.049804688 207 c 256,51,52
 389.049804688 290 389.049804688 290 343.400390625 338 c 128,-1,53
 297.75 386 297.75 386 220.75 386 c 0,54,55
 152.549804688 386 152.549804688 386 152.549804688 337 c 2,56,-1
 152.549804688 94 l 2,57,58
 152.549804688 25 152.549804688 25 227.349609375 25 c 0,48,49
EndSplineSet
EndChar

StartChar: C
Encoding: 67 67 14
Width: 504
GlyphClass: 2
Flags: W
AnchorPoint: "Anchor-1" 279.6 0 basechar 0
AnchorPoint: "Anchor-0" 284 720 basechar 0
LayerCount: 2
Fore
SplineSet
290.599609375 -9 m 0,0,1
 209.200195312 -9 209.200195312 -9 148.150390625 37 c 128,-1,2
 87.099609375 83 87.099609375 83 53.5498046875 166.5 c 128,-1,3
 20 250 20 250 20 364 c 0,4,5
 20 474 20 474 56.849609375 556.5 c 128,-1,6
 93.7001953125 639 93.7001953125 639 155.849609375 684.5 c 128,-1,7
 218 730 218 730 293.900390625 730 c 0,8,9
 339 730 339 730 373.099609375 722.5 c 128,-1,10
 407.200195312 715 407.200195312 715 433.599609375 703 c 0,11,12
 446.799804688 696 446.799804688 696 446.799804688 682 c 2,13,-1
 450.099609375 530 l 2,14,15
 450.099609375 513 450.099609375 513 436.900390625 513 c 0,16,17
 424.799804688 513 424.799804688 513 421.5 526 c 2,18,-1
 410.5 563 l 2,19,20
 387.400390625 641 387.400390625 641 357.150390625 671 c 128,-1,21
 326.900390625 701 326.900390625 701 285.099609375 701 c 0,22,23
 208.099609375 701 208.099609375 701 156.950195312 614.5 c 128,-1,24
 105.799804688 528 105.799804688 528 105.799804688 364 c 0,25,26
 105.799804688 252 105.799804688 252 131.650390625 175 c 128,-1,27
 157.5 98 157.5 98 198.75 59 c 128,-1,28
 240 20 240 20 286.200195312 20 c 0,29,30
 335.700195312 20 335.700195312 20 365.950195312 48 c 128,-1,31
 396.200195312 76 396.200195312 76 417.099609375 156 c 2,32,-1
 430.299804688 205 l 2,33,34
 433.599609375 220 433.599609375 220 447.900390625 218 c 0,35,36
 460 216 460 216 460 201 c 2,37,-1
 455.599609375 39 l 2,38,39
 455.599609375 25 455.599609375 25 441.299804688 18 c 0,40,41
 414.900390625 6 414.900390625 6 379.150390625 -1.5 c 128,-1,42
 343.400390625 -9 343.400390625 -9 290.599609375 -9 c 0,0,1
EndSplineSet
EndChar

StartChar: D
Encoding: 68 68 19
Width: 557
GlyphClass: 2
Flags: W
AnchorPoint: "Anchor-1" 266.05 0 basechar 0
AnchorPoint: "Anchor-0" 255.05 720 basechar 0
LayerCount: 2
Fore
SplineSet
11.9501953125 0 m 2,0,1
 -4.5498046875 0 -4.5498046875 0 -4.5498046875 11 c 0,2,3
 -4.5498046875 20 -4.5498046875 20 9.75 23 c 2,4,-1
 35.0498046875 27 l 2,5,6
 72.4501953125 33 72.4501953125 33 72.4501953125 66 c 2,7,-1
 72.4501953125 654 l 2,8,9
 72.4501953125 675 72.4501953125 675 65.2998046875 682 c 128,-1,10
 58.150390625 689 58.150390625 689 35.0498046875 693 c 2,11,-1
 9.75 697 l 2,12,13
 -4.5498046875 700 -4.5498046875 700 -4.5498046875 709 c 0,14,15
 -4.5498046875 720 -4.5498046875 720 11.9501953125 720 c 2,16,-1
 234.150390625 720 l 2,17,18
 319.950195312 720 319.950195312 720 382.650390625 674.5 c 128,-1,19
 445.349609375 629 445.349609375 629 479.450195312 547 c 128,-1,20
 513.549804688 465 513.549804688 465 513.549804688 357 c 0,21,22
 513.549804688 248 513.549804688 248 477.799804688 168 c 128,-1,23
 442.049804688 88 442.049804688 88 377.150390625 44 c 128,-1,24
 312.25 0 312.25 0 223.150390625 0 c 2,25,-1
 11.9501953125 0 l 2,0,1
227.549804688 26 m 0,26,27
 325.450195312 26 325.450195312 26 376.599609375 111 c 128,-1,28
 427.75 196 427.75 196 427.75 357 c 0,29,30
 427.75 517 427.75 517 378.799804688 605.5 c 128,-1,31
 329.849609375 694 329.849609375 694 234.150390625 694 c 0,32,33
 150.549804688 694 150.549804688 694 150.549804688 621 c 2,34,-1
 150.549804688 99 l 2,35,36
 150.549804688 59 150.549804688 59 168.700195312 42.5 c 128,-1,37
 186.849609375 26 186.849609375 26 227.549804688 26 c 0,26,27
EndSplineSet
EndChar

StartChar: Eth
Encoding: 208 208 20
Width: 557
GlyphClass: 2
Flags: W
AnchorPoint: "Anchor-1" 266.05 0 basechar 0
AnchorPoint: "Anchor-0" 255.05 720 basechar 0
LayerCount: 2
Fore
SplineSet
11.9501953125 0 m 2,0,1
 -4.5498046875 0 -4.5498046875 0 -4.5498046875 11 c 0,2,3
 -4.5498046875 20 -4.5498046875 20 9.75 23 c 2,4,-1
 35.0498046875 27 l 2,5,6
 72.4501953125 33 72.4501953125 33 72.4501953125 66 c 2,7,-1
 72.4501953125 358 l 1,8,-1
 6.4501953125 358 l 2,9,10
 -4.5498046875 358 -4.5498046875 358 -4.5498046875 368 c 2,11,-1
 -4.5498046875 376 l 2,12,13
 -4.5498046875 386 -4.5498046875 386 6.4501953125 386 c 2,14,-1
 72.4501953125 386 l 1,15,-1
 72.4501953125 654 l 2,16,17
 72.4501953125 675 72.4501953125 675 65.2998046875 682 c 128,-1,18
 58.150390625 689 58.150390625 689 35.0498046875 693 c 2,19,-1
 9.75 697 l 2,20,21
 -4.5498046875 700 -4.5498046875 700 -4.5498046875 709 c 0,22,23
 -4.5498046875 720 -4.5498046875 720 11.9501953125 720 c 2,24,-1
 234.150390625 720 l 2,25,26
 319.950195312 720 319.950195312 720 382.650390625 674.5 c 128,-1,27
 445.349609375 629 445.349609375 629 479.450195312 547 c 128,-1,28
 513.549804688 465 513.549804688 465 513.549804688 357 c 0,29,30
 513.549804688 248 513.549804688 248 477.799804688 168 c 128,-1,31
 442.049804688 88 442.049804688 88 377.150390625 44 c 128,-1,32
 312.25 0 312.25 0 223.150390625 0 c 2,33,-1
 11.9501953125 0 l 2,0,1
227.549804688 26 m 0,34,35
 325.450195312 26 325.450195312 26 376.599609375 111 c 128,-1,36
 427.75 196 427.75 196 427.75 357 c 0,37,38
 427.75 517 427.75 517 378.799804688 605.5 c 128,-1,39
 329.849609375 694 329.849609375 694 234.150390625 694 c 0,40,41
 150.549804688 694 150.549804688 694 150.549804688 621 c 2,42,-1
 150.549804688 386 l 1,43,-1
 286.950195312 386 l 2,44,45
 297.950195312 386 297.950195312 386 297.950195312 376 c 2,46,-1
 297.950195312 368 l 2,47,48
 297.950195312 358 297.950195312 358 286.950195312 358 c 2,49,-1
 150.549804688 358 l 1,50,-1
 150.549804688 99 l 2,51,52
 150.549804688 59 150.549804688 59 168.700195312 42.5 c 128,-1,53
 186.849609375 26 186.849609375 26 227.549804688 26 c 0,34,35
EndSplineSet
EndChar

StartChar: E
Encoding: 69 69 23
Width: 476
GlyphClass: 2
Flags: W
AnchorPoint: "Anchor-2" 401.537 0 basechar 0
AnchorPoint: "Anchor-1" 227.737 0 basechar 0
AnchorPoint: "Anchor-0" 227.737 720 basechar 0
LayerCount: 2
Fore
SplineSet
15.4375 0 m 2,0,1
 -1.0625 0 -1.0625 0 -1.0625 11 c 0,2,3
 -1.0625 20 -1.0625 20 13.2373046875 23 c 2,4,-1
 38.537109375 27 l 2,5,6
 61.6376953125 31 61.6376953125 31 68.787109375 38 c 128,-1,7
 75.9375 45 75.9375 45 75.9375 66 c 2,8,-1
 75.9375 654 l 2,9,10
 75.9375 675 75.9375 675 68.787109375 682 c 128,-1,11
 61.6376953125 689 61.6376953125 689 38.537109375 693 c 2,12,-1
 13.2373046875 697 l 2,13,14
 -1.0625 700 -1.0625 700 -1.0625 709 c 0,15,16
 -1.0625 720 -1.0625 720 15.4375 720 c 2,17,-1
 385.037109375 720 l 2,18,19
 410.337890625 720 410.337890625 720 412.537109375 697 c 2,20,-1
 421.337890625 531 l 2,21,22
 423.537109375 514 423.537109375 514 407.037109375 514 c 0,23,24
 393.837890625 514 393.837890625 514 391.637695312 527 c 2,25,-1
 385.037109375 564 l 2,26,27
 372.9375 632 372.9375 632 335.537109375 663.5 c 128,-1,28
 298.137695312 695 298.137695312 695 232.137695312 695 c 0,29,30
 188.137695312 695 188.137695312 695 171.087890625 683.5 c 128,-1,31
 154.037109375 672 154.037109375 672 154.037109375 643 c 2,32,-1
 154.037109375 402 l 2,33,34
 154.037109375 388 154.037109375 388 169.4375 388 c 2,35,-1
 224.4375 388 l 2,36,37
 272.837890625 388 272.837890625 388 283.837890625 435 c 2,38,-1
 294.837890625 485 l 2,39,40
 299.237304688 500 299.237304688 500 313.537109375 498 c 0,41,42
 325.637695312 496 325.637695312 496 325.637695312 481 c 2,43,-1
 325.637695312 256 l 2,44,45
 325.637695312 241 325.637695312 241 313.537109375 239 c 0,46,47
 299.237304688 237 299.237304688 237 294.837890625 252 c 2,48,-1
 283.837890625 301 l 2,49,50
 276.137695312 336 276.137695312 336 262.387695312 347 c 128,-1,51
 248.637695312 358 248.637695312 358 223.337890625 358 c 2,52,-1
 169.4375 358 l 2,53,54
 154.037109375 358 154.037109375 358 154.037109375 344 c 2,55,-1
 154.037109375 93 l 2,56,57
 154.037109375 57 154.037109375 57 174.387695312 41 c 128,-1,58
 194.737304688 25 194.737304688 25 248.637695312 25 c 0,59,60
 303.637695312 25 303.637695312 25 342.6875 50.5 c 128,-1,61
 381.737304688 76 381.737304688 76 397.137695312 146 c 2,62,-1
 410.337890625 205 l 2,63,64
 413.637695312 218 413.637695312 218 426.837890625 218 c 0,65,66
 442.237304688 218 442.237304688 218 440.037109375 201 c 2,67,-1
 429.037109375 23 l 2,68,69
 426.837890625 0 426.837890625 0 401.537109375 0 c 2,70,-1
 15.4375 0 l 2,0,1
EndSplineSet
EndChar

StartChar: F
Encoding: 70 70 32
Width: 428
GlyphClass: 1
Flags: W
LayerCount: 2
Fore
SplineSet
16.98828125 0 m 2,0,1
 0.48828125 0 0.48828125 0 0.48828125 11 c 0,2,3
 0.48828125 20 0.48828125 20 14.7880859375 23 c 2,4,-1
 40.087890625 27 l 2,5,6
 63.1884765625 31 63.1884765625 31 70.337890625 38 c 128,-1,7
 77.48828125 45 77.48828125 45 77.48828125 66 c 2,8,-1
 77.48828125 654 l 2,9,10
 77.48828125 675 77.48828125 675 70.337890625 682 c 128,-1,11
 63.1884765625 689 63.1884765625 689 40.087890625 693 c 2,12,-1
 14.7880859375 697 l 2,13,14
 0.48828125 700 0.48828125 700 0.48828125 709 c 0,15,16
 0.48828125 720 0.48828125 720 16.98828125 720 c 2,17,-1
 371.188476562 720 l 2,18,19
 396.48828125 720 396.48828125 720 398.688476562 697 c 2,20,-1
 407.48828125 531 l 2,21,22
 409.688476562 514 409.688476562 514 393.188476562 514 c 0,23,24
 379.98828125 514 379.98828125 514 377.788085938 527 c 2,25,-1
 372.288085938 560 l 2,26,27
 363.48828125 612 363.48828125 612 341.48828125 641 c 128,-1,28
 319.48828125 670 319.48828125 670 291.98828125 682.5 c 128,-1,29
 264.48828125 695 264.48828125 695 239.188476562 695 c 0,30,31
 190.788085938 695 190.788085938 695 173.188476562 681 c 128,-1,32
 155.587890625 667 155.587890625 667 155.587890625 638 c 2,33,-1
 155.587890625 402 l 2,34,35
 155.587890625 388 155.587890625 388 170.98828125 388 c 2,36,-1
 209.48828125 388 l 2,37,38
 257.888671875 388 257.888671875 388 268.888671875 435 c 2,39,-1
 280.98828125 485 l 2,40,41
 284.288085938 498 284.288085938 498 297.48828125 498 c 256,42,43
 310.688476562 498 310.688476562 498 310.688476562 481 c 2,44,-1
 310.688476562 256 l 2,45,46
 310.688476562 239 310.688476562 239 297.48828125 239 c 256,47,48
 284.288085938 239 284.288085938 239 280.98828125 252 c 2,49,-1
 268.888671875 301 l 2,50,51
 261.188476562 336 261.188476562 336 247.438476562 347 c 128,-1,52
 233.688476562 358 233.688476562 358 208.388671875 358 c 2,53,-1
 170.98828125 358 l 2,54,55
 155.587890625 358 155.587890625 358 155.587890625 344 c 2,56,-1
 155.587890625 71 l 2,57,58
 155.587890625 50 155.587890625 50 162.73828125 41.5 c 128,-1,59
 169.888671875 33 169.888671875 33 192.98828125 30 c 2,60,-1
 244.688476562 23 l 2,61,62
 256.788085938 21 256.788085938 21 256.788085938 12 c 0,63,64
 256.788085938 0 256.788085938 0 240.288085938 0 c 2,65,-1
 16.98828125 0 l 2,0,1
EndSplineSet
EndChar

StartChar: G
Encoding: 71 71 33
Width: 546
GlyphClass: 2
Flags: W
AnchorPoint: "Anchor-1" 293.05 0 basechar 0
AnchorPoint: "Anchor-0" 293.05 720 basechar 0
LayerCount: 2
Fore
SplineSet
293.049804688 -9 m 0,0,1
 203.950195312 -9 203.950195312 -9 142.349609375 37 c 128,-1,2
 80.75 83 80.75 83 48.849609375 166.5 c 128,-1,3
 16.9501953125 250 16.9501953125 250 16.9501953125 364 c 0,4,5
 16.9501953125 474 16.9501953125 474 54.349609375 556.5 c 128,-1,6
 91.75 639 91.75 639 157.200195312 684.5 c 128,-1,7
 222.650390625 730 222.650390625 730 307.349609375 730 c 0,8,9
 350.25 730 350.25 730 385.450195312 722.5 c 128,-1,10
 420.650390625 715 420.650390625 715 447.049804688 703 c 0,11,12
 461.349609375 696 461.349609375 696 461.349609375 682 c 2,13,-1
 464.650390625 530 l 2,14,15
 464.650390625 513 464.650390625 513 451.450195312 513 c 0,16,17
 439.349609375 513 439.349609375 513 436.049804688 526 c 2,18,-1
 427.25 556 l 2,19,20
 403.049804688 639 403.049804688 639 372.25 670 c 128,-1,21
 341.450195312 701 341.450195312 701 287.549804688 701 c 0,22,23
 207.25 701 207.25 701 155 614.5 c 128,-1,24
 102.75 528 102.75 528 102.75 364 c 0,25,26
 102.75 195 102.75 195 156.099609375 106.5 c 128,-1,27
 209.450195312 18 209.450195312 18 293.049804688 18 c 0,28,29
 338.150390625 18 338.150390625 18 361.25 36 c 128,-1,30
 384.349609375 54 384.349609375 54 384.349609375 103 c 2,31,-1
 384.349609375 322 l 2,32,33
 384.349609375 343 384.349609375 343 377.200195312 351 c 128,-1,34
 370.049804688 359 370.049804688 359 346.950195312 361 c 2,35,-1
 304.049804688 365 l 2,36,37
 289.75 366 289.75 366 289.75 377 c 256,38,39
 289.75 388 289.75 388 306.25 388 c 2,40,-1
 507.549804688 388 l 2,41,42
 524.049804688 388 524.049804688 388 524.049804688 376 c 0,43,44
 524.049804688 367 524.049804688 367 511.950195312 365 c 2,45,-1
 495.450195312 363 l 2,46,47
 471.25 360 471.25 360 466.849609375 351 c 128,-1,48
 462.450195312 342 462.450195312 342 462.450195312 321 c 2,49,-1
 462.450195312 50 l 2,50,51
 462.450195312 39 462.450195312 39 455.849609375 32.5 c 128,-1,52
 449.25 26 449.25 26 432.75 18 c 0,53,54
 406.349609375 6 406.349609375 6 372.25 -1.5 c 128,-1,55
 338.150390625 -9 338.150390625 -9 293.049804688 -9 c 0,0,1
EndSplineSet
EndChar

StartChar: H
Encoding: 72 72 37
Width: 573
GlyphClass: 1
Flags: W
LayerCount: 2
Fore
SplineSet
10.099609375 0 m 2,0,1
 -6.400390625 0 -6.400390625 0 -6.400390625 11 c 0,2,3
 -6.400390625 20 -6.400390625 20 7.900390625 23 c 2,4,-1
 33.2001953125 27 l 2,5,6
 56.2998046875 31 56.2998046875 31 63.4501953125 38 c 128,-1,7
 70.599609375 45 70.599609375 45 70.599609375 66 c 2,8,-1
 70.599609375 654 l 2,9,10
 70.599609375 675 70.599609375 675 63.4501953125 682 c 128,-1,11
 56.2998046875 689 56.2998046875 689 33.2001953125 693 c 2,12,-1
 7.900390625 697 l 2,13,14
 -6.400390625 700 -6.400390625 700 -6.400390625 709 c 0,15,16
 -6.400390625 720 -6.400390625 720 10.099609375 720 c 2,17,-1
 211.400390625 720 l 2,18,19
 227.900390625 720 227.900390625 720 227.900390625 708 c 0,20,21
 227.900390625 699 227.900390625 699 215.799804688 697 c 2,22,-1
 186.099609375 693 l 2,23,24
 163 690 163 690 155.849609375 682 c 128,-1,25
 148.700195312 674 148.700195312 674 148.700195312 653 c 2,26,-1
 148.700195312 402 l 2,27,28
 148.700195312 388 148.700195312 388 164.099609375 388 c 2,29,-1
 381.900390625 388 l 2,30,31
 397.299804688 388 397.299804688 388 397.299804688 402 c 2,32,-1
 397.299804688 653 l 2,33,34
 397.299804688 674 397.299804688 674 390.150390625 682 c 128,-1,35
 383 690 383 690 359.900390625 693 c 2,36,-1
 330.200195312 697 l 2,37,38
 318.099609375 699 318.099609375 699 318.099609375 708 c 0,39,40
 318.099609375 720 318.099609375 720 334.599609375 720 c 2,41,-1
 535.900390625 720 l 2,42,43
 552.400390625 720 552.400390625 720 552.400390625 709 c 0,44,45
 552.400390625 700 552.400390625 700 538.099609375 697 c 2,46,-1
 512.799804688 693 l 2,47,48
 489.700195312 689 489.700195312 689 482.549804688 682 c 128,-1,49
 475.400390625 675 475.400390625 675 475.400390625 654 c 2,50,-1
 475.400390625 66 l 2,51,52
 475.400390625 45 475.400390625 45 482.549804688 38 c 128,-1,53
 489.700195312 31 489.700195312 31 512.799804688 27 c 2,54,-1
 538.099609375 23 l 2,55,56
 552.400390625 20 552.400390625 20 552.400390625 11 c 0,57,58
 552.400390625 0 552.400390625 0 535.900390625 0 c 2,59,-1
 334.599609375 0 l 2,60,61
 318.099609375 0 318.099609375 0 318.099609375 12 c 0,62,63
 318.099609375 21 318.099609375 21 330.200195312 23 c 2,64,-1
 359.900390625 27 l 2,65,66
 383 30 383 30 390.150390625 38 c 128,-1,67
 397.299804688 46 397.299804688 46 397.299804688 67 c 2,68,-1
 397.299804688 344 l 2,69,70
 397.299804688 358 397.299804688 358 381.900390625 358 c 2,71,-1
 164.099609375 358 l 2,72,73
 148.700195312 358 148.700195312 358 148.700195312 344 c 2,74,-1
 148.700195312 67 l 2,75,76
 148.700195312 46 148.700195312 46 155.849609375 38 c 128,-1,77
 163 30 163 30 186.099609375 27 c 2,78,-1
 215.799804688 23 l 2,79,80
 227.900390625 21 227.900390625 21 227.900390625 12 c 0,81,82
 227.900390625 0 227.900390625 0 211.400390625 0 c 2,83,-1
 10.099609375 0 l 2,0,1
EndSplineSet
EndChar

StartChar: Hbar
Encoding: 294 294 38
Width: 573
GlyphClass: 1
Flags: W
LayerCount: 2
Fore
SplineSet
10.099609375 0 m 2,0,1
 -6.400390625 0 -6.400390625 0 -6.400390625 11 c 0,2,3
 -6.400390625 20 -6.400390625 20 7.900390625 23 c 2,4,-1
 33.2001953125 27 l 2,5,6
 56.2998046875 31 56.2998046875 31 63.4501953125 38 c 128,-1,7
 70.599609375 45 70.599609375 45 70.599609375 66 c 2,8,-1
 70.599609375 532 l 1,9,-1
 4.599609375 532 l 2,10,11
 -6.400390625 532 -6.400390625 532 -6.400390625 542 c 2,12,-1
 -6.400390625 550 l 2,13,14
 -6.400390625 560 -6.400390625 560 4.599609375 560 c 2,15,-1
 70.599609375 560 l 1,16,-1
 70.599609375 654 l 2,17,18
 70.599609375 675 70.599609375 675 63.4501953125 682 c 128,-1,19
 56.2998046875 689 56.2998046875 689 33.2001953125 693 c 2,20,-1
 7.900390625 697 l 2,21,22
 -6.400390625 700 -6.400390625 700 -6.400390625 709 c 0,23,24
 -6.400390625 720 -6.400390625 720 10.099609375 720 c 2,25,-1
 211.400390625 720 l 2,26,27
 227.900390625 720 227.900390625 720 227.900390625 708 c 0,28,29
 227.900390625 699 227.900390625 699 215.799804688 697 c 2,30,-1
 186.099609375 693 l 2,31,32
 163 690 163 690 155.849609375 682 c 128,-1,33
 148.700195312 674 148.700195312 674 148.700195312 653 c 2,34,-1
 148.700195312 560 l 1,35,-1
 397.299804688 560 l 1,36,-1
 397.299804688 653 l 2,37,38
 397.299804688 674 397.299804688 674 390.150390625 682 c 128,-1,39
 383 690 383 690 359.900390625 693 c 2,40,-1
 330.200195312 697 l 2,41,42
 318.099609375 699 318.099609375 699 318.099609375 708 c 0,43,44
 318.099609375 720 318.099609375 720 334.599609375 720 c 2,45,-1
 535.900390625 720 l 2,46,47
 552.400390625 720 552.400390625 720 552.400390625 709 c 0,48,49
 552.400390625 700 552.400390625 700 538.099609375 697 c 2,50,-1
 512.799804688 693 l 2,51,52
 489.700195312 689 489.700195312 689 482.549804688 682 c 128,-1,53
 475.400390625 675 475.400390625 675 475.400390625 654 c 2,54,-1
 475.400390625 560 l 1,55,-1
 541.400390625 560 l 2,56,57
 552.400390625 560 552.400390625 560 552.400390625 550 c 2,58,-1
 552.400390625 542 l 2,59,60
 552.400390625 532 552.400390625 532 541.400390625 532 c 2,61,-1
 475.400390625 532 l 1,62,-1
 475.400390625 66 l 2,63,64
 475.400390625 45 475.400390625 45 482.549804688 38 c 128,-1,65
 489.700195312 31 489.700195312 31 512.799804688 27 c 2,66,-1
 538.099609375 23 l 2,67,68
 552.400390625 20 552.400390625 20 552.400390625 11 c 0,69,70
 552.400390625 0 552.400390625 0 535.900390625 0 c 2,71,-1
 334.599609375 0 l 2,72,73
 318.099609375 0 318.099609375 0 318.099609375 12 c 0,74,75
 318.099609375 21 318.099609375 21 330.200195312 23 c 2,76,-1
 359.900390625 27 l 2,77,78
 383 30 383 30 390.150390625 38 c 128,-1,79
 397.299804688 46 397.299804688 46 397.299804688 67 c 2,80,-1
 397.299804688 344 l 2,81,82
 397.299804688 358 397.299804688 358 381.900390625 358 c 2,83,-1
 164.099609375 358 l 2,84,85
 148.700195312 358 148.700195312 358 148.700195312 344 c 2,86,-1
 148.700195312 67 l 2,87,88
 148.700195312 46 148.700195312 46 155.849609375 38 c 128,-1,89
 163 30 163 30 186.099609375 27 c 2,90,-1
 215.799804688 23 l 2,91,92
 227.900390625 21 227.900390625 21 227.900390625 12 c 0,93,94
 227.900390625 0 227.900390625 0 211.400390625 0 c 2,95,-1
 10.099609375 0 l 2,0,1
164.099609375 388 m 2,96,-1
 381.900390625 388 l 2,97,98
 397.299804688 388 397.299804688 388 397.299804688 402 c 2,99,-1
 397.299804688 532 l 1,100,-1
 148.700195312 532 l 1,101,-1
 148.700195312 402 l 2,102,103
 148.700195312 388 148.700195312 388 164.099609375 388 c 2,96,-1
EndSplineSet
EndChar

StartChar: I
Encoding: 73 73 39
Width: 261
GlyphClass: 2
Flags: W
AnchorPoint: "Anchor-2" 163.55 0 basechar 0
AnchorPoint: "Anchor-1" 125.05 0 basechar 0
AnchorPoint: "Anchor-0" 125.05 720 basechar 0
LayerCount: 2
Fore
SplineSet
24.9501953125 0 m 2,0,1
 8.4501953125 0 8.4501953125 0 8.4501953125 11 c 0,2,3
 8.4501953125 20 8.4501953125 20 22.75 23 c 2,4,-1
 48.0498046875 27 l 2,5,6
 71.150390625 31 71.150390625 31 78.2998046875 38 c 128,-1,7
 85.4501953125 45 85.4501953125 45 85.4501953125 66 c 2,8,-1
 85.4501953125 654 l 2,9,10
 85.4501953125 675 85.4501953125 675 78.2998046875 682 c 128,-1,11
 71.150390625 689 71.150390625 689 48.0498046875 693 c 2,12,-1
 22.75 697 l 2,13,14
 8.4501953125 700 8.4501953125 700 8.4501953125 709 c 0,15,16
 8.4501953125 720 8.4501953125 720 24.9501953125 720 c 2,17,-1
 224.049804688 720 l 2,18,19
 240.549804688 720 240.549804688 720 240.549804688 709 c 0,20,21
 240.549804688 700 240.549804688 700 226.25 697 c 2,22,-1
 200.950195312 693 l 2,23,24
 177.849609375 689 177.849609375 689 170.700195312 682 c 128,-1,25
 163.549804688 675 163.549804688 675 163.549804688 654 c 2,26,-1
 163.549804688 66 l 2,27,28
 163.549804688 45 163.549804688 45 170.700195312 38 c 128,-1,29
 177.849609375 31 177.849609375 31 200.950195312 27 c 2,30,-1
 226.25 23 l 2,31,32
 240.549804688 20 240.549804688 20 240.549804688 11 c 0,33,34
 240.549804688 0 240.549804688 0 224.049804688 0 c 2,35,-1
 24.9501953125 0 l 2,0,1
EndSplineSet
EndChar

StartChar: J
Encoding: 74 74 48
Width: 265
GlyphClass: 1
Flags: W
LayerCount: 2
Fore
SplineSet
6.7001953125 -215 m 0,0,1
 -27.400390625 -215 -27.400390625 -215 -48.849609375 -198.5 c 128,-1,2
 -70.2998046875 -182 -70.2998046875 -182 -70.2998046875 -155 c 0,3,4
 -70.2998046875 -135 -70.2998046875 -135 -57.650390625 -122 c 128,-1,5
 -45 -109 -45 -109 -25.2001953125 -109 c 0,6,7
 -6.5 -109 -6.5 -109 1.2001953125 -119 c 128,-1,8
 8.900390625 -129 8.900390625 -129 13.849609375 -142 c 128,-1,9
 18.7998046875 -155 18.7998046875 -155 25.400390625 -165 c 128,-1,10
 32 -175 32 -175 46.2998046875 -175 c 0,11,12
 67.2001953125 -175 67.2001953125 -175 78.2001953125 -153 c 128,-1,13
 89.2001953125 -131 89.2001953125 -131 89.2001953125 -91 c 2,14,-1
 89.2001953125 654 l 2,15,16
 89.2001953125 675 89.2001953125 675 82.0498046875 682 c 128,-1,17
 74.900390625 689 74.900390625 689 51.7998046875 693 c 2,18,-1
 26.5 697 l 2,19,20
 12.2001953125 700 12.2001953125 700 12.2001953125 709 c 0,21,22
 12.2001953125 720 12.2001953125 720 28.7001953125 720 c 2,23,-1
 227.799804688 720 l 2,24,25
 244.299804688 720 244.299804688 720 244.299804688 709 c 0,26,27
 244.299804688 700 244.299804688 700 230 697 c 2,28,-1
 204.700195312 693 l 2,29,30
 181.599609375 689 181.599609375 689 174.450195312 682 c 128,-1,31
 167.299804688 675 167.299804688 675 167.299804688 654 c 2,32,-1
 167.299804688 44 l 2,33,34
 167.299804688 -76 167.299804688 -76 124.400390625 -145.5 c 128,-1,35
 81.5 -215 81.5 -215 6.7001953125 -215 c 0,0,1
EndSplineSet
EndChar

StartChar: K
Encoding: 75 75 49
Width: 518
GlyphClass: 2
Flags: W
AnchorPoint: "Anchor-1" 268.05 0 basechar 0
AnchorPoint: "Anchor-0" 246.05 720 basechar 0
LayerCount: 2
Fore
SplineSet
10.650390625 0 m 2,0,1
 -5.849609375 0 -5.849609375 0 -5.849609375 11 c 0,2,3
 -5.849609375 20 -5.849609375 20 8.4501953125 23 c 2,4,-1
 33.75 27 l 2,5,6
 56.849609375 31 56.849609375 31 64 38 c 128,-1,7
 71.150390625 45 71.150390625 45 71.150390625 66 c 2,8,-1
 71.150390625 654 l 2,9,10
 71.150390625 675 71.150390625 675 64 682 c 128,-1,11
 56.849609375 689 56.849609375 689 33.75 693 c 2,12,-1
 8.4501953125 697 l 2,13,14
 -5.849609375 700 -5.849609375 700 -5.849609375 709 c 0,15,16
 -5.849609375 720 -5.849609375 720 10.650390625 720 c 2,17,-1
 211.950195312 720 l 2,18,19
 228.450195312 720 228.450195312 720 228.450195312 708 c 0,20,21
 228.450195312 699 228.450195312 699 216.349609375 697 c 2,22,-1
 186.650390625 693 l 2,23,24
 163.549804688 690 163.549804688 690 156.400390625 682 c 128,-1,25
 149.25 674 149.25 674 149.25 653 c 2,26,-1
 149.25 383 l 2,27,28
 149.25 373 149.25 373 155.849609375 371 c 128,-1,29
 162.450195312 369 162.450195312 369 167.950195312 378 c 2,30,-1
 348.349609375 635 l 2,31,32
 384.650390625 686 384.650390625 686 341.75 693 c 2,33,-1
 316.450195312 697 l 2,34,35
 302.150390625 700 302.150390625 700 302.150390625 710 c 256,36,37
 302.150390625 720 302.150390625 720 317.549804688 720 c 2,38,-1
 504.549804688 720 l 2,39,40
 519.950195312 720 519.950195312 720 519.950195312 709 c 256,41,42
 519.950195312 698 519.950195312 698 505.650390625 697 c 2,43,-1
 484.75 695 l 2,44,45
 450.650390625 692 450.650390625 692 428.650390625 677 c 128,-1,46
 406.650390625 662 406.650390625 662 379.150390625 623 c 2,47,-1
 254.849609375 446 l 2,48,49
 243.849609375 429 243.849609375 429 253.75 413 c 2,50,-1
 460.549804688 59 l 2,51,52
 469.349609375 43 469.349609375 43 478.700195312 36 c 128,-1,53
 488.049804688 29 488.049804688 29 501.25 27 c 2,54,-1
 527.650390625 23 l 2,55,56
 540.849609375 22 540.849609375 22 540.849609375 11 c 256,57,58
 540.849609375 0 540.849609375 0 525.450195312 0 c 2,59,-1
 329.650390625 0 l 2,60,61
 314.25 0 314.25 0 314.25 11 c 0,62,63
 314.25 21 314.25 21 328.549804688 23 c 2,64,-1
 347.25 25 l 2,65,66
 390.150390625 30 390.150390625 30 364.849609375 74 c 2,67,-1
 206.450195312 348 l 2,68,69
 202.049804688 356 202.049804688 356 196.549804688 356.5 c 128,-1,70
 191.049804688 357 191.049804688 357 185.549804688 349 c 2,71,-1
 162.450195312 316 l 2,72,73
 154.75 306 154.75 306 152 297 c 128,-1,74
 149.25 288 149.25 288 149.25 274 c 2,75,-1
 149.25 67 l 2,76,77
 149.25 46 149.25 46 156.400390625 38 c 128,-1,78
 163.549804688 30 163.549804688 30 186.650390625 27 c 2,79,-1
 216.349609375 23 l 2,80,81
 228.450195312 21 228.450195312 21 228.450195312 12 c 0,82,83
 228.450195312 0 228.450195312 0 211.950195312 0 c 2,84,-1
 10.650390625 0 l 2,0,1
EndSplineSet
EndChar

StartChar: L
Encoding: 76 76 51
Width: 433
GlyphClass: 2
Flags: W
AnchorPoint: "Anchor-1" 207.037 0 basechar 0
AnchorPoint: "Anchor-0" 116.838 720 basechar 0
LayerCount: 2
Fore
SplineSet
16.7373046875 0 m 2,0,1
 0.2373046875 0 0.2373046875 0 0.2373046875 11 c 0,2,3
 0.2373046875 20 0.2373046875 20 14.537109375 23 c 2,4,-1
 39.837890625 27 l 2,5,6
 62.9375 31 62.9375 31 70.087890625 38 c 128,-1,7
 77.2373046875 45 77.2373046875 45 77.2373046875 66 c 2,8,-1
 77.2373046875 654 l 2,9,10
 77.2373046875 675 77.2373046875 675 70.087890625 682 c 128,-1,11
 62.9375 689 62.9375 689 39.837890625 693 c 2,12,-1
 14.537109375 697 l 2,13,14
 0.2373046875 700 0.2373046875 700 0.2373046875 709 c 0,15,16
 0.2373046875 720 0.2373046875 720 16.7373046875 720 c 2,17,-1
 218.037109375 720 l 2,18,19
 234.537109375 720 234.537109375 720 234.537109375 708 c 0,20,21
 234.537109375 699 234.537109375 699 222.4375 697 c 2,22,-1
 192.737304688 693 l 2,23,24
 169.637695312 690 169.637695312 690 162.487304688 682 c 128,-1,25
 155.337890625 674 155.337890625 674 155.337890625 653 c 2,26,-1
 155.337890625 93 l 2,27,28
 155.337890625 57 155.337890625 57 177.887695312 41 c 128,-1,29
 200.4375 25 200.4375 25 234.537109375 25 c 0,30,31
 259.837890625 25 259.837890625 25 286.787109375 34.5 c 128,-1,32
 313.737304688 44 313.737304688 44 335.737304688 70.5 c 128,-1,33
 357.737304688 97 357.737304688 97 368.737304688 148 c 2,34,-1
 383.037109375 215 l 2,35,36
 386.337890625 228 386.337890625 228 399.537109375 228 c 0,37,38
 414.9375 228 414.9375 228 412.737304688 211 c 2,39,-1
 399.537109375 23 l 2,40,41
 397.337890625 0 397.337890625 0 372.037109375 0 c 2,42,-1
 16.7373046875 0 l 2,0,1
EndSplineSet
EndChar

StartChar: Lslash
Encoding: 321 321 55
Width: 434
GlyphClass: 2
Flags: W
AnchorPoint: "Anchor-1" 207.483 0 basechar 0
AnchorPoint: "Anchor-0" 117.283 720 basechar 0
LayerCount: 2
Fore
SplineSet
17.18359375 0 m 2,0,1
 0.68359375 0 0.68359375 0 0.68359375 11 c 0,2,3
 0.68359375 20 0.68359375 20 14.9833984375 23 c 2,4,-1
 40.283203125 27 l 2,5,6
 63.3837890625 31 63.3837890625 31 70.533203125 38 c 128,-1,7
 77.68359375 45 77.68359375 45 77.68359375 66 c 2,8,-1
 77.68359375 320 l 1,9,-1
 12.783203125 283 l 2,10,11
 3.9833984375 278 3.9833984375 278 -1.5166015625 286 c 2,12,-1
 -7.0166015625 293 l 2,13,14
 -12.5166015625 302 -12.5166015625 302 -3.716796875 307 c 2,15,-1
 77.68359375 353 l 1,16,-1
 77.68359375 654 l 2,17,18
 77.68359375 675 77.68359375 675 70.533203125 682 c 128,-1,19
 63.3837890625 689 63.3837890625 689 40.283203125 693 c 2,20,-1
 14.9833984375 697 l 2,21,22
 0.68359375 700 0.68359375 700 0.68359375 709 c 0,23,24
 0.68359375 720 0.68359375 720 17.18359375 720 c 2,25,-1
 218.483398438 720 l 2,26,27
 234.983398438 720 234.983398438 720 234.983398438 708 c 0,28,29
 234.983398438 699 234.983398438 699 222.883789062 697 c 2,30,-1
 193.18359375 693 l 2,31,32
 170.083984375 690 170.083984375 690 162.93359375 682 c 128,-1,33
 155.783203125 674 155.783203125 674 155.783203125 653 c 2,34,-1
 155.783203125 400 l 1,35,-1
 253.68359375 456 l 2,36,37
 262.483398438 461 262.483398438 461 267.983398438 453 c 2,38,-1
 273.483398438 446 l 2,39,40
 278.983398438 437 278.983398438 437 270.18359375 432 c 2,41,-1
 155.783203125 367 l 1,42,-1
 155.783203125 93 l 2,43,44
 155.783203125 57 155.783203125 57 178.333984375 41 c 128,-1,45
 200.883789062 25 200.883789062 25 234.983398438 25 c 0,46,47
 260.283203125 25 260.283203125 25 287.233398438 34.5 c 128,-1,48
 314.18359375 44 314.18359375 44 336.18359375 70.5 c 128,-1,49
 358.18359375 97 358.18359375 97 369.18359375 148 c 2,50,-1
 383.483398438 215 l 2,51,52
 386.783203125 228 386.783203125 228 399.983398438 228 c 0,53,54
 415.383789062 228 415.383789062 228 413.18359375 211 c 2,55,-1
 399.983398438 23 l 2,56,57
 397.783203125 0 397.783203125 0 372.483398438 0 c 2,58,-1
 17.18359375 0 l 2,0,1
EndSplineSet
EndChar

StartChar: M
Encoding: 77 77 56
Width: 698
GlyphClass: 1
Flags: W
LayerCount: 2
Fore
SplineSet
313.25 10 m 256,0,1
 308.849609375 10 308.849609375 10 303.349609375 13 c 128,-1,2
 297.849609375 16 297.849609375 16 295.650390625 26 c 2,3,-1
 129.549804688 639 l 2,4,5
 128.450195312 646 128.450195312 646 122.950195312 645.5 c 128,-1,6
 117.450195312 645 117.450195312 645 117.450195312 638 c 2,7,-1
 95.4501953125 86 l 2,8,9
 94.349609375 58 94.349609375 58 105.349609375 43.5 c 128,-1,10
 116.349609375 29 116.349609375 29 143.849609375 25 c 2,11,-1
 158.150390625 23 l 2,12,13
 172.450195312 22 172.450195312 22 172.450195312 11 c 256,14,15
 172.450195312 0 172.450195312 0 155.950195312 0 c 2,16,-1
 -1.349609375 0 l 2,17,18
 -17.849609375 0 -17.849609375 0 -17.849609375 11 c 256,19,20
 -17.849609375 22 -17.849609375 22 -3.5498046875 23 c 2,21,-1
 10.75 25 l 2,22,23
 39.349609375 29 39.349609375 29 49.7998046875 43.5 c 128,-1,24
 60.25 58 60.25 58 61.349609375 86 c 2,25,-1
 83.349609375 654 l 2,26,27
 84.4501953125 675 84.4501953125 675 76.75 682 c 128,-1,28
 69.0498046875 689 69.0498046875 689 43.75 693 c 2,29,-1
 18.4501953125 697 l 2,30,31
 4.150390625 700 4.150390625 700 4.150390625 709 c 0,32,33
 4.150390625 720 4.150390625 720 20.650390625 720 c 2,34,-1
 152.650390625 720 l 2,35,36
 186.75 720 186.75 720 194.450195312 690 c 2,37,-1
 327.549804688 191 l 2,38,39
 329.75 184 329.75 184 334.700195312 184 c 128,-1,40
 339.650390625 184 339.650390625 184 340.75 191 c 2,41,-1
 479.349609375 695 l 2,42,43
 485.950195312 720 485.950195312 720 514.549804688 720 c 2,44,-1
 644.349609375 720 l 2,45,46
 660.849609375 720 660.849609375 720 660.849609375 709 c 0,47,48
 660.849609375 700 660.849609375 700 646.549804688 697 c 2,49,-1
 621.25 693 l 2,50,51
 598.150390625 689 598.150390625 689 590.450195312 682 c 128,-1,52
 582.75 675 582.75 675 583.849609375 654 c 2,53,-1
 605.849609375 66 l 2,54,55
 606.950195312 45 606.950195312 45 613.549804688 38 c 128,-1,56
 620.150390625 31 620.150390625 31 643.25 27 c 2,57,-1
 668.549804688 23 l 2,58,59
 682.849609375 20 682.849609375 20 682.849609375 11 c 0,60,61
 682.849609375 0 682.849609375 0 666.349609375 0 c 2,62,-1
 467.25 0 l 2,63,64
 450.75 0 450.75 0 450.75 11 c 0,65,66
 450.75 20 450.75 20 465.049804688 23 c 2,67,-1
 490.349609375 27 l 2,68,69
 513.450195312 31 513.450195312 31 521.150390625 38 c 128,-1,70
 528.849609375 45 528.849609375 45 527.75 66 c 2,71,-1
 509.049804688 638 l 2,72,73
 509.049804688 645 509.049804688 645 504.099609375 645.5 c 128,-1,74
 499.150390625 646 499.150390625 646 496.950195312 640 c 2,75,-1
 329.75 26 l 2,76,77
 327.549804688 16 327.549804688 16 322.599609375 13 c 128,-1,78
 317.650390625 10 317.650390625 10 313.25 10 c 256,0,1
EndSplineSet
EndChar

StartChar: N
Encoding: 78 78 57
Width: 567
GlyphClass: 2
Flags: W
AnchorPoint: "Anchor-1" 270 0 basechar 0
AnchorPoint: "Anchor-0" 270 720 basechar 0
LayerCount: 2
Fore
SplineSet
444.900390625 -9 m 0,0,1
 427.299804688 -9 427.299804688 -9 415.200195312 15 c 2,2,-1
 117.099609375 603 l 2,3,4
 113.799804688 610 113.799804688 610 108.849609375 609 c 128,-1,5
 103.900390625 608 103.900390625 608 103.900390625 600 c 2,6,-1
 103.900390625 86 l 2,7,8
 103.900390625 58 103.900390625 58 114.349609375 43.5 c 128,-1,9
 124.799804688 29 124.799804688 29 152.299804688 25 c 2,10,-1
 166.599609375 23 l 2,11,12
 180.900390625 22 180.900390625 22 180.900390625 11 c 256,13,14
 180.900390625 0 180.900390625 0 164.400390625 0 c 2,15,-1
 7.099609375 0 l 2,16,17
 -9.400390625 0 -9.400390625 0 -9.400390625 11 c 256,18,19
 -9.400390625 22 -9.400390625 22 4.900390625 23 c 2,20,-1
 19.2001953125 25 l 2,21,22
 47.7998046875 29 47.7998046875 29 58.7998046875 43.5 c 128,-1,23
 69.7998046875 58 69.7998046875 58 69.7998046875 86 c 2,24,-1
 69.7998046875 654 l 2,25,26
 69.7998046875 675 69.7998046875 675 62.650390625 682 c 128,-1,27
 55.5 689 55.5 689 30.2001953125 693 c 2,28,-1
 4.900390625 697 l 2,29,30
 -9.400390625 700 -9.400390625 700 -9.400390625 709 c 0,31,32
 -9.400390625 720 -9.400390625 720 7.099609375 720 c 2,33,-1
 124.799804688 720 l 2,34,35
 152.299804688 720 152.299804688 720 163.299804688 698 c 2,36,-1
 422.900390625 179 l 2,37,38
 426.200195312 173 426.200195312 173 431.150390625 174 c 128,-1,39
 436.099609375 175 436.099609375 175 436.099609375 181 c 2,40,-1
 436.099609375 634 l 2,41,42
 436.099609375 666 436.099609375 666 424 678.5 c 128,-1,43
 411.900390625 691 411.900390625 691 393.200195312 694 c 2,44,-1
 373.400390625 697 l 2,45,46
 359.099609375 700 359.099609375 700 359.099609375 709 c 0,47,48
 359.099609375 720 359.099609375 720 375.599609375 720 c 2,49,-1
 532.900390625 720 l 2,50,51
 549.400390625 720 549.400390625 720 549.400390625 709 c 256,52,53
 549.400390625 698 549.400390625 698 535.099609375 697 c 2,54,-1
 520.799804688 695 l 2,55,56
 492.200195312 691 492.200195312 691 481.200195312 678.5 c 128,-1,57
 470.200195312 666 470.200195312 666 470.200195312 634 c 2,58,-1
 470.200195312 23 l 2,59,60
 470.200195312 5 470.200195312 5 463.049804688 -2 c 128,-1,61
 455.900390625 -9 455.900390625 -9 444.900390625 -9 c 0,0,1
EndSplineSet
EndChar

StartChar: Eng
Encoding: 330 330 62
Width: 567
GlyphClass: 1
Flags: W
LayerCount: 2
Fore
SplineSet
312.900390625 -215 m 0,0,1
 281 -215 281 -215 260.099609375 -200 c 128,-1,2
 239.200195312 -185 239.200195312 -185 239.200195312 -161 c 0,3,4
 239.200195312 -144 239.200195312 -144 250.75 -131.5 c 128,-1,5
 262.299804688 -119 262.299804688 -119 282.099609375 -119 c 0,6,7
 299.700195312 -119 299.700195312 -119 307.400390625 -127.5 c 128,-1,8
 315.099609375 -136 315.099609375 -136 319.5 -147 c 128,-1,9
 323.900390625 -158 323.900390625 -158 331.049804688 -166.5 c 128,-1,10
 338.200195312 -175 338.200195312 -175 352.5 -175 c 0,11,12
 373.400390625 -175 373.400390625 -175 384.400390625 -153 c 128,-1,13
 395.400390625 -131 395.400390625 -131 395.400390625 -91 c 2,14,-1
 395.400390625 52 l 2,15,16
 395.400390625 67 395.400390625 67 387.700195312 82 c 2,17,-1
 117.099609375 603 l 2,18,19
 113.799804688 610 113.799804688 610 108.849609375 609 c 128,-1,20
 103.900390625 608 103.900390625 608 103.900390625 600 c 2,21,-1
 103.900390625 86 l 2,22,23
 103.900390625 58 103.900390625 58 114.349609375 43.5 c 128,-1,24
 124.799804688 29 124.799804688 29 152.299804688 25 c 2,25,-1
 166.599609375 23 l 2,26,27
 180.900390625 22 180.900390625 22 180.900390625 11 c 256,28,29
 180.900390625 0 180.900390625 0 164.400390625 0 c 2,30,-1
 7.099609375 0 l 2,31,32
 -9.400390625 0 -9.400390625 0 -9.400390625 11 c 256,33,34
 -9.400390625 22 -9.400390625 22 4.900390625 23 c 2,35,-1
 19.2001953125 25 l 2,36,37
 47.7998046875 29 47.7998046875 29 58.7998046875 43.5 c 128,-1,38
 69.7998046875 58 69.7998046875 58 69.7998046875 86 c 2,39,-1
 69.7998046875 654 l 2,40,41
 69.7998046875 675 69.7998046875 675 62.650390625 682 c 128,-1,42
 55.5 689 55.5 689 30.2001953125 693 c 2,43,-1
 4.900390625 697 l 2,44,45
 -9.400390625 700 -9.400390625 700 -9.400390625 709 c 0,46,47
 -9.400390625 720 -9.400390625 720 7.099609375 720 c 2,48,-1
 113.799804688 720 l 2,49,50
 140.200195312 720 140.200195312 720 152.299804688 698 c 2,51,-1
 422.900390625 179 l 2,52,53
 426.200195312 173 426.200195312 173 431.150390625 174 c 128,-1,54
 436.099609375 175 436.099609375 175 436.099609375 181 c 2,55,-1
 436.099609375 634 l 2,56,57
 436.099609375 666 436.099609375 666 424 678.5 c 128,-1,58
 411.900390625 691 411.900390625 691 393.200195312 694 c 2,59,-1
 373.400390625 697 l 2,60,61
 359.099609375 700 359.099609375 700 359.099609375 709 c 0,62,63
 359.099609375 720 359.099609375 720 375.599609375 720 c 2,64,-1
 532.900390625 720 l 2,65,66
 549.400390625 720 549.400390625 720 549.400390625 709 c 256,67,68
 549.400390625 698 549.400390625 698 535.099609375 697 c 2,69,-1
 520.799804688 695 l 2,70,71
 492.200195312 691 492.200195312 691 481.200195312 678.5 c 128,-1,72
 470.200195312 666 470.200195312 666 470.200195312 634 c 2,73,-1
 470.200195312 44 l 2,74,75
 470.200195312 -76 470.200195312 -76 427.299804688 -145.5 c 128,-1,76
 384.400390625 -215 384.400390625 -215 312.900390625 -215 c 0,0,1
EndSplineSet
EndChar

StartChar: O
Encoding: 79 79 63
Width: 567
GlyphClass: 2
Flags: W
AnchorPoint: "Anchor-2" 507.6 10 basechar 0
AnchorPoint: "Anchor-1" 270 0 basechar 0
AnchorPoint: "Anchor-0" 270 720 basechar 0
LayerCount: 2
Fore
SplineSet
270 -9 m 256,0,1
 217.200195312 -9 217.200195312 -9 171 19.5 c 128,-1,2
 124.799804688 48 124.799804688 48 90.150390625 98 c 128,-1,3
 55.5 148 55.5 148 36.25 215.5 c 128,-1,4
 17 283 17 283 17 361 c 256,5,6
 17 439 17 439 36.25 506 c 128,-1,7
 55.5 573 55.5 573 90.150390625 623.5 c 128,-1,8
 124.799804688 674 124.799804688 674 171 702 c 128,-1,9
 217.200195312 730 217.200195312 730 270 730 c 256,10,11
 322.799804688 730 322.799804688 730 368.450195312 702 c 128,-1,12
 414.099609375 674 414.099609375 674 449.299804688 623.5 c 128,-1,13
 484.5 573 484.5 573 503.75 506 c 128,-1,14
 523 439 523 439 523 361 c 256,15,16
 523 283 523 283 503.75 215.5 c 128,-1,17
 484.5 148 484.5 148 449.299804688 98 c 128,-1,18
 414.099609375 48 414.099609375 48 368.450195312 19.5 c 128,-1,19
 322.799804688 -9 322.799804688 -9 270 -9 c 256,0,1
270 18 m 0,20,21
 348.099609375 18 348.099609375 18 392.099609375 103 c 128,-1,22
 436.099609375 188 436.099609375 188 436.099609375 361 c 256,23,24
 436.099609375 534 436.099609375 534 392.099609375 618.5 c 128,-1,25
 348.099609375 703 348.099609375 703 270 703 c 0,26,27
 193 703 193 703 148.450195312 618.5 c 128,-1,28
 103.900390625 534 103.900390625 534 103.900390625 361 c 256,29,30
 103.900390625 188 103.900390625 188 148.450195312 103 c 128,-1,31
 193 18 193 18 270 18 c 0,20,21
EndSplineSet
Substitution2: "Single Substitution lookup 17 subtable" ordmasculine
Substitution2: "'aalt' Access All Alternates in Latin lookup 0 subtable" ordmasculine
EndChar

StartChar: Oslash
Encoding: 216 216 70
Width: 567
GlyphClass: 2
Flags: W
AnchorPoint: "Anchor-2" 507.6 10 basechar 0
AnchorPoint: "Anchor-1" 270 0 basechar 0
AnchorPoint: "Anchor-0" 270 720 basechar 0
LayerCount: 2
Fore
SplineSet
67.599609375 -60 m 2,0,1
 53.2998046875 -60 53.2998046875 -60 58.7998046875 -48 c 2,2,-1
 113.799804688 68 l 1,3,4
 68.7001953125 118 68.7001953125 118 42.849609375 194.5 c 128,-1,5
 17 271 17 271 17 361 c 0,6,7
 17 439 17 439 36.25 506 c 128,-1,8
 55.5 573 55.5 573 90.150390625 623.5 c 128,-1,9
 124.799804688 674 124.799804688 674 171 702 c 128,-1,10
 217.200195312 730 217.200195312 730 270 730 c 0,11,12
 306.299804688 730 306.299804688 730 339.299804688 716.5 c 128,-1,13
 372.299804688 703 372.299804688 703 400.900390625 678 c 1,14,-1
 449.299804688 782 l 2,15,16
 452.599609375 790 452.599609375 790 461.400390625 790 c 2,17,-1
 473.5 790 l 2,18,19
 487.799804688 790 487.799804688 790 482.299804688 778 c 2,20,-1
 424 655 l 1,21,22
 469.099609375 605 469.099609375 605 496.049804688 528.5 c 128,-1,23
 523 452 523 452 523 361 c 0,24,25
 523 283 523 283 503.75 215.5 c 128,-1,26
 484.5 148 484.5 148 449.299804688 98 c 128,-1,27
 414.099609375 48 414.099609375 48 368.450195312 19.5 c 128,-1,28
 322.799804688 -9 322.799804688 -9 270 -9 c 0,29,30
 233.700195312 -9 233.700195312 -9 199.599609375 5 c 128,-1,31
 165.5 19 165.5 19 136.900390625 44 c 1,32,-1
 91.7998046875 -52 l 2,33,34
 88.5 -60 88.5 -60 79.7001953125 -60 c 2,35,-1
 67.599609375 -60 l 2,0,1
103.900390625 361 m 0,36,37
 103.900390625 284 103.900390625 284 112.700195312 224.5 c 128,-1,38
 121.5 165 121.5 165 139.099609375 123 c 1,39,-1
 381.099609375 637 l 1,40,41
 339.299804688 703 339.299804688 703 270 703 c 0,42,43
 193 703 193 703 148.450195312 618.5 c 128,-1,44
 103.900390625 534 103.900390625 534 103.900390625 361 c 0,36,37
270 18 m 0,45,46
 348.099609375 18 348.099609375 18 392.099609375 103 c 128,-1,47
 436.099609375 188 436.099609375 188 436.099609375 361 c 0,48,49
 436.099609375 439 436.099609375 439 426.75 499.5 c 128,-1,50
 417.400390625 560 417.400390625 560 399.799804688 602 c 1,51,-1
 156.700195312 87 l 1,52,53
 198.5 18 198.5 18 270 18 c 0,45,46
EndSplineSet
EndChar

StartChar: OE
Encoding: 338 338 72
Width: 790
GlyphClass: 1
Flags: W
LayerCount: 2
Fore
SplineSet
263.387695312 -9 m 0,0,1
 206.1875 -9 206.1875 -9 158.887695312 19 c 128,-1,2
 111.587890625 47 111.587890625 47 77.4873046875 97.5 c 128,-1,3
 43.3876953125 148 43.3876953125 148 24.6875 215 c 128,-1,4
 5.9873046875 282 5.9873046875 282 5.9873046875 359 c 0,5,6
 5.9873046875 463 5.9873046875 463 38.4375 547 c 128,-1,7
 70.8876953125 631 70.8876953125 631 129.1875 680 c 128,-1,8
 187.487304688 729 187.487304688 729 263.387695312 729 c 0,9,10
 296.387695312 729 296.387695312 729 324.4375 724.5 c 128,-1,11
 352.487304688 720 352.487304688 720 389.887695312 720 c 2,12,-1
 698.987304688 720 l 2,13,14
 724.287109375 720 724.287109375 720 726.487304688 697 c 2,15,-1
 735.287109375 531 l 2,16,17
 737.487304688 514 737.487304688 514 720.987304688 514 c 0,18,19
 707.787109375 514 707.787109375 514 705.587890625 527 c 2,20,-1
 698.987304688 564 l 2,21,22
 686.887695312 632 686.887695312 632 649.487304688 663.5 c 128,-1,23
 612.087890625 695 612.087890625 695 546.087890625 695 c 0,24,25
 502.087890625 695 502.087890625 695 485.037109375 683.5 c 128,-1,26
 467.987304688 672 467.987304688 672 467.987304688 643 c 2,27,-1
 467.987304688 402 l 2,28,29
 467.987304688 388 467.987304688 388 483.387695312 388 c 2,30,-1
 538.387695312 388 l 2,31,32
 586.787109375 388 586.787109375 388 597.787109375 435 c 2,33,-1
 608.787109375 485 l 2,34,35
 613.1875 500 613.1875 500 627.487304688 498 c 0,36,37
 639.587890625 496 639.587890625 496 639.587890625 481 c 2,38,-1
 639.587890625 256 l 2,39,40
 639.587890625 241 639.587890625 241 627.487304688 239 c 0,41,42
 613.1875 237 613.1875 237 608.787109375 252 c 2,43,-1
 597.787109375 301 l 2,44,45
 590.087890625 336 590.087890625 336 576.337890625 347 c 128,-1,46
 562.587890625 358 562.587890625 358 537.287109375 358 c 2,47,-1
 483.387695312 358 l 2,48,49
 467.987304688 358 467.987304688 358 467.987304688 344 c 2,50,-1
 467.987304688 93 l 2,51,52
 467.987304688 57 467.987304688 57 488.337890625 41 c 128,-1,53
 508.6875 25 508.6875 25 562.587890625 25 c 0,54,55
 617.587890625 25 617.587890625 25 656.637695312 50.5 c 128,-1,56
 695.6875 76 695.6875 76 711.087890625 146 c 2,57,-1
 724.287109375 205 l 2,58,59
 727.587890625 218 727.587890625 218 740.787109375 218 c 0,60,61
 756.1875 218 756.1875 218 753.987304688 201 c 2,62,-1
 742.987304688 23 l 2,63,64
 740.787109375 0 740.787109375 0 715.487304688 0 c 2,65,-1
 389.887695312 0 l 2,66,67
 352.487304688 0 352.487304688 0 324.4375 -4.5 c 128,-1,68
 296.387695312 -9 296.387695312 -9 263.387695312 -9 c 0,0,1
267.787109375 18 m 0,69,70
 322.787109375 18 322.787109375 18 356.337890625 42.5 c 128,-1,71
 389.887695312 67 389.887695312 67 389.887695312 116 c 2,72,-1
 389.887695312 604 l 2,73,74
 389.887695312 655 389.887695312 655 356.337890625 678.5 c 128,-1,75
 322.787109375 702 322.787109375 702 267.787109375 702 c 0,76,77
 175.387695312 702 175.387695312 702 134.137695312 617 c 128,-1,78
 92.8876953125 532 92.8876953125 532 92.8876953125 359 c 0,79,80
 92.8876953125 187 92.8876953125 187 134.137695312 102.5 c 128,-1,81
 175.387695312 18 175.387695312 18 267.787109375 18 c 0,69,70
EndSplineSet
EndChar

StartChar: P
Encoding: 80 80 73
Width: 489
GlyphClass: 1
Flags: W
LayerCount: 2
Fore
SplineSet
14.349609375 0 m 2,0,1
 -2.150390625 0 -2.150390625 0 -2.150390625 11 c 0,2,3
 -2.150390625 20 -2.150390625 20 12.150390625 23 c 2,4,-1
 37.4501953125 27 l 2,5,6
 60.5498046875 31 60.5498046875 31 67.7001953125 38 c 128,-1,7
 74.849609375 45 74.849609375 45 74.849609375 66 c 2,8,-1
 74.849609375 654 l 2,9,10
 74.849609375 675 74.849609375 675 67.7001953125 682 c 128,-1,11
 60.5498046875 689 60.5498046875 689 37.4501953125 693 c 2,12,-1
 12.150390625 697 l 2,13,14
 -2.150390625 700 -2.150390625 700 -2.150390625 709 c 0,15,16
 -2.150390625 720 -2.150390625 720 14.349609375 720 c 2,17,-1
 244.25 720 l 2,18,19
 309.150390625 720 309.150390625 720 358.650390625 694.5 c 128,-1,20
 408.150390625 669 408.150390625 669 435.650390625 624 c 128,-1,21
 463.150390625 579 463.150390625 579 463.150390625 520 c 0,22,23
 463.150390625 463 463.150390625 463 435.650390625 419 c 128,-1,24
 408.150390625 375 408.150390625 375 359.75 350.5 c 128,-1,25
 311.349609375 326 311.349609375 326 247.549804688 326 c 2,26,-1
 168.349609375 326 l 2,27,28
 152.950195312 326 152.950195312 326 152.950195312 312 c 2,29,-1
 152.950195312 70 l 2,30,31
 152.950195312 49 152.950195312 49 161.75 41.5 c 128,-1,32
 170.549804688 34 170.549804688 34 201.349609375 29 c 2,33,-1
 242.049804688 23 l 2,34,35
 254.150390625 21 254.150390625 21 254.150390625 12 c 0,36,37
 254.150390625 0 254.150390625 0 237.650390625 0 c 2,38,-1
 14.349609375 0 l 2,0,1
152.950195312 406 m 2,39,40
 152.950195312 351 152.950195312 351 226.650390625 351 c 0,41,42
 298.150390625 351 298.150390625 351 339.400390625 397 c 128,-1,43
 380.650390625 443 380.650390625 443 380.650390625 523 c 0,44,45
 380.650390625 605 380.650390625 605 338.849609375 650 c 128,-1,46
 297.049804688 695 297.049804688 695 220.049804688 695 c 0,47,48
 152.950195312 695 152.950195312 695 152.950195312 655 c 2,49,-1
 152.950195312 406 l 2,39,40
EndSplineSet
EndChar

StartChar: Thorn
Encoding: 222 222 74
Width: 489
GlyphClass: 1
Flags: W
LayerCount: 2
Fore
SplineSet
14.349609375 0 m 2,0,1
 -2.150390625 0 -2.150390625 0 -2.150390625 11 c 0,2,3
 -2.150390625 20 -2.150390625 20 12.150390625 23 c 2,4,-1
 37.4501953125 27 l 2,5,6
 60.5498046875 31 60.5498046875 31 67.7001953125 38 c 128,-1,7
 74.849609375 45 74.849609375 45 74.849609375 66 c 2,8,-1
 74.849609375 654 l 2,9,10
 74.849609375 675 74.849609375 675 67.7001953125 682 c 128,-1,11
 60.5498046875 689 60.5498046875 689 37.4501953125 693 c 2,12,-1
 12.150390625 697 l 2,13,14
 -2.150390625 700 -2.150390625 700 -2.150390625 709 c 0,15,16
 -2.150390625 720 -2.150390625 720 14.349609375 720 c 2,17,-1
 237.650390625 720 l 2,18,19
 254.150390625 720 254.150390625 720 254.150390625 709 c 0,20,21
 254.150390625 700 254.150390625 700 239.849609375 697 c 2,22,-1
 190.349609375 689 l 2,23,24
 167.25 685 167.25 685 160.099609375 677.5 c 128,-1,25
 152.950195312 670 152.950195312 670 152.950195312 649 c 2,26,-1
 152.950195312 593 l 2,27,28
 152.950195312 579 152.950195312 579 168.349609375 579 c 2,29,-1
 244.25 579 l 2,30,31
 309.150390625 579 309.150390625 579 358.650390625 553.5 c 128,-1,32
 408.150390625 528 408.150390625 528 435.650390625 483 c 128,-1,33
 463.150390625 438 463.150390625 438 463.150390625 379 c 0,34,35
 463.150390625 322 463.150390625 322 435.650390625 278.5 c 128,-1,36
 408.150390625 235 408.150390625 235 359.75 210 c 128,-1,37
 311.349609375 185 311.349609375 185 247.549804688 185 c 2,38,-1
 168.349609375 185 l 2,39,40
 152.950195312 185 152.950195312 185 152.950195312 171 c 2,41,-1
 152.950195312 71 l 2,42,43
 152.950195312 50 152.950195312 50 160.099609375 42.5 c 128,-1,44
 167.25 35 167.25 35 190.349609375 31 c 2,45,-1
 239.849609375 23 l 2,46,47
 254.150390625 20 254.150390625 20 254.150390625 11 c 0,48,49
 254.150390625 0 254.150390625 0 237.650390625 0 c 2,50,-1
 14.349609375 0 l 2,0,1
226.650390625 210 m 0,51,52
 298.150390625 210 298.150390625 210 339.400390625 256 c 128,-1,53
 380.650390625 302 380.650390625 302 380.650390625 382 c 0,54,55
 380.650390625 464 380.650390625 464 338.849609375 509 c 128,-1,56
 297.049804688 554 297.049804688 554 220.049804688 554 c 0,57,58
 152.950195312 554 152.950195312 554 152.950195312 514 c 2,59,-1
 152.950195312 265 l 2,60,61
 152.950195312 210 152.950195312 210 226.650390625 210 c 0,51,52
EndSplineSet
EndChar

StartChar: Q
Encoding: 81 81 75
Width: 565
GlyphClass: 1
Flags: W
LayerCount: 2
Fore
SplineSet
448.400390625 -215 m 0,0,1
 415.400390625 -215 415.400390625 -215 378.549804688 -202.5 c 128,-1,2
 341.700195312 -190 341.700195312 -190 313.099609375 -159 c 128,-1,3
 284.5 -128 284.5 -128 273.5 -71 c 0,4,5
 268 -39 268 -39 255.900390625 -25 c 128,-1,6
 243.799804688 -11 243.799804688 -11 215.200195312 -1 c 0,7,8
 158 16 158 16 112.349609375 67.5 c 128,-1,9
 66.7001953125 119 66.7001953125 119 40.849609375 195 c 128,-1,10
 15 271 15 271 15 361 c 0,11,12
 15 439 15 439 34.25 506 c 128,-1,13
 53.5 573 53.5 573 88.150390625 623.5 c 128,-1,14
 122.799804688 674 122.799804688 674 169 702 c 128,-1,15
 215.200195312 730 215.200195312 730 268 730 c 256,16,17
 320.799804688 730 320.799804688 730 366.450195312 702 c 128,-1,18
 412.099609375 674 412.099609375 674 447.299804688 623.5 c 128,-1,19
 482.5 573 482.5 573 501.75 506 c 128,-1,20
 521 439 521 439 521 361 c 0,21,22
 521 269 521 269 494.049804688 191.5 c 128,-1,23
 467.099609375 114 467.099609375 114 420.349609375 63 c 128,-1,24
 373.599609375 12 373.599609375 12 314.200195312 -3 c 0,25,26
 307.599609375 -4 307.599609375 -4 307.599609375 -8.5 c 128,-1,27
 307.599609375 -13 307.599609375 -13 313.099609375 -17 c 0,28,29
 327.400390625 -26 327.400390625 -26 337.299804688 -39.5 c 128,-1,30
 347.200195312 -53 347.200195312 -53 353.799804688 -74 c 0,31,32
 373.599609375 -132 373.599609375 -132 404.950195312 -158 c 128,-1,33
 436.299804688 -184 436.299804688 -184 473.700195312 -184 c 0,34,35
 506.700195312 -184 506.700195312 -184 540.799804688 -165 c 0,36,37
 549.599609375 -160 549.599609375 -160 557.299804688 -162 c 128,-1,38
 565 -164 565 -164 565 -172 c 0,39,40
 565 -179 565 -179 556.200195312 -186 c 0,41,42
 538.599609375 -198 538.599609375 -198 512.75 -206.5 c 128,-1,43
 486.900390625 -215 486.900390625 -215 448.400390625 -215 c 0,0,1
268 18 m 0,44,45
 346.099609375 18 346.099609375 18 390.099609375 103 c 128,-1,46
 434.099609375 188 434.099609375 188 434.099609375 361 c 256,47,48
 434.099609375 534 434.099609375 534 390.099609375 618.5 c 128,-1,49
 346.099609375 703 346.099609375 703 268 703 c 0,50,51
 191 703 191 703 146.450195312 618.5 c 128,-1,52
 101.900390625 534 101.900390625 534 101.900390625 361 c 256,53,54
 101.900390625 188 101.900390625 188 146.450195312 103 c 128,-1,55
 191 18 191 18 268 18 c 0,44,45
EndSplineSet
EndChar

StartChar: R
Encoding: 82 82 76
Width: 537
GlyphClass: 2
Flags: W
AnchorPoint: "Anchor-1" 277.6 0 basechar 0
AnchorPoint: "Anchor-0" 255.6 720 basechar 0
LayerCount: 2
Fore
SplineSet
467.900390625 -9 m 0,0,1
 372.200195312 -9 372.200195312 -9 345.799804688 105 c 2,2,-1
 320.5 216 l 2,3,4
 308.400390625 270 308.400390625 270 293.549804688 298 c 128,-1,5
 278.700195312 326 278.700195312 326 252.849609375 336 c 128,-1,6
 227 346 227 346 181.900390625 346 c 0,7,8
 166.5 346 166.5 346 157.700195312 338.5 c 128,-1,9
 148.900390625 331 148.900390625 331 148.900390625 320 c 2,10,-1
 148.900390625 70 l 2,11,12
 148.900390625 49 148.900390625 49 157.700195312 41.5 c 128,-1,13
 166.5 34 166.5 34 197.299804688 29 c 2,14,-1
 238 23 l 2,15,16
 250.099609375 21 250.099609375 21 250.099609375 12 c 0,17,18
 250.099609375 0 250.099609375 0 233.599609375 0 c 2,19,-1
 10.2998046875 0 l 2,20,21
 -6.2001953125 0 -6.2001953125 0 -6.2001953125 11 c 0,22,23
 -6.2001953125 20 -6.2001953125 20 8.099609375 23 c 2,24,-1
 33.400390625 27 l 2,25,26
 56.5 31 56.5 31 63.650390625 38 c 128,-1,27
 70.7998046875 45 70.7998046875 45 70.7998046875 66 c 2,28,-1
 70.7998046875 654 l 2,29,30
 70.7998046875 675 70.7998046875 675 63.650390625 682 c 128,-1,31
 56.5 689 56.5 689 33.400390625 693 c 2,32,-1
 8.099609375 697 l 2,33,34
 -6.2001953125 700 -6.2001953125 700 -6.2001953125 709 c 0,35,36
 -6.2001953125 720 -6.2001953125 720 10.2998046875 720 c 2,37,-1
 233.599609375 720 l 2,38,39
 298.5 720 298.5 720 349.099609375 697 c 128,-1,40
 399.700195312 674 399.700195312 674 428.299804688 633.5 c 128,-1,41
 456.900390625 593 456.900390625 593 456.900390625 540 c 0,42,43
 456.900390625 477 456.900390625 477 415.099609375 426.5 c 128,-1,44
 373.299804688 376 373.299804688 376 309.5 355 c 0,45,46
 301.799804688 353 301.799804688 353 301.25 348.5 c 128,-1,47
 300.700195312 344 300.700195312 344 308.400390625 341 c 0,48,49
 343.599609375 326 343.599609375 326 363.950195312 299 c 128,-1,50
 384.299804688 272 384.299804688 272 395.299804688 227 c 2,51,-1
 419.5 125 l 2,52,53
 431.599609375 73 431.599609375 73 448.099609375 51 c 128,-1,54
 464.599609375 29 464.599609375 29 489.900390625 29 c 0,55,56
 498.700195312 29 498.700195312 29 505.849609375 31.5 c 128,-1,57
 513 34 513 34 524 41 c 0,58,59
 532.799804688 46 532.799804688 46 540.5 43.5 c 128,-1,60
 548.200195312 41 548.200195312 41 548.200195312 33 c 0,61,62
 548.200195312 16 548.200195312 16 524 3.5 c 128,-1,63
 499.799804688 -9 499.799804688 -9 467.900390625 -9 c 0,0,1
222.599609375 371 m 0,64,65
 297.400390625 371 297.400390625 371 335.900390625 416.5 c 128,-1,66
 374.400390625 462 374.400390625 462 374.400390625 538 c 0,67,68
 374.400390625 612 374.400390625 612 329.849609375 653.5 c 128,-1,69
 285.299804688 695 285.299804688 695 207.200195312 695 c 0,70,71
 148.900390625 695 148.900390625 695 148.900390625 655 c 2,72,-1
 148.900390625 426 l 2,73,74
 148.900390625 371 148.900390625 371 222.599609375 371 c 0,64,65
EndSplineSet
EndChar

StartChar: S
Encoding: 83 83 80
Width: 426
GlyphClass: 2
Flags: W
AnchorPoint: "Anchor-1" 209 0 basechar 0
AnchorPoint: "Anchor-0" 231 720 basechar 0
LayerCount: 2
Fore
SplineSet
181.5 -9 m 0,0,1
 159.5 -9 159.5 -9 132.549804688 -5 c 128,-1,2
 105.599609375 -1 105.599609375 -1 81.9501953125 5 c 128,-1,3
 58.2998046875 11 58.2998046875 11 45.099609375 18 c 0,4,5
 37.400390625 22 37.400390625 22 33.5498046875 26.5 c 128,-1,6
 29.7001953125 31 29.7001953125 31 29.7001953125 42 c 2,7,-1
 24.2001953125 199 l 2,8,9
 24.2001953125 219 24.2001953125 219 38.5 219 c 0,10,11
 50.599609375 219 50.599609375 219 55 201 c 2,12,-1
 64.900390625 163 l 2,13,14
 102.299804688 20 102.299804688 20 204.599609375 20 c 0,15,16
 259.599609375 20 259.599609375 20 292.049804688 53.5 c 128,-1,17
 324.5 87 324.5 87 324.5 148 c 0,18,19
 324.5 207 324.5 207 290.950195312 258 c 128,-1,20
 257.400390625 309 257.400390625 309 183.700195312 359 c 0,21,22
 102.299804688 412 102.299804688 412 64.900390625 461.5 c 128,-1,23
 27.5 511 27.5 511 27.5 567 c 0,24,25
 27.5 641 27.5 641 84.150390625 685.5 c 128,-1,26
 140.799804688 730 140.799804688 730 228.799804688 730 c 0,27,28
 261.799804688 730 261.799804688 730 292.599609375 723 c 128,-1,29
 323.400390625 716 323.400390625 716 343.200195312 703 c 0,30,31
 349.799804688 699 349.799804688 699 353.650390625 694 c 128,-1,32
 357.5 689 357.5 689 357.5 681 c 2,33,-1
 360.799804688 530 l 2,34,35
 360.799804688 513 360.799804688 513 346.5 513 c 0,36,37
 336.599609375 513 336.599609375 513 332.200195312 527 c 2,38,-1
 324.5 552 l 2,39,40
 300.299804688 629 300.299804688 629 274.450195312 664.5 c 128,-1,41
 248.599609375 700 248.599609375 700 200.200195312 700 c 0,42,43
 152.900390625 700 152.900390625 700 124.849609375 672 c 128,-1,44
 96.7998046875 644 96.7998046875 644 96.7998046875 593 c 0,45,46
 96.7998046875 550 96.7998046875 550 127.599609375 511 c 128,-1,47
 158.400390625 472 158.400390625 472 235.400390625 416 c 0,48,49
 317.900390625 355 317.900390625 355 355.849609375 298.5 c 128,-1,50
 393.799804688 242 393.799804688 242 393.799804688 178 c 0,51,52
 393.799804688 122 393.799804688 122 366.299804688 80 c 128,-1,53
 338.799804688 38 338.799804688 38 290.950195312 14.5 c 128,-1,54
 243.099609375 -9 243.099609375 -9 181.5 -9 c 0,0,1
EndSplineSet
EndChar

StartChar: uni1E9E
Encoding: 7838 7838 85
Width: 556
GlyphClass: 1
Flags: W
LayerCount: 2
Fore
SplineSet
349.200195312 -9 m 0,0,1
 315.099609375 -9 315.099609375 -9 281.549804688 -0.5 c 128,-1,2
 248 8 248 8 228.200195312 18 c 0,3,4
 220.5 22 220.5 22 216.650390625 26.5 c 128,-1,5
 212.799804688 31 212.799804688 31 212.799804688 42 c 2,6,-1
 212.799804688 189 l 2,7,8
 212.799804688 209 212.799804688 209 227.099609375 209 c 256,9,10
 241.400390625 209 241.400390625 209 244.700195312 191 c 2,11,-1
 256.799804688 133 l 2,12,13
 267.799804688 81 267.799804688 81 295.849609375 50.5 c 128,-1,14
 323.900390625 20 323.900390625 20 361.299804688 20 c 0,15,16
 382.200195312 20 382.200195312 20 403.099609375 28.5 c 128,-1,17
 424 37 424 37 438.849609375 63 c 128,-1,18
 453.700195312 89 453.700195312 89 453.700195312 139 c 0,19,20
 453.700195312 198 453.700195312 198 411.900390625 260 c 128,-1,21
 370.099609375 322 370.099609375 322 298.599609375 370 c 2,22,-1
 282.099609375 381 l 1,23,-1
 453.700195312 602 l 1,24,25
 430.599609375 651 430.599609375 651 392.650390625 676 c 128,-1,26
 354.700195312 701 354.700195312 701 307.400390625 701 c 0,27,28
 264.5 701 264.5 701 228.75 683.5 c 128,-1,29
 193 666 193 666 171.549804688 624.5 c 128,-1,30
 150.099609375 583 150.099609375 583 150.099609375 511 c 2,31,-1
 150.099609375 24 l 2,32,33
 150.099609375 0 150.099609375 0 123.700195312 0 c 2,34,-1
 11.5 0 l 2,35,36
 -5 0 -5 0 -5 11 c 0,37,38
 -5 20 -5 20 9.2998046875 23 c 2,39,-1
 34.599609375 27 l 2,40,41
 57.7001953125 31 57.7001953125 31 64.849609375 38 c 128,-1,42
 72 45 72 45 72 66 c 2,43,-1
 72 495 l 2,44,45
 72 569 72 569 103.349609375 621.5 c 128,-1,46
 134.700195312 674 134.700195312 674 188.049804688 702 c 128,-1,47
 241.400390625 730 241.400390625 730 307.400390625 730 c 0,48,49
 386.599609375 730 386.599609375 730 432.799804688 705 c 128,-1,50
 479 680 479 680 519.700195312 627 c 1,51,-1
 358 418 l 1,52,53
 431.700195312 359 431.700195312 359 477.349609375 295 c 128,-1,54
 523 231 523 231 523 169 c 0,55,56
 523 108 523 108 497.700195312 68.5 c 128,-1,57
 472.400390625 29 472.400390625 29 432.799804688 10 c 128,-1,58
 393.200195312 -9 393.200195312 -9 349.200195312 -9 c 0,0,1
EndSplineSet
EndChar

StartChar: T
Encoding: 84 84 86
Width: 484
GlyphClass: 2
Flags: W
AnchorPoint: "Anchor-1" 231.05 0 basechar 0
AnchorPoint: "Anchor-0" 231.05 720 basechar 0
LayerCount: 2
Fore
SplineSet
106.75 0 m 2,0,1
 90.25 0 90.25 0 90.25 11 c 256,2,3
 90.25 22 90.25 22 104.549804688 23 c 2,4,-1
 154.049804688 30 l 2,5,6
 176.049804688 33 176.049804688 33 183.75 40.5 c 128,-1,7
 191.450195312 48 191.450195312 48 191.450195312 69 c 2,8,-1
 191.450195312 669 l 2,9,10
 191.450195312 683 191.450195312 683 184.849609375 689 c 128,-1,11
 178.25 695 178.25 695 157.349609375 695 c 0,12,13
 116.650390625 695 116.650390625 695 77.0498046875 663 c 128,-1,14
 37.4501953125 631 37.4501953125 631 25.349609375 560 c 2,15,-1
 19.849609375 527 l 2,16,17
 17.650390625 514 17.650390625 514 4.4501953125 514 c 0,18,19
 -12.0498046875 514 -12.0498046875 514 -9.849609375 531 c 2,20,-1
 0.0498046875 712 l 2,21,22
 2.25 735 2.25 735 19.849609375 735 c 0,23,24
 27.5498046875 735 27.5498046875 735 34.150390625 731.5 c 128,-1,25
 40.75 728 40.75 728 56.7001953125 724 c 128,-1,26
 72.650390625 720 72.650390625 720 107.849609375 720 c 2,27,-1
 353.150390625 720 l 2,28,29
 388.349609375 720 388.349609375 720 404.299804688 724 c 128,-1,30
 420.25 728 420.25 728 427.400390625 731.5 c 128,-1,31
 434.549804688 735 434.549804688 735 441.150390625 735 c 0,32,33
 458.75 735 458.75 735 460.950195312 712 c 2,34,-1
 470.849609375 531 l 2,35,36
 473.049804688 514 473.049804688 514 456.549804688 514 c 0,37,38
 443.349609375 514 443.349609375 514 441.150390625 527 c 2,39,-1
 435.650390625 560 l 2,40,41
 424.650390625 631 424.650390625 631 385.049804688 663 c 128,-1,42
 345.450195312 695 345.450195312 695 303.650390625 695 c 0,43,44
 282.75 695 282.75 695 276.150390625 689 c 128,-1,45
 269.549804688 683 269.549804688 683 269.549804688 669 c 2,46,-1
 269.549804688 69 l 2,47,48
 269.549804688 48 269.549804688 48 277.799804688 40.5 c 128,-1,49
 286.049804688 33 286.049804688 33 306.950195312 30 c 2,50,-1
 356.450195312 23 l 2,51,52
 370.75 22 370.75 22 370.75 11 c 256,53,54
 370.75 0 370.75 0 354.25 0 c 2,55,-1
 106.75 0 l 2,0,1
EndSplineSet
EndChar

StartChar: U
Encoding: 85 85 89
Width: 562
GlyphClass: 2
Flags: W
AnchorPoint: "Anchor-2" 340.1 0 basechar 0
AnchorPoint: "Anchor-1" 267.5 0 basechar 0
AnchorPoint: "Anchor-0" 289.5 720 basechar 0
LayerCount: 2
Fore
SplineSet
275.200195312 -9 m 0,0,1
 215.799804688 -9 215.799804688 -9 170.150390625 16.5 c 128,-1,2
 124.5 42 124.5 42 99.2001953125 87.5 c 128,-1,3
 73.900390625 133 73.900390625 133 73.900390625 192 c 2,4,-1
 73.900390625 654 l 2,5,6
 73.900390625 675 73.900390625 675 66.75 682 c 128,-1,7
 59.599609375 689 59.599609375 689 36.5 693 c 2,8,-1
 11.2001953125 697 l 2,9,10
 -3.099609375 700 -3.099609375 700 -3.099609375 709 c 0,11,12
 -3.099609375 720 -3.099609375 720 13.400390625 720 c 2,13,-1
 214.700195312 720 l 2,14,15
 231.200195312 720 231.200195312 720 231.200195312 708 c 0,16,17
 231.200195312 699 231.200195312 699 219.099609375 697 c 2,18,-1
 189.400390625 693 l 2,19,20
 167.400390625 690 167.400390625 690 159.700195312 682 c 128,-1,21
 152 674 152 674 152 653 c 2,22,-1
 152 191 l 2,23,24
 152 115 152 115 189.400390625 73 c 128,-1,25
 226.799804688 31 226.799804688 31 293.900390625 31 c 0,26,27
 362.099609375 31 362.099609375 31 399.5 73 c 128,-1,28
 436.900390625 115 436.900390625 115 436.900390625 191 c 2,29,-1
 436.900390625 633 l 2,30,31
 436.900390625 687 436.900390625 687 399.5 693 c 2,32,-1
 369.799804688 697 l 2,33,34
 357.700195312 699 357.700195312 699 357.700195312 708 c 0,35,36
 357.700195312 720 357.700195312 720 374.200195312 720 c 2,37,-1
 532.599609375 720 l 2,38,39
 549.099609375 720 549.099609375 720 549.099609375 709 c 0,40,41
 549.099609375 700 549.099609375 700 534.799804688 697 c 2,42,-1
 509.5 693 l 2,43,44
 472.099609375 687 472.099609375 687 472.099609375 634 c 2,45,-1
 472.099609375 192 l 2,46,47
 472.099609375 101 472.099609375 101 418.200195312 46 c 128,-1,48
 364.299804688 -9 364.299804688 -9 275.200195312 -9 c 0,0,1
EndSplineSet
EndChar

StartChar: V
Encoding: 86 86 99
Width: 479
GlyphClass: 1
Flags: W
LayerCount: 2
Fore
SplineSet
229.049804688 -10 m 256,0,1
 224.650390625 -10 224.650390625 -10 219.150390625 -7 c 128,-1,2
 213.650390625 -4 213.650390625 -4 211.450195312 6 c 2,3,-1
 37.650390625 640 l 2,4,5
 29.9501953125 668 29.9501953125 668 20.599609375 679 c 128,-1,6
 11.25 690 11.25 690 -10.75 694 c 2,7,-1
 -27.25 697 l 2,8,9
 -42.650390625 700 -42.650390625 700 -42.650390625 710 c 256,10,11
 -42.650390625 720 -42.650390625 720 -26.150390625 720 c 2,12,-1
 161.950195312 720 l 2,13,14
 177.349609375 720 177.349609375 720 177.349609375 709 c 256,15,16
 177.349609375 698 177.349609375 698 158.650390625 697 c 2,17,-1
 137.75 695 l 2,18,19
 119.049804688 694 119.049804688 694 114.099609375 684.5 c 128,-1,20
 109.150390625 675 109.150390625 675 114.650390625 653 c 2,21,-1
 242.25 172 l 2,22,23
 244.450195312 166 244.450195312 166 249.400390625 166 c 128,-1,24
 254.349609375 166 254.349609375 166 255.450195312 172 c 2,25,-1
 381.950195312 632 l 2,26,27
 397.349609375 689 397.349609375 689 348.950195312 695 c 2,28,-1
 332.450195312 697 l 2,29,30
 313.75 700 313.75 700 313.75 709 c 0,31,32
 313.75 720 313.75 720 329.150390625 720 c 2,33,-1
 483.150390625 720 l 2,34,35
 499.650390625 720 499.650390625 720 499.650390625 710 c 256,36,37
 499.650390625 700 499.650390625 700 484.25 697 c 2,38,-1
 467.75 694 l 2,39,40
 446.849609375 690 446.849609375 690 435.299804688 674.5 c 128,-1,41
 423.75 659 423.75 659 416.049804688 631 c 2,42,-1
 245.549804688 6 l 2,43,44
 243.349609375 -4 243.349609375 -4 238.400390625 -7 c 128,-1,45
 233.450195312 -10 233.450195312 -10 229.049804688 -10 c 256,0,1
EndSplineSet
EndChar

StartChar: W
Encoding: 87 87 100
Width: 683
GlyphClass: 2
Flags: W
AnchorPoint: "Anchor-1" 326.05 0 basechar 0
AnchorPoint: "Anchor-0" 348.05 720 basechar 0
LayerCount: 2
Fore
SplineSet
442.650390625 -10 m 256,0,1
 438.25 -10 438.25 -10 433.849609375 -7 c 128,-1,2
 429.450195312 -4 429.450195312 -4 427.25 6 c 2,3,-1
 342.549804688 316 l 2,4,5
 341.450195312 324 341.450195312 324 335.950195312 323.5 c 128,-1,6
 330.450195312 323 330.450195312 323 328.25 316 c 2,7,-1
 233.650390625 6 l 2,8,9
 230.349609375 -4 230.349609375 -4 226.5 -7 c 128,-1,10
 222.650390625 -10 222.650390625 -10 218.25 -10 c 256,11,12
 213.849609375 -10 213.849609375 -10 208.900390625 -7 c 128,-1,13
 203.950195312 -4 203.950195312 -4 201.75 6 c 2,14,-1
 27.9501953125 640 l 2,15,16
 20.25 668 20.25 668 10.900390625 679 c 128,-1,17
 1.5498046875 690 1.5498046875 690 -20.4501953125 694 c 2,18,-1
 -36.9501953125 697 l 2,19,20
 -52.349609375 700 -52.349609375 700 -52.349609375 710 c 256,21,22
 -52.349609375 720 -52.349609375 720 -35.849609375 720 c 2,23,-1
 141.25 720 l 2,24,25
 156.650390625 720 156.650390625 720 156.650390625 709 c 0,26,27
 156.650390625 700 156.650390625 700 140.150390625 697 c 2,28,-1
 128.049804688 695 l 2,29,30
 109.349609375 692 109.349609375 692 104.400390625 683.5 c 128,-1,31
 99.4501953125 675 99.4501953125 675 104.950195312 653 c 2,32,-1
 234.75 165 l 2,33,34
 236.950195312 158 236.950195312 158 241.900390625 158 c 128,-1,35
 246.849609375 158 246.849609375 158 249.049804688 165 c 2,36,-1
 298.549804688 328 l 2,37,38
 310.650390625 366 310.650390625 366 310.650390625 398 c 128,-1,39
 310.650390625 430 310.650390625 430 299.650390625 469 c 2,40,-1
 253.450195312 640 l 2,41,42
 245.75 668 245.75 668 238.599609375 680 c 128,-1,43
 231.450195312 692 231.450195312 692 219.349609375 694 c 2,44,-1
 202.849609375 697 l 2,45,46
 187.450195312 700 187.450195312 700 187.450195312 710 c 256,47,48
 187.450195312 720 187.450195312 720 203.950195312 720 c 2,49,-1
 354.650390625 720 l 2,50,51
 370.049804688 720 370.049804688 720 370.049804688 709 c 0,52,53
 370.049804688 700 370.049804688 700 353.549804688 697 c 2,54,-1
 341.450195312 695 l 2,55,56
 327.150390625 693 327.150390625 693 324.400390625 684 c 128,-1,57
 321.650390625 675 321.650390625 675 327.150390625 653 c 2,58,-1
 364.549804688 510 l 2,59,60
 366.75 503 366.75 503 371.700195312 503 c 128,-1,61
 376.650390625 503 376.650390625 503 378.849609375 510 c 2,62,-1
 418.450195312 632 l 2,63,64
 430.549804688 670 430.549804688 670 427.799804688 682 c 128,-1,65
 425.049804688 694 425.049804688 694 415.150390625 695 c 2,66,-1
 403.049804688 697 l 2,67,68
 386.549804688 700 386.549804688 700 386.549804688 709 c 0,69,70
 386.549804688 720 386.549804688 720 401.950195312 720 c 2,71,-1
 506.450195312 720 l 2,72,73
 525.150390625 720 525.150390625 720 525.150390625 709 c 0,74,75
 525.150390625 699 525.150390625 699 506.450195312 697 c 2,76,-1
 494.349609375 696 l 2,77,78
 480.049804688 695 480.049804688 695 470.700195312 680 c 128,-1,79
 461.349609375 665 461.349609375 665 450.349609375 631 c 2,80,-1
 408.549804688 500 l 2,81,82
 396.450195312 463 396.450195312 463 395.900390625 430.5 c 128,-1,83
 395.349609375 398 395.349609375 398 405.25 359 c 2,84,-1
 454.75 171 l 2,85,86
 456.950195312 164 456.950195312 164 461.900390625 164 c 128,-1,87
 466.849609375 164 466.849609375 164 467.950195312 171 c 2,88,-1
 594.450195312 632 l 2,89,90
 609.849609375 690 609.849609375 690 574.650390625 695 c 2,91,-1
 562.549804688 697 l 2,92,93
 546.049804688 700 546.049804688 700 546.049804688 710 c 256,94,95
 546.049804688 720 546.049804688 720 561.450195312 720 c 2,96,-1
 684.650390625 720 l 2,97,98
 703.349609375 720 703.349609375 720 703.349609375 709 c 0,99,100
 703.349609375 699 703.349609375 699 684.650390625 697 c 2,101,-1
 672.549804688 696 l 2,102,103
 658.25 695 658.25 695 647.799804688 680.5 c 128,-1,104
 637.349609375 666 637.349609375 666 628.549804688 631 c 2,105,-1
 458.049804688 6 l 2,106,107
 455.849609375 -4 455.849609375 -4 451.450195312 -7 c 128,-1,108
 447.049804688 -10 447.049804688 -10 442.650390625 -10 c 256,0,1
EndSplineSet
EndChar

StartChar: X
Encoding: 88 88 105
Width: 573
GlyphClass: 1
Flags: W
LayerCount: 2
Fore
SplineSet
14.4501953125 0 m 2,0,1
 3.4501953125 0 3.4501953125 0 -0.9501953125 4 c 128,-1,2
 -5.349609375 8 -5.349609375 8 -5.349609375 12 c 0,3,4
 -5.349609375 22 -5.349609375 22 11.150390625 25 c 2,5,-1
 28.75 28 l 2,6,7
 63.9501953125 34 63.9501953125 34 84.2998046875 47.5 c 128,-1,8
 104.650390625 61 104.650390625 61 118.950195312 91 c 2,9,-1
 228.950195312 329 l 2,10,11
 234.450195312 340 234.450195312 340 236.099609375 351.5 c 128,-1,12
 237.75 363 237.75 363 231.150390625 376 c 2,13,-1
 93.650390625 653 l 2,14,15
 82.650390625 676 82.650390625 676 70 684 c 128,-1,16
 57.349609375 692 57.349609375 692 43.0498046875 694 c 2,17,-1
 22.150390625 697 l 2,18,19
 4.5498046875 700 4.5498046875 700 4.5498046875 710 c 256,20,21
 4.5498046875 720 4.5498046875 720 23.25 720 c 2,22,-1
 216.849609375 720 l 2,23,24
 236.650390625 720 236.650390625 720 236.650390625 710 c 256,25,26
 236.650390625 700 236.650390625 700 217.950195312 697 c 2,27,-1
 197.049804688 694 l 2,28,29
 178.349609375 691 178.349609375 691 171.200195312 682 c 128,-1,30
 164.049804688 673 164.049804688 673 173.950195312 653 c 2,31,-1
 278.450195312 440 l 2,32,33
 282.849609375 431 282.849609375 431 288.900390625 431 c 128,-1,34
 294.950195312 431 294.950195312 431 299.349609375 440 c 2,35,-1
 393.950195312 643 l 2,36,37
 403.849609375 665 403.849609375 665 400.549804688 675.5 c 128,-1,38
 397.25 686 397.25 686 378.549804688 690 c 2,39,-1
 347.75 696 l 2,40,41
 329.049804688 700 329.049804688 700 329.049804688 710 c 256,42,43
 329.049804688 720 329.049804688 720 348.849609375 720 c 2,44,-1
 517.150390625 720 l 2,45,46
 529.25 720 529.25 720 533.099609375 716.5 c 128,-1,47
 536.950195312 713 536.950195312 713 536.950195312 708 c 0,48,49
 536.950195312 698 536.950195312 698 520.450195312 695 c 2,50,-1
 502.849609375 692 l 2,51,52
 475.349609375 688 475.349609375 688 456.650390625 673.5 c 128,-1,53
 437.950195312 659 437.950195312 659 423.650390625 629 c 2,54,-1
 319.150390625 407 l 2,55,56
 313.650390625 394 313.650390625 394 313.099609375 382 c 128,-1,57
 312.549804688 370 312.549804688 370 320.25 356 c 2,58,-1
 462.150390625 67 l 2,59,60
 474.25 43 474.25 43 486.900390625 36 c 128,-1,61
 499.549804688 29 499.549804688 29 512.75 27 c 2,62,-1
 533.650390625 24 l 2,63,64
 552.349609375 21 552.349609375 21 552.349609375 10 c 0,65,66
 552.349609375 0 552.349609375 0 532.549804688 0 c 2,67,-1
 337.849609375 0 l 2,68,69
 318.049804688 0 318.049804688 0 318.049804688 12 c 0,70,71
 318.049804688 21 318.049804688 21 335.650390625 24 c 2,72,-1
 357.650390625 27 l 2,73,74
 376.349609375 29 376.349609375 29 384.049804688 38.5 c 128,-1,75
 391.75 48 391.75 48 382.950195312 67 c 2,76,-1
 269.650390625 296 l 2,77,78
 265.25 305 265.25 305 259.200195312 305 c 128,-1,79
 253.150390625 305 253.150390625 305 248.75 296 c 2,80,-1
 149.75 77 l 2,81,82
 139.849609375 55 139.849609375 55 143.150390625 44.5 c 128,-1,83
 146.450195312 34 146.450195312 34 165.150390625 30 c 2,84,-1
 195.950195312 24 l 2,85,86
 214.650390625 20 214.650390625 20 214.650390625 10 c 256,87,88
 214.650390625 0 214.650390625 0 194.849609375 0 c 2,89,-1
 14.4501953125 0 l 2,0,1
EndSplineSet
EndChar

StartChar: Y
Encoding: 89 89 106
Width: 500
GlyphClass: 2
Flags: W
AnchorPoint: "Anchor-1" 239.05 0 basechar 0
AnchorPoint: "Anchor-0" 261.05 720 basechar 0
LayerCount: 2
Fore
SplineSet
115.849609375 0 m 2,0,1
 99.349609375 0 99.349609375 0 99.349609375 11 c 256,2,3
 99.349609375 22 99.349609375 22 113.650390625 23 c 2,4,-1
 163.150390625 30 l 2,5,6
 185.150390625 33 185.150390625 33 192.849609375 40.5 c 128,-1,7
 200.549804688 48 200.549804688 48 200.549804688 69 c 2,8,-1
 200.549804688 305 l 2,9,10
 200.549804688 327 200.549804688 327 189.549804688 348 c 2,11,-1
 27.849609375 656 l 2,12,13
 20.150390625 673 20.150390625 673 10.25 682 c 128,-1,14
 0.349609375 691 0.349609375 691 -18.349609375 695 c 2,15,-1
 -28.25 697 l 2,16,17
 -43.650390625 700 -43.650390625 700 -43.650390625 710 c 256,18,19
 -43.650390625 720 -43.650390625 720 -27.150390625 720 c 2,20,-1
 160.950195312 720 l 2,21,22
 176.349609375 720 176.349609375 720 176.349609375 709 c 256,23,24
 176.349609375 698 176.349609375 698 157.650390625 697 c 2,25,-1
 136.75 695 l 2,26,27
 118.049804688 694 118.049804688 694 110.349609375 684 c 128,-1,28
 102.650390625 674 102.650390625 674 113.650390625 653 c 2,29,-1
 248.950195312 391 l 2,30,31
 253.349609375 384 253.349609375 384 259.950195312 384 c 128,-1,32
 266.549804688 384 266.549804688 384 270.950195312 391 c 2,33,-1
 400.75 632 l 2,34,35
 415.049804688 658 415.049804688 658 407.900390625 674.5 c 128,-1,36
 400.75 691 400.75 691 375.450195312 694 c 2,37,-1
 351.25 697 l 2,38,39
 332.549804688 700 332.549804688 700 332.549804688 709 c 0,40,41
 332.549804688 720 332.549804688 720 347.950195312 720 c 2,42,-1
 504.150390625 720 l 2,43,44
 520.650390625 720 520.650390625 720 520.650390625 710 c 256,45,46
 520.650390625 700 520.650390625 700 505.25 697 c 2,47,-1
 494.25 695 l 2,48,49
 478.849609375 692 478.849609375 692 467.299804688 678 c 128,-1,50
 455.75 664 455.75 664 437.049804688 631 c 2,51,-1
 292.950195312 368 l 2,52,53
 285.25 354 285.25 354 281.950195312 341.5 c 128,-1,54
 278.650390625 329 278.650390625 329 278.650390625 313 c 2,55,-1
 278.650390625 69 l 2,56,57
 278.650390625 48 278.650390625 48 286.900390625 40.5 c 128,-1,58
 295.150390625 33 295.150390625 33 316.049804688 30 c 2,59,-1
 365.549804688 23 l 2,60,61
 379.849609375 22 379.849609375 22 379.849609375 11 c 256,62,63
 379.849609375 0 379.849609375 0 363.349609375 0 c 2,64,-1
 115.849609375 0 l 2,0,1
EndSplineSet
EndChar

StartChar: Z
Encoding: 90 90 111
Width: 448
GlyphClass: 2
Flags: W
AnchorPoint: "Anchor-1" 214.444 0 basechar 0
AnchorPoint: "Anchor-0" 236.444 720 basechar 0
LayerCount: 2
Fore
SplineSet
23.0439453125 0 m 2,0,1
 7.6435546875 0 7.6435546875 0 1.59375 8 c 128,-1,2
 -4.4560546875 16 -4.4560546875 16 2.1435546875 29 c 2,3,-1
 320.043945312 674 l 2,4,5
 326.643554688 690 326.643554688 690 307.944335938 690 c 2,6,-1
 197.944335938 690 l 2,7,8
 157.244140625 690 157.244140625 690 123.694335938 666.5 c 128,-1,9
 90.1435546875 643 90.1435546875 643 68.1435546875 577 c 2,10,-1
 51.6435546875 527 l 2,11,12
 48.34375 514 48.34375 514 36.244140625 514 c 0,13,14
 19.744140625 514 19.744140625 514 21.9443359375 531 c 2,15,-1
 41.744140625 717 l 2,16,17
 43.9443359375 740 43.9443359375 740 60.4443359375 740 c 0,18,19
 68.1435546875 740 68.1435546875 740 74.744140625 735 c 128,-1,20
 81.34375 730 81.34375 730 97.2939453125 725 c 128,-1,21
 113.244140625 720 113.244140625 720 148.444335938 720 c 2,22,-1
 391.543945312 720 l 2,23,24
 406.944335938 720 406.944335938 720 412.994140625 712.5 c 128,-1,25
 419.043945312 705 419.043945312 705 412.444335938 691 c 2,26,-1
 94.5439453125 46 l 2,27,28
 87.9443359375 30 87.9443359375 30 106.643554688 30 c 2,29,-1
 228.744140625 30 l 2,30,31
 259.543945312 30 259.543945312 30 289.244140625 38 c 128,-1,32
 318.944335938 46 318.944335938 46 342.043945312 71.5 c 128,-1,33
 365.143554688 97 365.143554688 97 376.143554688 148 c 2,34,-1
 390.444335938 215 l 2,35,36
 393.744140625 228 393.744140625 228 406.944335938 228 c 0,37,38
 422.34375 228 422.34375 228 420.143554688 211 c 2,39,-1
 406.944335938 23 l 2,40,41
 404.744140625 0 404.744140625 0 379.444335938 0 c 2,42,-1
 23.0439453125 0 l 2,0,1
EndSplineSet
EndChar

StartChar: a
Encoding: 97 97 115
Width: 418
GlyphClass: 2
Flags: W
AnchorPoint: "Anchor-2" 357.5 0 basechar 0
AnchorPoint: "Anchor-1" 199.1 0 basechar 0
AnchorPoint: "Anchor-0" 199.1 510 basechar 0
LayerCount: 2
Fore
SplineSet
111.099609375 -9 m 0,0,1
 64.900390625 -9 64.900390625 -9 35.2001953125 17.5 c 128,-1,2
 5.5 44 5.5 44 5.5 88 c 0,3,4
 5.5 131 5.5 131 35.2001953125 169.5 c 128,-1,5
 64.900390625 208 64.900390625 208 116.599609375 239 c 128,-1,6
 168.299804688 270 168.299804688 270 234.299804688 289 c 0,7,8
 248.599609375 293 248.599609375 293 248.599609375 306 c 2,9,-1
 248.599609375 397 l 2,10,11
 248.599609375 445 248.599609375 445 232.099609375 465.5 c 128,-1,12
 215.599609375 486 215.599609375 486 187 486 c 0,13,14
 159.5 486 159.5 486 136.950195312 463.5 c 128,-1,15
 114.400390625 441 114.400390625 441 104.5 388 c 0,16,17
 99 356 99 356 80.849609375 341.5 c 128,-1,18
 62.7001953125 327 62.7001953125 327 44 327 c 0,19,20
 13.2001953125 327 13.2001953125 327 13.2001953125 355 c 0,21,22
 13.2001953125 384 13.2001953125 384 31.349609375 412.5 c 128,-1,23
 49.5 441 49.5 441 79.2001953125 464.5 c 128,-1,24
 108.900390625 488 108.900390625 488 144.099609375 502 c 128,-1,25
 179.299804688 516 179.299804688 516 214.5 516 c 0,26,27
 323.400390625 516 323.400390625 516 323.400390625 401 c 2,28,-1
 323.400390625 95 l 2,29,30
 323.400390625 53 323.400390625 53 346.5 53 c 0,31,32
 360.799804688 53 360.799804688 53 372.900390625 70.5 c 128,-1,33
 385 88 385 88 385 130 c 0,34,35
 385 146 385 146 399.299804688 146 c 0,36,37
 412.5 146 412.5 146 412.5 129 c 0,38,39
 412.5 56 412.5 56 384.450195312 23.5 c 128,-1,40
 356.400390625 -9 356.400390625 -9 321.200195312 -9 c 0,41,42
 294.799804688 -9 294.799804688 -9 279.400390625 10.5 c 128,-1,43
 264 30 264 30 258.5 57 c 0,44,45
 257.400390625 67 257.400390625 67 249.150390625 67.5 c 128,-1,46
 240.900390625 68 240.900390625 68 233.200195312 58 c 0,47,48
 206.799804688 25 206.799804688 25 179.299804688 8 c 128,-1,49
 151.799804688 -9 151.799804688 -9 111.099609375 -9 c 0,0,1
140.799804688 37 m 0,50,51
 169.400390625 37 169.400390625 37 193.599609375 55.5 c 128,-1,52
 217.799804688 74 217.799804688 74 233.200195312 105 c 128,-1,53
 248.599609375 136 248.599609375 136 248.599609375 175 c 2,54,-1
 248.599609375 248 l 2,55,56
 248.599609375 267 248.599609375 267 225.5 259 c 0,57,58
 158.400390625 237 158.400390625 237 121.549804688 198.5 c 128,-1,59
 84.7001953125 160 84.7001953125 160 84.7001953125 106 c 0,60,61
 84.7001953125 37 84.7001953125 37 140.799804688 37 c 0,50,51
EndSplineSet
Substitution2: "'ss01' Style Set 1 in Latin lookup 21 subtable" a.ss01
Substitution2: "Single Substitution lookup 17 subtable" ordfeminine
AlternateSubs2: "'aalt' Access All Alternates in Latin lookup 1 subtable" a.ss01 ordfeminine
EndChar

StartChar: ae
Encoding: 230 230 126
Width: 601
GlyphClass: 1
Flags: W
LayerCount: 2
Fore
SplineSet
102.299804688 -9 m 0,0,1
 57.2001953125 -9 57.2001953125 -9 27.5 17.5 c 128,-1,2
 -2.2001953125 44 -2.2001953125 44 -2.2001953125 88 c 0,3,4
 -2.2001953125 131 -2.2001953125 131 27.5 169.5 c 128,-1,5
 57.2001953125 208 57.2001953125 208 108.900390625 239 c 128,-1,6
 160.599609375 270 160.599609375 270 226.599609375 289 c 0,7,8
 240.900390625 293 240.900390625 293 240.900390625 306 c 2,9,-1
 240.900390625 397 l 2,10,11
 240.900390625 445 240.900390625 445 224.400390625 465.5 c 128,-1,12
 207.900390625 486 207.900390625 486 179.299804688 486 c 0,13,14
 151.799804688 486 151.799804688 486 129.25 463.5 c 128,-1,15
 106.700195312 441 106.700195312 441 96.7998046875 388 c 0,16,17
 91.2998046875 356 91.2998046875 356 73.150390625 341.5 c 128,-1,18
 55 327 55 327 36.2998046875 327 c 0,19,20
 5.5 327 5.5 327 5.5 355 c 0,21,22
 5.5 384 5.5 384 23.650390625 412.5 c 128,-1,23
 41.7998046875 441 41.7998046875 441 71.5 464.5 c 128,-1,24
 101.200195312 488 101.200195312 488 136.400390625 502 c 128,-1,25
 171.599609375 516 171.599609375 516 206.799804688 516 c 0,26,27
 286 516 286 516 308 455 c 1,28,29
 331.099609375 484 331.099609375 484 361.900390625 500 c 128,-1,30
 392.700195312 516 392.700195312 516 429 516 c 0,31,32
 493.900390625 516 493.900390625 516 534.049804688 467.5 c 128,-1,33
 574.200195312 419 574.200195312 419 574.200195312 310 c 0,34,35
 574.200195312 277 574.200195312 277 546.700195312 277 c 2,36,-1
 337.700195312 277 l 2,37,38
 315.700195312 277 315.700195312 277 315.700195312 254 c 0,39,40
 315.700195312 148 315.700195312 148 349.799804688 95 c 128,-1,41
 383.900390625 42 383.900390625 42 436.700195312 42 c 0,42,43
 478.5 42 478.5 42 504.900390625 69 c 128,-1,44
 531.299804688 96 531.299804688 96 547.799804688 160 c 0,45,46
 551.099609375 171 551.099609375 171 562.099609375 171 c 0,47,48
 575.299804688 171 575.299804688 171 572 151 c 0,49,50
 554.400390625 62 554.400390625 62 515.900390625 26.5 c 128,-1,51
 477.400390625 -9 477.400390625 -9 422.400390625 -9 c 0,52,53
 369.599609375 -9 369.599609375 -9 330 23.5 c 128,-1,54
 290.400390625 56 290.400390625 56 269.5 113 c 1,55,-1
 225.5 55 l 2,56,57
 202.400390625 25 202.400390625 25 172.700195312 8 c 128,-1,58
 143 -9 143 -9 102.299804688 -9 c 0,0,1
334.400390625 302 m 2,59,-1
 445.5 302 l 2,60,61
 498.299804688 302 498.299804688 302 498.299804688 352 c 0,62,63
 498.299804688 417 498.299804688 417 480.700195312 454 c 128,-1,64
 463.099609375 491 463.099609375 491 427.900390625 491 c 0,65,66
 385 491 385 491 355.849609375 446 c 128,-1,67
 326.700195312 401 326.700195312 401 317.900390625 318 c 0,68,69
 315.700195312 302 315.700195312 302 334.400390625 302 c 2,59,-1
133.099609375 37 m 0,70,71
 161.700195312 37 161.700195312 37 185.900390625 55.5 c 128,-1,72
 210.099609375 74 210.099609375 74 225.5 105 c 128,-1,73
 240.900390625 136 240.900390625 136 240.900390625 175 c 2,74,-1
 240.900390625 248 l 2,75,76
 240.900390625 267 240.900390625 267 217.799804688 259 c 0,77,78
 150.700195312 237 150.700195312 237 113.849609375 198.5 c 128,-1,79
 77 160 77 160 77 106 c 0,80,81
 77 37 77 37 133.099609375 37 c 0,70,71
EndSplineSet
EndChar

StartChar: b
Encoding: 98 98 127
Width: 466
GlyphClass: 1
Flags: W
LayerCount: 2
Fore
SplineSet
206.200195312 -9 m 0,0,1
 161.099609375 -9 161.099609375 -9 119.299804688 17 c 0,2,3
 95.099609375 32 95.099609375 32 75.2998046875 9 c 0,4,5
 64.2998046875 -2 64.2998046875 -2 58.7998046875 -5.5 c 128,-1,6
 53.2998046875 -9 53.2998046875 -9 47.7998046875 -9 c 0,7,8
 35.7001953125 -9 35.7001953125 -9 39 5 c 0,9,10
 43.400390625 28 43.400390625 28 45.599609375 64 c 128,-1,11
 47.7998046875 100 47.7998046875 100 47.7998046875 160 c 2,12,-1
 47.7998046875 640 l 2,13,14
 47.7998046875 658 47.7998046875 658 41.75 664.5 c 128,-1,15
 35.7001953125 671 35.7001953125 671 20.2998046875 673 c 2,16,-1
 -2.7998046875 676 l 2,17,18
 -14.900390625 678 -14.900390625 678 -14.900390625 688 c 256,19,20
 -14.900390625 698 -14.900390625 698 -2.7998046875 700 c 0,21,22
 28 706 28 706 48.900390625 714 c 128,-1,23
 69.7998046875 722 69.7998046875 722 84.099609375 730 c 0,24,25
 101.700195312 740 101.700195312 740 110.5 740 c 0,26,27
 122.599609375 740 122.599609375 740 122.599609375 724 c 2,28,-1
 122.599609375 477 l 2,29,30
 122.599609375 469 122.599609375 469 129.75 466.5 c 128,-1,31
 136.900390625 464 136.900390625 464 145.700195312 472 c 0,32,33
 193 516 193 516 249.099609375 516 c 0,34,35
 299.700195312 516 299.700195312 516 338.75 485.5 c 128,-1,36
 377.799804688 455 377.799804688 455 400.349609375 401 c 128,-1,37
 422.900390625 347 422.900390625 347 422.900390625 274 c 0,38,39
 422.900390625 191 422.900390625 191 394.299804688 127 c 128,-1,40
 365.700195312 63 365.700195312 63 316.75 27 c 128,-1,41
 267.799804688 -9 267.799804688 -9 206.200195312 -9 c 0,0,1
204 16 m 0,42,43
 265.599609375 16 265.599609375 16 303.549804688 82 c 128,-1,44
 341.5 148 341.5 148 341.5 260 c 0,45,46
 341.5 363 341.5 363 308.5 417 c 128,-1,47
 275.5 471 275.5 471 215 471 c 0,48,49
 177.599609375 471 177.599609375 471 150.099609375 443 c 128,-1,50
 122.599609375 415 122.599609375 415 122.599609375 365 c 2,51,-1
 122.599609375 113 l 2,52,53
 122.599609375 68 122.599609375 68 145.150390625 42 c 128,-1,54
 167.700195312 16 167.700195312 16 204 16 c 0,42,43
EndSplineSet
EndChar

StartChar: c
Encoding: 99 99 128
Width: 355
GlyphClass: 2
Flags: W
AnchorPoint: "Anchor-1" 183.22 0 basechar 0
AnchorPoint: "Anchor-0" 211.82 510 basechar 0
LayerCount: 2
Fore
SplineSet
181.01953125 -9 m 0,0,1
 132.620117188 -9 132.620117188 -9 93.5703125 20.5 c 128,-1,2
 54.51953125 50 54.51953125 50 31.419921875 105 c 128,-1,3
 8.3203125 160 8.3203125 160 8.3203125 236 c 0,4,5
 8.3203125 321 8.3203125 321 36.3701171875 384 c 128,-1,6
 64.419921875 447 64.419921875 447 112.8203125 481.5 c 128,-1,7
 161.219726562 516 161.219726562 516 220.620117188 516 c 0,8,9
 271.219726562 516 271.219726562 516 299.8203125 498 c 0,10,11
 310.8203125 491 310.8203125 491 310.8203125 476 c 2,12,-1
 313.01953125 354 l 2,13,14
 313.01953125 339 313.01953125 339 299.8203125 339 c 0,15,16
 287.719726562 339 287.719726562 339 284.419921875 352 c 0,17,18
 269.01953125 407 269.01953125 407 254.719726562 437 c 128,-1,19
 240.419921875 467 240.419921875 467 225.01953125 478.5 c 128,-1,20
 209.620117188 490 209.620117188 490 190.919921875 490 c 0,21,22
 168.919921875 490 168.919921875 490 145.26953125 467 c 128,-1,23
 121.620117188 444 121.620117188 444 105.669921875 392.5 c 128,-1,24
 89.7197265625 341 89.7197265625 341 89.7197265625 257 c 0,25,26
 89.7197265625 150 89.7197265625 150 119.969726562 96 c 128,-1,27
 150.219726562 42 150.219726562 42 198.620117188 42 c 0,28,29
 237.120117188 42 237.120117188 42 262.969726562 71 c 128,-1,30
 288.8203125 100 288.8203125 100 307.51953125 176 c 0,31,32
 310.8203125 187 310.8203125 187 320.719726562 187 c 0,33,34
 333.919921875 187 333.919921875 187 330.620117188 167 c 0,35,36
 318.51953125 97 318.51953125 97 297.0703125 58.5 c 128,-1,37
 275.620117188 20 275.620117188 20 246.469726562 5.5 c 128,-1,38
 217.3203125 -9 217.3203125 -9 181.01953125 -9 c 0,0,1
EndSplineSet
Substitution2: "'ss01' Style Set 1 in Latin lookup 21 subtable" c.ss01
Substitution2: "'aalt' Access All Alternates in Latin lookup 0 subtable" c.ss01
EndChar

StartChar: d
Encoding: 100 100 133
Width: 478
GlyphClass: 2
Flags: W
AnchorPoint: "Anchor-1" 227.8 0 basechar 0
AnchorPoint: "Anchor-0" 227.8 740 basechar 0
LayerCount: 2
Fore
SplineSet
175 -9 m 0,0,1
 126.599609375 -9 126.599609375 -9 88.650390625 21.5 c 128,-1,2
 50.7001953125 52 50.7001953125 52 29.7998046875 106.5 c 128,-1,3
 8.900390625 161 8.900390625 161 8.900390625 233 c 0,4,5
 8.900390625 317 8.900390625 317 37.5 380.5 c 128,-1,6
 66.099609375 444 66.099609375 444 116.700195312 480 c 128,-1,7
 167.299804688 516 167.299804688 516 231.099609375 516 c 0,8,9
 246.5 516 246.5 516 261.900390625 513.5 c 128,-1,10
 277.299804688 511 277.299804688 511 291.599609375 505 c 0,11,12
 309.200195312 497 309.200195312 497 309.200195312 512 c 2,13,-1
 309.200195312 640 l 2,14,15
 309.200195312 658 309.200195312 658 303.150390625 665 c 128,-1,16
 297.099609375 672 297.099609375 672 281.700195312 673 c 2,17,-1
 253.099609375 676 l 2,18,19
 241 678 241 678 241 688 c 256,20,21
 241 698 241 698 253.099609375 700 c 0,22,23
 288.299804688 706 288.299804688 706 309.75 714 c 128,-1,24
 331.200195312 722 331.200195312 722 345.5 730 c 0,25,26
 363.099609375 740 363.099609375 740 371.900390625 740 c 0,27,28
 384 740 384 740 384 724 c 2,29,-1
 384 95 l 2,30,31
 384 53 384 53 407.099609375 53 c 0,32,33
 421.400390625 53 421.400390625 53 433.5 70.5 c 128,-1,34
 445.599609375 88 445.599609375 88 445.599609375 130 c 0,35,36
 445.599609375 146 445.599609375 146 459.900390625 146 c 0,37,38
 473.099609375 146 473.099609375 146 473.099609375 129 c 0,39,40
 473.099609375 56 473.099609375 56 445.599609375 23.5 c 128,-1,41
 418.099609375 -9 418.099609375 -9 382.900390625 -9 c 0,42,43
 351 -9 351 -9 334.5 10.5 c 128,-1,44
 318 30 318 30 312.5 57 c 0,45,46
 311.400390625 65 311.400390625 65 304.799804688 65.5 c 128,-1,47
 298.200195312 66 298.200195312 66 292.700195312 58 c 0,48,49
 261.900390625 19 261.900390625 19 236.599609375 5 c 128,-1,50
 211.299804688 -9 211.299804688 -9 175 -9 c 0,0,1
199.200195312 37 m 0,51,52
 227.799804688 37 227.799804688 37 252.549804688 54.5 c 128,-1,53
 277.299804688 72 277.299804688 72 293.25 102 c 128,-1,54
 309.200195312 132 309.200195312 132 309.200195312 169 c 2,55,-1
 309.200195312 394 l 2,56,57
 309.200195312 439 309.200195312 439 286.650390625 465 c 128,-1,58
 264.099609375 491 264.099609375 491 227.799804688 491 c 0,59,60
 166.200195312 491 166.200195312 491 128.25 425.5 c 128,-1,61
 90.2998046875 360 90.2998046875 360 90.2998046875 247 c 0,62,63
 90.2998046875 144 90.2998046875 144 119.450195312 90.5 c 128,-1,64
 148.599609375 37 148.599609375 37 199.200195312 37 c 0,51,52
EndSplineSet
Substitution2: "'ss01' Style Set 1 in Latin lookup 21 subtable" d.ss01
Substitution2: "'aalt' Access All Alternates in Latin lookup 0 subtable" d.ss01
EndChar

StartChar: eth
Encoding: 240 240 134
Width: 424
GlyphClass: 1
Flags: W
LayerCount: 2
Fore
SplineSet
198 -9 m 0,0,1
 146.299804688 -9 146.299804688 -9 103.950195312 23 c 128,-1,2
 61.599609375 55 61.599609375 55 36.2998046875 109.5 c 128,-1,3
 11 164 11 164 11 229 c 0,4,5
 11 295 11 295 34.650390625 346 c 128,-1,6
 58.2998046875 397 58.2998046875 397 99 426.5 c 128,-1,7
 139.700195312 456 139.700195312 456 191.400390625 456 c 0,8,9
 237.599609375 456 237.599609375 456 271.700195312 434 c 0,10,11
 278.299804688 430 278.299804688 430 282.150390625 432.5 c 128,-1,12
 286 435 286 435 283.799804688 442 c 0,13,14
 256.299804688 546 256.299804688 546 196.349609375 621 c 128,-1,15
 136.400390625 696 136.400390625 696 39.599609375 725 c 0,16,17
 27.5 728 27.5 728 27.5 738 c 0,18,19
 27.5 744 27.5 744 32.4501953125 748 c 128,-1,20
 37.400390625 752 37.400390625 752 48.400390625 750 c 0,21,22
 118.799804688 735 118.799804688 735 179.849609375 688 c 128,-1,23
 240.900390625 641 240.900390625 641 287.099609375 572.5 c 128,-1,24
 333.299804688 504 333.299804688 504 359.150390625 423.5 c 128,-1,25
 385 343 385 343 385 261 c 0,26,27
 385 181 385 181 361.349609375 120 c 128,-1,28
 337.700195312 59 337.700195312 59 295.900390625 25 c 128,-1,29
 254.099609375 -9 254.099609375 -9 198 -9 c 0,0,1
200.200195312 18 m 0,30,31
 312.400390625 18 312.400390625 18 312.400390625 218 c 0,32,33
 312.400390625 431 312.400390625 431 195.799804688 431 c 0,34,35
 141.900390625 431 141.900390625 431 116.049804688 381 c 128,-1,36
 90.2001953125 331 90.2001953125 331 90.2001953125 224 c 0,37,38
 90.2001953125 119 90.2001953125 119 117.150390625 68.5 c 128,-1,39
 144.099609375 18 144.099609375 18 200.200195312 18 c 0,30,31
EndSplineSet
EndChar

StartChar: dcroat
Encoding: 273 273 136
Width: 478
GlyphClass: 2
Flags: W
AnchorPoint: "Anchor-1" 227.8 0 basechar 0
AnchorPoint: "Anchor-0" 227.8 740 basechar 0
LayerCount: 2
Fore
SplineSet
175 -9 m 0,0,1
 126.599609375 -9 126.599609375 -9 88.650390625 21.5 c 128,-1,2
 50.7001953125 52 50.7001953125 52 29.7998046875 106.5 c 128,-1,3
 8.900390625 161 8.900390625 161 8.900390625 233 c 0,4,5
 8.900390625 317 8.900390625 317 37.5 380.5 c 128,-1,6
 66.099609375 444 66.099609375 444 116.700195312 480 c 128,-1,7
 167.299804688 516 167.299804688 516 231.099609375 516 c 0,8,9
 246.5 516 246.5 516 261.900390625 513.5 c 128,-1,10
 277.299804688 511 277.299804688 511 291.599609375 505 c 0,11,12
 309.200195312 497 309.200195312 497 309.200195312 512 c 2,13,-1
 309.200195312 578 l 1,14,-1
 143.099609375 578 l 2,15,16
 132.099609375 578 132.099609375 578 132.099609375 588 c 2,17,-1
 132.099609375 596 l 2,18,19
 132.099609375 606 132.099609375 606 143.099609375 606 c 2,20,-1
 309.200195312 606 l 1,21,-1
 309.200195312 640 l 2,22,23
 309.200195312 658 309.200195312 658 303.150390625 665 c 128,-1,24
 297.099609375 672 297.099609375 672 281.700195312 673 c 2,25,-1
 253.099609375 676 l 2,26,27
 241 678 241 678 241 688 c 256,28,29
 241 698 241 698 253.099609375 700 c 0,30,31
 288.299804688 706 288.299804688 706 309.75 714 c 128,-1,32
 331.200195312 722 331.200195312 722 345.5 730 c 0,33,34
 363.099609375 740 363.099609375 740 371.900390625 740 c 0,35,36
 384 740 384 740 384 724 c 2,37,-1
 384 606 l 1,38,-1
 445.599609375 606 l 2,39,40
 456.599609375 606 456.599609375 606 456.599609375 596 c 2,41,-1
 456.599609375 588 l 2,42,43
 456.599609375 578 456.599609375 578 445.599609375 578 c 2,44,-1
 384 578 l 1,45,-1
 384 95 l 2,46,47
 384 53 384 53 407.099609375 53 c 0,48,49
 421.400390625 53 421.400390625 53 433.5 70.5 c 128,-1,50
 445.599609375 88 445.599609375 88 445.599609375 130 c 0,51,52
 445.599609375 146 445.599609375 146 459.900390625 146 c 0,53,54
 473.099609375 146 473.099609375 146 473.099609375 129 c 0,55,56
 473.099609375 56 473.099609375 56 445.599609375 23.5 c 128,-1,57
 418.099609375 -9 418.099609375 -9 382.900390625 -9 c 0,58,59
 351 -9 351 -9 334.5 10.5 c 128,-1,60
 318 30 318 30 312.5 57 c 0,61,62
 311.400390625 65 311.400390625 65 304.799804688 65.5 c 128,-1,63
 298.200195312 66 298.200195312 66 292.700195312 58 c 0,64,65
 261.900390625 19 261.900390625 19 236.599609375 5 c 128,-1,66
 211.299804688 -9 211.299804688 -9 175 -9 c 0,0,1
199.200195312 37 m 0,67,68
 227.799804688 37 227.799804688 37 252.549804688 54.5 c 128,-1,69
 277.299804688 72 277.299804688 72 293.25 102 c 128,-1,70
 309.200195312 132 309.200195312 132 309.200195312 169 c 2,71,-1
 309.200195312 394 l 2,72,73
 309.200195312 439 309.200195312 439 286.650390625 465 c 128,-1,74
 264.099609375 491 264.099609375 491 227.799804688 491 c 0,75,76
 166.200195312 491 166.200195312 491 128.25 425.5 c 128,-1,77
 90.2998046875 360 90.2998046875 360 90.2998046875 247 c 0,78,79
 90.2998046875 144 90.2998046875 144 119.450195312 90.5 c 128,-1,80
 148.599609375 37 148.599609375 37 199.200195312 37 c 0,67,68
EndSplineSet
Substitution2: "'ss01' Style Set 1 in Latin lookup 21 subtable" dcroat.ss01
Substitution2: "'aalt' Access All Alternates in Latin lookup 0 subtable" dcroat.ss01
EndChar

StartChar: e
Encoding: 101 101 137
Width: 372
GlyphClass: 2
Flags: W
AnchorPoint: "Anchor-2" 245.25 0 basechar 0
AnchorPoint: "Anchor-1" 178.15 0 basechar 0
AnchorPoint: "Anchor-0" 194.65 510 basechar 0
LayerCount: 2
Fore
SplineSet
193.549804688 -9 m 0,0,1
 140.75 -9 140.75 -9 98.9501953125 23 c 128,-1,2
 57.150390625 55 57.150390625 55 32.400390625 113.5 c 128,-1,3
 7.650390625 172 7.650390625 172 7.650390625 249 c 0,4,5
 7.650390625 328 7.650390625 328 32.9501953125 388 c 128,-1,6
 58.25 448 58.25 448 102.25 482 c 128,-1,7
 146.25 516 146.25 516 200.150390625 516 c 0,8,9
 265.049804688 516 265.049804688 516 305.200195312 467.5 c 128,-1,10
 345.349609375 419 345.349609375 419 345.349609375 310 c 0,11,12
 345.349609375 277 345.349609375 277 317.849609375 277 c 2,13,-1
 108.849609375 277 l 2,14,15
 86.849609375 277 86.849609375 277 86.849609375 254 c 0,16,17
 86.849609375 148 86.849609375 148 120.950195312 95 c 128,-1,18
 155.049804688 42 155.049804688 42 207.849609375 42 c 0,19,20
 249.650390625 42 249.650390625 42 276.049804688 69 c 128,-1,21
 302.450195312 96 302.450195312 96 318.950195312 160 c 0,22,23
 322.25 171 322.25 171 333.25 171 c 0,24,25
 346.450195312 171 346.450195312 171 343.150390625 151 c 0,26,27
 325.549804688 62 325.549804688 62 287.049804688 26.5 c 128,-1,28
 248.549804688 -9 248.549804688 -9 193.549804688 -9 c 0,0,1
105.549804688 302 m 2,29,-1
 216.650390625 302 l 2,30,31
 269.450195312 302 269.450195312 302 269.450195312 352 c 0,32,33
 269.450195312 417 269.450195312 417 251.849609375 454 c 128,-1,34
 234.25 491 234.25 491 199.049804688 491 c 0,35,36
 156.150390625 491 156.150390625 491 127 446 c 128,-1,37
 97.849609375 401 97.849609375 401 89.0498046875 318 c 0,38,39
 86.849609375 302 86.849609375 302 105.549804688 302 c 2,29,-1
EndSplineSet
Substitution2: "'ss01' Style Set 1 in Latin lookup 21 subtable" e.ss01
Substitution2: "'aalt' Access All Alternates in Latin lookup 0 subtable" e.ss01
EndChar

StartChar: f
Encoding: 102 102 146
Width: 300
GlyphClass: 1
Flags: W
LayerCount: 2
Fore
SplineSet
77.25 67 m 2,0,-1
 77.25 458 l 2,1,2
 77.25 482 77.25 482 50.849609375 482 c 2,3,-1
 25.5498046875 482 l 2,4,5
 12.349609375 482 12.349609375 482 12.349609375 492 c 256,6,7
 12.349609375 502 12.349609375 502 25.5498046875 503 c 0,8,9
 77.25 508 77.25 508 77.25 544 c 2,10,-1
 77.25 550 l 2,11,12
 77.25 602 77.25 602 94.2998046875 647 c 128,-1,13
 111.349609375 692 111.349609375 692 143.799804688 720 c 128,-1,14
 176.25 748 176.25 748 223.549804688 748 c 0,15,16
 267.549804688 748 267.549804688 748 297.25 725 c 128,-1,17
 326.950195312 702 326.950195312 702 326.950195312 670 c 0,18,19
 326.950195312 651 326.950195312 651 316.5 641.5 c 128,-1,20
 306.049804688 632 306.049804688 632 288.450195312 632 c 0,21,22
 266.450195312 632 266.450195312 632 257.099609375 645 c 128,-1,23
 247.75 658 247.75 658 242.25 674.5 c 128,-1,24
 236.75 691 236.75 691 228.5 704 c 128,-1,25
 220.25 717 220.25 717 199.349609375 717 c 0,26,27
 177.349609375 717 177.349609375 717 164.700195312 694.5 c 128,-1,28
 152.049804688 672 152.049804688 672 152.049804688 610 c 2,29,-1
 152.049804688 522 l 2,30,31
 152.049804688 510 152.049804688 510 165.25 510 c 2,32,-1
 259.849609375 510 l 2,33,34
 276.349609375 510 276.349609375 510 276.349609375 496 c 256,35,36
 276.349609375 482 276.349609375 482 259.849609375 482 c 2,37,-1
 165.25 482 l 2,38,39
 152.049804688 482 152.049804688 482 152.049804688 470 c 2,40,-1
 152.049804688 67 l 2,41,42
 152.049804688 46 152.049804688 46 159.200195312 38 c 128,-1,43
 166.349609375 30 166.349609375 30 189.450195312 28 c 2,44,-1
 247.75 23 l 2,45,46
 259.849609375 21 259.849609375 21 259.849609375 12 c 0,47,48
 259.849609375 0 259.849609375 0 243.349609375 0 c 2,49,-1
 14.5498046875 0 l 2,50,51
 -1.9501953125 0 -1.9501953125 0 -1.9501953125 11 c 256,52,53
 -1.9501953125 22 -1.9501953125 22 12.349609375 23 c 2,54,-1
 39.849609375 25 l 2,55,56
 62.9501953125 27 62.9501953125 27 70.099609375 36.5 c 128,-1,57
 77.25 46 77.25 46 77.25 67 c 2,0,-1
EndSplineSet
EndChar

StartChar: g
Encoding: 103 103 147
Width: 421
GlyphClass: 2
Flags: W
AnchorPoint: "Anchor-1" 195.2 -205 basechar 0
AnchorPoint: "Anchor-0" 195.2 510 basechar 0
LayerCount: 2
Fore
SplineSet
175.400390625 -215 m 0,0,1
 91.7998046875 -215 91.7998046875 -215 43.400390625 -184.5 c 128,-1,2
 -5 -154 -5 -154 -5 -111 c 0,3,4
 -5 -93 -5 -93 0.5 -78.5 c 128,-1,5
 6 -64 6 -64 24.150390625 -45 c 128,-1,6
 42.2998046875 -26 42.2998046875 -26 79.7001953125 4 c 0,7,8
 92.900390625 15 92.900390625 15 92.900390625 24.5 c 128,-1,9
 92.900390625 34 92.900390625 34 79.7001953125 39 c 0,10,11
 40.099609375 54 40.099609375 54 32.400390625 77.5 c 128,-1,12
 24.7001953125 101 24.7001953125 101 51.099609375 121 c 2,13,-1
 130.299804688 183 l 2,14,15
 143.5 193 143.5 193 129.200195312 200 c 0,16,17
 84.099609375 220 84.099609375 220 57.7001953125 262 c 128,-1,18
 31.2998046875 304 31.2998046875 304 31.2998046875 352 c 0,19,20
 31.2998046875 398 31.2998046875 398 53.2998046875 435 c 128,-1,21
 75.2998046875 472 75.2998046875 472 112.700195312 494 c 128,-1,22
 150.099609375 516 150.099609375 516 196.299804688 516 c 0,23,24
 222.700195312 516 222.700195312 516 246.900390625 508 c 0,25,26
 262.299804688 503 262.299804688 503 265.599609375 517 c 0,27,28
 275.5 555 275.5 555 302.450195312 576.5 c 128,-1,29
 329.400390625 598 329.400390625 598 355.799804688 598 c 0,30,31
 381.099609375 598 381.099609375 598 397.049804688 584.5 c 128,-1,32
 413 571 413 571 413 551 c 0,33,34
 413 534 413 534 402 524 c 128,-1,35
 391 514 391 514 374.5 514 c 0,36,37
 360.200195312 514 360.200195312 514 353.599609375 519 c 128,-1,38
 347 524 347 524 341.5 529 c 128,-1,39
 336 534 336 534 323.900390625 534 c 0,40,41
 297.5 534 297.5 534 290.900390625 508 c 0,42,43
 287.599609375 498 287.599609375 498 291.450195312 491 c 128,-1,44
 295.299804688 484 295.299804688 484 303 477 c 0,45,46
 329.400390625 454 329.400390625 454 344.25 421 c 128,-1,47
 359.099609375 388 359.099609375 388 359.099609375 348 c 0,48,49
 359.099609375 300 359.099609375 300 337.650390625 262 c 128,-1,50
 316.200195312 224 316.200195312 224 279.349609375 202 c 128,-1,51
 242.5 180 242.5 180 196.299804688 180 c 0,52,53
 176.5 180 176.5 180 162.200195312 172.5 c 128,-1,54
 147.900390625 165 147.900390625 165 133.599609375 151 c 2,55,-1
 114.900390625 132 l 2,56,57
 100.599609375 116 100.599609375 116 106.650390625 101.5 c 128,-1,58
 112.700195312 87 112.700195312 87 136.900390625 87 c 2,59,-1
 231.5 87 l 2,60,61
 310.700195312 87 310.700195312 87 356.900390625 51.5 c 128,-1,62
 403.099609375 16 403.099609375 16 403.099609375 -46 c 0,63,64
 403.099609375 -95 403.099609375 -95 372.299804688 -133 c 128,-1,65
 341.5 -171 341.5 -171 290.349609375 -193 c 128,-1,66
 239.200195312 -215 239.200195312 -215 175.400390625 -215 c 0,0,1
195.200195312 205 m 256,67,68
 234.799804688 205 234.799804688 205 257.900390625 244 c 128,-1,69
 281 283 281 283 281 350 c 0,70,71
 281 415 281 415 257.349609375 454.5 c 128,-1,72
 233.700195312 494 233.700195312 494 195.200195312 494 c 256,73,74
 156.700195312 494 156.700195312 494 133.049804688 454.5 c 128,-1,75
 109.400390625 415 109.400390625 415 109.400390625 350 c 0,76,77
 109.400390625 283 109.400390625 283 132.5 244 c 128,-1,78
 155.599609375 205 155.599609375 205 195.200195312 205 c 256,67,68
188.599609375 -193 m 0,79,80
 228.200195312 -193 228.200195312 -193 261.200195312 -177 c 128,-1,81
 294.200195312 -161 294.200195312 -161 313.450195312 -132.5 c 128,-1,82
 332.700195312 -104 332.700195312 -104 332.700195312 -68 c 0,83,84
 332.700195312 -23 332.700195312 -23 303.549804688 1.5 c 128,-1,85
 274.400390625 26 274.400390625 26 221.599609375 26 c 2,86,-1
 196.299804688 26 l 2,87,88
 162.200195312 26 162.200195312 26 145.150390625 20 c 128,-1,89
 128.099609375 14 128.099609375 14 112.700195312 -1 c 0,90,91
 78.599609375 -34 78.599609375 -34 69.7998046875 -54 c 128,-1,92
 61 -74 61 -74 61 -95 c 0,93,94
 61 -139 61 -139 94.5498046875 -166 c 128,-1,95
 128.099609375 -193 128.099609375 -193 188.599609375 -193 c 0,79,80
EndSplineSet
Substitution2: "'ss01' Style Set 1 in Latin lookup 21 subtable" g.ss01
Substitution2: "'aalt' Access All Alternates in Latin lookup 0 subtable" g.ss01
EndChar

StartChar: h
Encoding: 104 104 151
Width: 493
GlyphClass: 1
Flags: W
LayerCount: 2
Fore
SplineSet
6 0 m 2,0,1
 -7.2001953125 0 -7.2001953125 0 -7.2001953125 11 c 0,2,3
 -7.2001953125 21 -7.2001953125 21 4.900390625 23 c 2,4,-1
 20.2998046875 25 l 2,5,6
 43.400390625 28 43.400390625 28 50.5498046875 37 c 128,-1,7
 57.7001953125 46 57.7001953125 46 57.7001953125 67 c 2,8,-1
 57.7001953125 640 l 2,9,10
 57.7001953125 658 57.7001953125 658 51.650390625 664.5 c 128,-1,11
 45.599609375 671 45.599609375 671 30.2001953125 673 c 2,12,-1
 7.099609375 676 l 2,13,14
 -5 678 -5 678 -5 688 c 256,15,16
 -5 698 -5 698 7.099609375 700 c 0,17,18
 37.900390625 706 37.900390625 706 58.7998046875 714 c 128,-1,19
 79.7001953125 722 79.7001953125 722 94 730 c 0,20,21
 111.599609375 740 111.599609375 740 120.400390625 740 c 0,22,23
 132.5 740 132.5 740 132.5 724 c 2,24,-1
 132.5 459 l 2,25,26
 132.5 450 132.5 450 139.099609375 448.5 c 128,-1,27
 145.700195312 447 145.700195312 447 155.599609375 455 c 0,28,29
 197.400390625 490 197.400390625 490 229.299804688 503 c 128,-1,30
 261.200195312 516 261.200195312 516 296.400390625 516 c 0,31,32
 348.099609375 516 348.099609375 516 377.799804688 484.5 c 128,-1,33
 407.5 453 407.5 453 407.5 392 c 2,34,-1
 407.5 67 l 2,35,36
 407.5 46 407.5 46 414.650390625 37.5 c 128,-1,37
 421.799804688 29 421.799804688 29 444.900390625 26 c 2,38,-1
 469.099609375 23 l 2,39,40
 481.200195312 21 481.200195312 21 481.200195312 11 c 0,41,42
 481.200195312 0 481.200195312 0 468 0 c 2,43,-1
 283.200195312 0 l 2,44,45
 267.799804688 0 267.799804688 0 267.799804688 11 c 0,46,47
 267.799804688 21 267.799804688 21 279.900390625 23 c 2,48,-1
 295.299804688 25 l 2,49,50
 318.400390625 28 318.400390625 28 325.549804688 37 c 128,-1,51
 332.700195312 46 332.700195312 46 332.700195312 67 c 2,52,-1
 332.700195312 381 l 2,53,54
 332.700195312 430 332.700195312 430 312.900390625 450 c 128,-1,55
 293.099609375 470 293.099609375 470 256.799804688 470 c 0,56,57
 221.599609375 470 221.599609375 470 193.549804688 451.5 c 128,-1,58
 165.5 433 165.5 433 149 402.5 c 128,-1,59
 132.5 372 132.5 372 132.5 335 c 2,60,-1
 132.5 67 l 2,61,62
 132.5 46 132.5 46 139.650390625 37 c 128,-1,63
 146.799804688 28 146.799804688 28 169.900390625 26 c 2,64,-1
 199.599609375 23 l 2,65,66
 211.700195312 21 211.700195312 21 211.700195312 11 c 0,67,68
 211.700195312 0 211.700195312 0 198.5 0 c 2,69,-1
 6 0 l 2,0,1
EndSplineSet
EndChar

StartChar: hbar
Encoding: 295 295 152
Width: 493
GlyphClass: 1
Flags: W
LayerCount: 2
Fore
SplineSet
6.349609375 0 m 2,0,1
 -6.849609375 0 -6.849609375 0 -6.849609375 11 c 0,2,3
 -6.849609375 21 -6.849609375 21 5.25 23 c 2,4,-1
 20.650390625 25 l 2,5,6
 43.75 28 43.75 28 50.900390625 37 c 128,-1,7
 58.0498046875 46 58.0498046875 46 58.0498046875 67 c 2,8,-1
 58.0498046875 578 l 1,9,-1
 -3.5498046875 578 l 2,10,11
 -14.5498046875 578 -14.5498046875 578 -14.5498046875 588 c 2,12,-1
 -14.5498046875 596 l 2,13,14
 -14.5498046875 606 -14.5498046875 606 -3.5498046875 606 c 2,15,-1
 58.0498046875 606 l 1,16,-1
 58.0498046875 640 l 2,17,18
 58.0498046875 658 58.0498046875 658 52 664.5 c 128,-1,19
 45.9501953125 671 45.9501953125 671 30.5498046875 673 c 2,20,-1
 7.4501953125 676 l 2,21,22
 -4.650390625 678 -4.650390625 678 -4.650390625 688 c 256,23,24
 -4.650390625 698 -4.650390625 698 7.4501953125 700 c 0,25,26
 38.25 706 38.25 706 59.150390625 714 c 128,-1,27
 80.0498046875 722 80.0498046875 722 94.349609375 730 c 0,28,29
 111.950195312 740 111.950195312 740 120.75 740 c 0,30,31
 132.849609375 740 132.849609375 740 132.849609375 724 c 2,32,-1
 132.849609375 606 l 1,33,-1
 298.950195312 606 l 2,34,35
 309.950195312 606 309.950195312 606 309.950195312 596 c 2,36,-1
 309.950195312 588 l 2,37,38
 309.950195312 578 309.950195312 578 298.950195312 578 c 2,39,-1
 132.849609375 578 l 1,40,-1
 132.849609375 459 l 2,41,42
 132.849609375 450 132.849609375 450 139.450195312 448.5 c 128,-1,43
 146.049804688 447 146.049804688 447 155.950195312 455 c 0,44,45
 197.75 490 197.75 490 229.650390625 503 c 128,-1,46
 261.549804688 516 261.549804688 516 296.75 516 c 0,47,48
 348.450195312 516 348.450195312 516 378.150390625 484.5 c 128,-1,49
 407.849609375 453 407.849609375 453 407.849609375 392 c 2,50,-1
 407.849609375 67 l 2,51,52
 407.849609375 46 407.849609375 46 415 37.5 c 128,-1,53
 422.150390625 29 422.150390625 29 445.25 26 c 2,54,-1
 469.450195312 23 l 2,55,56
 481.549804688 21 481.549804688 21 481.549804688 11 c 0,57,58
 481.549804688 0 481.549804688 0 468.349609375 0 c 2,59,-1
 283.549804688 0 l 2,60,61
 268.150390625 0 268.150390625 0 268.150390625 11 c 0,62,63
 268.150390625 21 268.150390625 21 280.25 23 c 2,64,-1
 295.650390625 25 l 2,65,66
 318.75 28 318.75 28 325.900390625 37 c 128,-1,67
 333.049804688 46 333.049804688 46 333.049804688 67 c 2,68,-1
 333.049804688 381 l 2,69,70
 333.049804688 430 333.049804688 430 313.25 450 c 128,-1,71
 293.450195312 470 293.450195312 470 257.150390625 470 c 0,72,73
 221.950195312 470 221.950195312 470 193.900390625 451.5 c 128,-1,74
 165.849609375 433 165.849609375 433 149.349609375 402.5 c 128,-1,75
 132.849609375 372 132.849609375 372 132.849609375 335 c 2,76,-1
 132.849609375 67 l 2,77,78
 132.849609375 46 132.849609375 46 140 37 c 128,-1,79
 147.150390625 28 147.150390625 28 170.25 26 c 2,80,-1
 199.950195312 23 l 2,81,82
 212.049804688 21 212.049804688 21 212.049804688 11 c 0,83,84
 212.049804688 0 212.049804688 0 198.849609375 0 c 2,85,-1
 6.349609375 0 l 2,0,1
EndSplineSet
EndChar

StartChar: i
Encoding: 105 105 153
Width: 233
GlyphClass: 2
Flags: W
AnchorPoint: "Anchor-1" 111.85 0 basechar 0
LayerCount: 2
Fore
SplineSet
114.049804688 605 m 256,0,1
 90.9501953125 605 90.9501953125 605 75 620 c 128,-1,2
 59.0498046875 635 59.0498046875 635 59.0498046875 658 c 256,3,4
 59.0498046875 681 59.0498046875 681 75 695.5 c 128,-1,5
 90.9501953125 710 90.9501953125 710 114.049804688 710 c 256,6,7
 137.150390625 710 137.150390625 710 152.549804688 695.5 c 128,-1,8
 167.950195312 681 167.950195312 681 167.950195312 658 c 256,9,10
 167.950195312 635 167.950195312 635 152.549804688 620 c 128,-1,11
 137.150390625 605 137.150390625 605 114.049804688 605 c 256,0,1
21.650390625 0 m 2,12,13
 5.150390625 0 5.150390625 0 5.150390625 11 c 0,14,15
 5.150390625 20 5.150390625 20 19.4501953125 23 c 2,16,-1
 32.650390625 25 l 2,17,18
 60.150390625 29 60.150390625 29 67.849609375 37.5 c 128,-1,19
 75.5498046875 46 75.5498046875 46 75.5498046875 67 c 2,20,-1
 75.5498046875 403 l 2,21,22
 75.5498046875 421 75.5498046875 421 69.5 427.5 c 128,-1,23
 63.4501953125 434 63.4501953125 434 48.0498046875 436 c 2,24,-1
 24.9501953125 439 l 2,25,26
 10.650390625 440 10.650390625 440 10.650390625 450 c 0,27,28
 10.650390625 458 10.650390625 458 28.25 461 c 0,29,30
 62.349609375 466 62.349609375 466 83.25 477 c 128,-1,31
 104.150390625 488 104.150390625 488 123.950195312 504 c 0,32,33
 133.849609375 513 133.849609375 513 140.450195312 513 c 0,34,35
 150.349609375 513 150.349609375 513 150.349609375 501 c 2,36,-1
 150.349609375 67 l 2,37,38
 150.349609375 46 150.349609375 46 156.950195312 37 c 128,-1,39
 163.549804688 28 163.549804688 28 182.25 26 c 2,40,-1
 209.75 23 l 2,41,42
 221.849609375 21 221.849609375 21 221.849609375 12 c 0,43,44
 221.849609375 0 221.849609375 0 205.349609375 0 c 2,45,-1
 21.650390625 0 l 2,12,13
EndSplineSet
Substitution2: "'locl' Localized Forms in Latin lookup 10 subtable" i.loclTRK
Substitution2: "'locl' Localized Forms in Latin lookup 9 subtable" i.loclTRK
Substitution2: "'locl' Localized Forms in Latin lookup 8 subtable" i.loclTRK
Substitution2: "'locl' Localized Forms in Latin lookup 7 subtable" i.loclTRK
Substitution2: "'locl' Localized Forms in Latin lookup 6 subtable" i.loclTRK
Substitution2: "Single Substitution lookup 4 subtable" dotlessi
Substitution2: "Single Substitution lookup 3 subtable" dotlessi
Substitution2: "'aalt' Access All Alternates in Latin lookup 0 subtable" i.loclTRK
EndChar

StartChar: dotlessi
Encoding: 305 305 154
Width: 233
GlyphClass: 2
Flags: W
AnchorPoint: "Anchor-2" 172.35 0 basechar 0
AnchorPoint: "Anchor-1" 111.85 0 basechar 0
AnchorPoint: "Anchor-0" 111.85 510 basechar 0
LayerCount: 2
Fore
SplineSet
21.650390625 0 m 2,0,1
 5.150390625 0 5.150390625 0 5.150390625 11 c 0,2,3
 5.150390625 20 5.150390625 20 19.4501953125 23 c 2,4,-1
 32.650390625 25 l 2,5,6
 60.150390625 29 60.150390625 29 67.849609375 37.5 c 128,-1,7
 75.5498046875 46 75.5498046875 46 75.5498046875 67 c 2,8,-1
 75.5498046875 403 l 2,9,10
 75.5498046875 421 75.5498046875 421 69.5 427.5 c 128,-1,11
 63.4501953125 434 63.4501953125 434 48.0498046875 436 c 2,12,-1
 24.9501953125 439 l 2,13,14
 10.650390625 440 10.650390625 440 10.650390625 450 c 0,15,16
 10.650390625 458 10.650390625 458 28.25 461 c 0,17,18
 62.349609375 466 62.349609375 466 83.25 477 c 128,-1,19
 104.150390625 488 104.150390625 488 123.950195312 504 c 0,20,21
 133.849609375 513 133.849609375 513 140.450195312 513 c 0,22,23
 150.349609375 513 150.349609375 513 150.349609375 501 c 2,24,-1
 150.349609375 67 l 2,25,26
 150.349609375 46 150.349609375 46 156.950195312 37 c 128,-1,27
 163.549804688 28 163.549804688 28 182.25 26 c 2,28,-1
 209.75 23 l 2,29,30
 221.849609375 21 221.849609375 21 221.849609375 12 c 0,31,32
 221.849609375 0 221.849609375 0 205.349609375 0 c 2,33,-1
 21.650390625 0 l 2,0,1
EndSplineSet
EndChar

StartChar: j
Encoding: 106 106 163
Width: 231
GlyphClass: 1
Flags: W
LayerCount: 2
Fore
SplineSet
120.400390625 605 m 0,0,1
 96.2001953125 605 96.2001953125 605 80.7998046875 620.5 c 128,-1,2
 65.400390625 636 65.400390625 636 65.400390625 658 c 0,3,4
 65.400390625 681 65.400390625 681 80.7998046875 695.5 c 128,-1,5
 96.2001953125 710 96.2001953125 710 120.400390625 710 c 256,6,7
 144.599609375 710 144.599609375 710 159.450195312 695.5 c 128,-1,8
 174.299804688 681 174.299804688 681 174.299804688 658 c 256,9,10
 174.299804688 635 174.299804688 635 158.900390625 620 c 128,-1,11
 143.5 605 143.5 605 120.400390625 605 c 0,0,1
-0.599609375 -215 m 0,12,13
 -32.5 -215 -32.5 -215 -53.400390625 -200 c 128,-1,14
 -74.2998046875 -185 -74.2998046875 -185 -74.2998046875 -161 c 0,15,16
 -74.2998046875 -144 -74.2998046875 -144 -62.75 -131.5 c 128,-1,17
 -51.2001953125 -119 -51.2001953125 -119 -31.400390625 -119 c 0,18,19
 -13.7998046875 -119 -13.7998046875 -119 -6.099609375 -127.5 c 128,-1,20
 1.599609375 -136 1.599609375 -136 6 -147 c 128,-1,21
 10.400390625 -158 10.400390625 -158 17.5498046875 -166.5 c 128,-1,22
 24.7001953125 -175 24.7001953125 -175 39 -175 c 0,23,24
 59.900390625 -175 59.900390625 -175 70.900390625 -153 c 128,-1,25
 81.900390625 -131 81.900390625 -131 81.900390625 -91 c 2,26,-1
 81.900390625 403 l 2,27,28
 81.900390625 421 81.900390625 421 75.849609375 427.5 c 128,-1,29
 69.7998046875 434 69.7998046875 434 54.400390625 436 c 2,30,-1
 31.2998046875 439 l 2,31,32
 17 440 17 440 17 450 c 0,33,34
 17 458 17 458 34.599609375 461 c 0,35,36
 68.7001953125 466 68.7001953125 466 89.599609375 477 c 128,-1,37
 110.5 488 110.5 488 130.299804688 504 c 0,38,39
 140.200195312 513 140.200195312 513 146.799804688 513 c 0,40,41
 156.700195312 513 156.700195312 513 156.700195312 501 c 2,42,-1
 156.700195312 44 l 2,43,44
 156.700195312 -76 156.700195312 -76 113.799804688 -145.5 c 128,-1,45
 70.900390625 -215 70.900390625 -215 -0.599609375 -215 c 0,12,13
EndSplineSet
Substitution2: "Single Substitution lookup 4 subtable" uni0237
Substitution2: "Single Substitution lookup 3 subtable" uni0237
EndChar

StartChar: uni0237
Encoding: 567 567 164
Width: 232
GlyphClass: 1
Flags: W
LayerCount: 2
Fore
SplineSet
0.2001953125 -215 m 0,0,1
 -31.7001953125 -215 -31.7001953125 -215 -52.599609375 -200 c 128,-1,2
 -73.5 -185 -73.5 -185 -73.5 -161 c 0,3,4
 -73.5 -144 -73.5 -144 -61.9501953125 -131.5 c 128,-1,5
 -50.400390625 -119 -50.400390625 -119 -30.599609375 -119 c 0,6,7
 -13 -119 -13 -119 -5.2998046875 -127.5 c 128,-1,8
 2.400390625 -136 2.400390625 -136 6.7998046875 -147 c 128,-1,9
 11.2001953125 -158 11.2001953125 -158 18.349609375 -166.5 c 128,-1,10
 25.5 -175 25.5 -175 39.7998046875 -175 c 0,11,12
 60.7001953125 -175 60.7001953125 -175 71.7001953125 -153 c 128,-1,13
 82.7001953125 -131 82.7001953125 -131 82.7001953125 -91 c 2,14,-1
 82.7001953125 403 l 2,15,16
 82.7001953125 421 82.7001953125 421 76.650390625 427.5 c 128,-1,17
 70.599609375 434 70.599609375 434 55.2001953125 436 c 2,18,-1
 32.099609375 439 l 2,19,20
 17.7998046875 440 17.7998046875 440 17.7998046875 450 c 0,21,22
 17.7998046875 458 17.7998046875 458 35.400390625 461 c 0,23,24
 69.5 466 69.5 466 90.400390625 477 c 128,-1,25
 111.299804688 488 111.299804688 488 131.099609375 504 c 0,26,27
 141 513 141 513 147.599609375 513 c 0,28,29
 157.5 513 157.5 513 157.5 501 c 2,30,-1
 157.5 44 l 2,31,32
 157.5 -76 157.5 -76 114.599609375 -145.5 c 128,-1,33
 71.7001953125 -215 71.7001953125 -215 0.2001953125 -215 c 0,0,1
EndSplineSet
EndChar

StartChar: k
Encoding: 107 107 165
Width: 472
GlyphClass: 2
Flags: W
AnchorPoint: "Anchor-1" 225.3 0 basechar 0
AnchorPoint: "Anchor-0" 225.3 740 basechar 0
LayerCount: 2
Fore
SplineSet
6.400390625 0 m 2,0,1
 -6.7998046875 0 -6.7998046875 0 -6.7998046875 11 c 0,2,3
 -6.7998046875 21 -6.7998046875 21 5.2998046875 23 c 2,4,-1
 20.7001953125 25 l 2,5,6
 43.7998046875 28 43.7998046875 28 50.9501953125 37 c 128,-1,7
 58.099609375 46 58.099609375 46 58.099609375 67 c 2,8,-1
 58.099609375 640 l 2,9,10
 58.099609375 658 58.099609375 658 52.0498046875 664.5 c 128,-1,11
 46 671 46 671 30.599609375 673 c 2,12,-1
 7.5 676 l 2,13,14
 -4.599609375 678 -4.599609375 678 -4.599609375 688 c 256,15,16
 -4.599609375 698 -4.599609375 698 7.5 700 c 0,17,18
 38.2998046875 706 38.2998046875 706 59.2001953125 714 c 128,-1,19
 80.099609375 722 80.099609375 722 94.400390625 730 c 0,20,21
 112 740 112 740 120.799804688 740 c 0,22,23
 132.900390625 740 132.900390625 740 132.900390625 724 c 2,24,-1
 132.900390625 305 l 2,25,26
 132.900390625 295 132.900390625 295 142.25 292.5 c 128,-1,27
 151.599609375 290 151.599609375 290 160.400390625 299 c 2,28,-1
 289.099609375 425 l 2,29,30
 312.200195312 448 312.200195312 448 308.349609375 463.5 c 128,-1,31
 304.5 479 304.5 479 282.5 483 c 2,32,-1
 257.200195312 487 l 2,33,34
 242.900390625 490 242.900390625 490 242.900390625 500 c 256,35,36
 242.900390625 510 242.900390625 510 258.299804688 510 c 2,37,-1
 447.5 510 l 2,38,39
 462.900390625 510 462.900390625 510 462.900390625 499 c 256,40,41
 462.900390625 488 462.900390625 488 448.599609375 487 c 2,42,-1
 438.700195312 486 l 2,43,44
 413.400390625 484 413.400390625 484 388.099609375 468.5 c 128,-1,45
 362.799804688 453 362.799804688 453 327.599609375 420 c 2,46,-1
 259.400390625 354 l 2,47,48
 236.299804688 331 236.299804688 331 248.400390625 309 c 2,49,-1
 387 67 l 2,50,51
 399.099609375 47 399.099609375 47 413.400390625 38 c 128,-1,52
 427.700195312 29 427.700195312 29 448.599609375 25 c 2,53,-1
 459.599609375 23 l 2,54,55
 472.799804688 20 472.799804688 20 472.799804688 11 c 0,56,57
 472.799804688 0 472.799804688 0 457.400390625 0 c 2,58,-1
 266 0 l 2,59,60
 250.599609375 0 250.599609375 0 250.599609375 11 c 0,61,62
 250.599609375 21 250.599609375 21 264.900390625 23 c 2,63,-1
 283.599609375 25 l 2,64,65
 325.400390625 30 325.400390625 30 301.200195312 74 c 2,66,-1
 196.700195312 259 l 2,67,68
 191.200195312 269 191.200195312 269 180.75 270 c 128,-1,69
 170.299804688 271 170.299804688 271 161.5 263 c 2,70,-1
 149.400390625 252 l 2,71,72
 139.5 243 139.5 243 136.200195312 234 c 128,-1,73
 132.900390625 225 132.900390625 225 132.900390625 214 c 2,74,-1
 132.900390625 67 l 2,75,76
 132.900390625 46 132.900390625 46 140.049804688 37 c 128,-1,77
 147.200195312 28 147.200195312 28 170.299804688 26 c 2,78,-1
 200 23 l 2,79,80
 212.099609375 21 212.099609375 21 212.099609375 11 c 0,81,82
 212.099609375 0 212.099609375 0 198.900390625 0 c 2,83,-1
 6.400390625 0 l 2,0,1
EndSplineSet
EndChar

StartChar: l
Encoding: 108 108 167
Width: 231
GlyphClass: 2
Flags: W
AnchorPoint: "Anchor-1" 110.1 0 basechar 0
AnchorPoint: "Anchor-0" 82.5996 710 basechar 0
LayerCount: 2
Fore
SplineSet
11.099609375 0 m 2,0,1
 -2.099609375 0 -2.099609375 0 -2.099609375 11 c 0,2,3
 -2.099609375 21 -2.099609375 21 10 23 c 2,4,-1
 25.400390625 25 l 2,5,6
 48.5 28 48.5 28 59.5 37 c 128,-1,7
 70.5 46 70.5 46 70.5 67 c 2,8,-1
 70.5 640 l 2,9,10
 70.5 658 70.5 658 64.4501953125 665 c 128,-1,11
 58.400390625 672 58.400390625 672 43 673 c 2,12,-1
 17.7001953125 676 l 2,13,14
 5.599609375 678 5.599609375 678 5.599609375 688 c 256,15,16
 5.599609375 698 5.599609375 698 17.7001953125 700 c 0,17,18
 48.5 706 48.5 706 70.5 714 c 128,-1,19
 92.5 722 92.5 722 106.799804688 730 c 0,20,21
 124.400390625 740 124.400390625 740 133.200195312 740 c 0,22,23
 145.299804688 740 145.299804688 740 145.299804688 724 c 2,24,-1
 145.299804688 67 l 2,25,26
 145.299804688 46 145.299804688 46 152.450195312 37.5 c 128,-1,27
 159.599609375 29 159.599609375 29 182.700195312 26 c 2,28,-1
 208 23 l 2,29,30
 220.099609375 21 220.099609375 21 220.099609375 11 c 0,31,32
 220.099609375 0 220.099609375 0 206.900390625 0 c 2,33,-1
 11.099609375 0 l 2,0,1
EndSplineSet
EndChar

StartChar: lslash
Encoding: 322 322 171
Width: 292
GlyphClass: 2
Flags: W
AnchorPoint: "Anchor-1" 135.65 0 basechar 0
AnchorPoint: "Anchor-0" 108.15 710 basechar 0
LayerCount: 2
Fore
SplineSet
36.650390625 0 m 2,0,1
 23.4501953125 0 23.4501953125 0 23.4501953125 11 c 0,2,3
 23.4501953125 21 23.4501953125 21 35.5498046875 23 c 2,4,-1
 50.9501953125 25 l 2,5,6
 74.0498046875 28 74.0498046875 28 85.0498046875 37 c 128,-1,7
 96.0498046875 46 96.0498046875 46 96.0498046875 67 c 2,8,-1
 96.0498046875 327 l 1,9,-1
 19.0498046875 283 l 2,10,11
 10.25 278 10.25 278 4.75 286 c 2,12,-1
 -0.75 293 l 2,13,14
 -6.25 302 -6.25 302 2.5498046875 307 c 2,15,-1
 96.0498046875 360 l 1,16,-1
 96.0498046875 640 l 2,17,18
 96.0498046875 658 96.0498046875 658 90 665 c 128,-1,19
 83.9501953125 672 83.9501953125 672 68.5498046875 673 c 2,20,-1
 43.25 676 l 2,21,22
 31.150390625 678 31.150390625 678 31.150390625 688 c 256,23,24
 31.150390625 698 31.150390625 698 43.25 700 c 0,25,26
 74.0498046875 706 74.0498046875 706 96.0498046875 714 c 128,-1,27
 118.049804688 722 118.049804688 722 132.349609375 730 c 0,28,29
 149.950195312 740 149.950195312 740 158.75 740 c 0,30,31
 170.849609375 740 170.849609375 740 170.849609375 724 c 2,32,-1
 170.849609375 405 l 1,33,-1
 259.950195312 456 l 2,34,35
 268.75 461 268.75 461 274.25 453 c 2,36,-1
 279.75 446 l 2,37,38
 285.25 437 285.25 437 276.450195312 432 c 2,39,-1
 170.849609375 372 l 1,40,-1
 170.849609375 67 l 2,41,42
 170.849609375 46 170.849609375 46 178 37.5 c 128,-1,43
 185.150390625 29 185.150390625 29 208.25 26 c 2,44,-1
 233.549804688 23 l 2,45,46
 245.650390625 21 245.650390625 21 245.650390625 11 c 0,47,48
 245.650390625 0 245.650390625 0 232.450195312 0 c 2,49,-1
 36.650390625 0 l 2,0,1
EndSplineSet
EndChar

StartChar: m
Encoding: 109 109 172
Width: 739
GlyphClass: 1
Flags: W
LayerCount: 2
Fore
SplineSet
-2.400390625 0 m 2,0,1
 -18.900390625 0 -18.900390625 0 -18.900390625 11 c 0,2,3
 -18.900390625 20 -18.900390625 20 -4.599609375 23 c 2,4,-1
 8.599609375 25 l 2,5,6
 31.7001953125 29 31.7001953125 29 38.849609375 37.5 c 128,-1,7
 46 46 46 46 46 67 c 2,8,-1
 46 403 l 2,9,10
 46 421 46 421 39.9501953125 427.5 c 128,-1,11
 33.900390625 434 33.900390625 434 18.5 436 c 2,12,-1
 -4.599609375 439 l 2,13,14
 -18.900390625 440 -18.900390625 440 -18.900390625 450 c 0,15,16
 -18.900390625 458 -18.900390625 458 -1.2998046875 461 c 0,17,18
 32.7998046875 466 32.7998046875 466 50.9501953125 477 c 128,-1,19
 69.099609375 488 69.099609375 488 88.900390625 504 c 0,20,21
 98.7998046875 513 98.7998046875 513 105.400390625 513 c 0,22,23
 115.299804688 513 115.299804688 513 115.299804688 501 c 2,24,-1
 115.299804688 456 l 2,25,26
 115.299804688 449 115.299804688 449 121.900390625 445.5 c 128,-1,27
 128.5 442 128.5 442 136.200195312 449 c 0,28,29
 181.299804688 488 181.299804688 488 214.849609375 502 c 128,-1,30
 248.400390625 516 248.400390625 516 282.5 516 c 0,31,32
 314.400390625 516 314.400390625 516 339.150390625 500.5 c 128,-1,33
 363.900390625 485 363.900390625 485 376 454 c 0,34,35
 379.299804688 446 379.299804688 446 387.549804688 444.5 c 128,-1,36
 395.799804688 443 395.799804688 443 403.5 450 c 0,37,38
 448.599609375 488 448.599609375 488 481.599609375 502 c 128,-1,39
 514.599609375 516 514.599609375 516 548.700195312 516 c 0,40,41
 594.900390625 516 594.900390625 516 624.049804688 484.5 c 128,-1,42
 653.200195312 453 653.200195312 453 653.200195312 392 c 2,43,-1
 653.200195312 67 l 2,44,45
 653.200195312 46 653.200195312 46 660.349609375 37.5 c 128,-1,46
 667.5 29 667.5 29 690.599609375 26 c 2,47,-1
 714.799804688 23 l 2,48,49
 726.900390625 21 726.900390625 21 726.900390625 11 c 0,50,51
 726.900390625 0 726.900390625 0 713.700195312 0 c 2,52,-1
 525.599609375 0 l 2,53,54
 510.200195312 0 510.200195312 0 510.200195312 11 c 0,55,56
 510.200195312 21 510.200195312 21 522.299804688 23 c 2,57,-1
 537.700195312 25 l 2,58,59
 563 28 563 28 570.700195312 37 c 128,-1,60
 578.400390625 46 578.400390625 46 578.400390625 67 c 2,61,-1
 578.400390625 381 l 2,62,63
 578.400390625 430 578.400390625 430 559.150390625 450 c 128,-1,64
 539.900390625 470 539.900390625 470 506.900390625 470 c 256,65,66
 473.900390625 470 473.900390625 470 446.950195312 451.5 c 128,-1,67
 420 433 420 433 403.5 402.5 c 128,-1,68
 387 372 387 372 387 335 c 2,69,-1
 387 67 l 2,70,71
 387 46 387 46 394.700195312 37.5 c 128,-1,72
 402.400390625 29 402.400390625 29 426.599609375 26 c 2,73,-1
 450.799804688 23 l 2,74,75
 462.900390625 21 462.900390625 21 462.900390625 11 c 0,76,77
 462.900390625 0 462.900390625 0 449.700195312 0 c 2,78,-1
 262.700195312 0 l 2,79,80
 247.299804688 0 247.299804688 0 247.299804688 11 c 0,81,82
 247.299804688 21 247.299804688 21 259.400390625 23 c 2,83,-1
 274.799804688 25 l 2,84,85
 297.900390625 28 297.900390625 28 305.049804688 37 c 128,-1,86
 312.200195312 46 312.200195312 46 312.200195312 67 c 2,87,-1
 312.200195312 381 l 2,88,89
 312.200195312 430 312.200195312 430 292.950195312 450 c 128,-1,90
 273.700195312 470 273.700195312 470 240.700195312 470 c 256,91,92
 207.700195312 470 207.700195312 470 180.75 451.5 c 128,-1,93
 153.799804688 433 153.799804688 433 137.299804688 402.5 c 128,-1,94
 120.799804688 372 120.799804688 372 120.799804688 335 c 2,95,-1
 120.799804688 67 l 2,96,97
 120.799804688 46 120.799804688 46 127.950195312 37 c 128,-1,98
 135.099609375 28 135.099609375 28 158.200195312 26 c 2,99,-1
 187.900390625 23 l 2,100,101
 200 21 200 21 200 12 c 0,102,103
 200 0 200 0 183.5 0 c 2,104,-1
 -2.400390625 0 l 2,0,1
EndSplineSet
EndChar

StartChar: n
Encoding: 110 110 173
Width: 493
GlyphClass: 2
Flags: W
AnchorPoint: "Anchor-1" 234.8 0 basechar 0
AnchorPoint: "Anchor-0" 234.8 510 basechar 0
LayerCount: 2
Fore
SplineSet
9.2998046875 0 m 2,0,1
 -7.2001953125 0 -7.2001953125 0 -7.2001953125 11 c 0,2,3
 -7.2001953125 20 -7.2001953125 20 7.099609375 23 c 2,4,-1
 20.2998046875 25 l 2,5,6
 43.400390625 29 43.400390625 29 50.5498046875 37.5 c 128,-1,7
 57.7001953125 46 57.7001953125 46 57.7001953125 67 c 2,8,-1
 57.7001953125 403 l 2,9,10
 57.7001953125 421 57.7001953125 421 51.650390625 427.5 c 128,-1,11
 45.599609375 434 45.599609375 434 30.2001953125 436 c 2,12,-1
 7.099609375 439 l 2,13,14
 -7.2001953125 440 -7.2001953125 440 -7.2001953125 450 c 0,15,16
 -7.2001953125 458 -7.2001953125 458 10.400390625 461 c 0,17,18
 44.5 466 44.5 466 62.650390625 477 c 128,-1,19
 80.7998046875 488 80.7998046875 488 100.599609375 504 c 0,20,21
 110.5 513 110.5 513 117.099609375 513 c 0,22,23
 127 513 127 513 127 501 c 2,24,-1
 127 456 l 2,25,26
 127 447 127 447 134.150390625 444.5 c 128,-1,27
 141.299804688 442 141.299804688 442 150.099609375 450 c 0,28,29
 194.099609375 488 194.099609375 488 227.650390625 502 c 128,-1,30
 261.200195312 516 261.200195312 516 298.599609375 516 c 0,31,32
 348.099609375 516 348.099609375 516 377.799804688 484.5 c 128,-1,33
 407.5 453 407.5 453 407.5 392 c 2,34,-1
 407.5 67 l 2,35,36
 407.5 46 407.5 46 414.650390625 37.5 c 128,-1,37
 421.799804688 29 421.799804688 29 444.900390625 26 c 2,38,-1
 469.099609375 23 l 2,39,40
 481.200195312 21 481.200195312 21 481.200195312 11 c 0,41,42
 481.200195312 0 481.200195312 0 468 0 c 2,43,-1
 283.200195312 0 l 2,44,45
 267.799804688 0 267.799804688 0 267.799804688 11 c 0,46,47
 267.799804688 21 267.799804688 21 279.900390625 23 c 2,48,-1
 295.299804688 25 l 2,49,50
 318.400390625 28 318.400390625 28 325.549804688 37 c 128,-1,51
 332.700195312 46 332.700195312 46 332.700195312 67 c 2,52,-1
 332.700195312 381 l 2,53,54
 332.700195312 430 332.700195312 430 312.900390625 450 c 128,-1,55
 293.099609375 470 293.099609375 470 256.799804688 470 c 0,56,57
 221.599609375 470 221.599609375 470 193.549804688 451.5 c 128,-1,58
 165.5 433 165.5 433 149 402.5 c 128,-1,59
 132.5 372 132.5 372 132.5 335 c 2,60,-1
 132.5 67 l 2,61,62
 132.5 46 132.5 46 139.650390625 37 c 128,-1,63
 146.799804688 28 146.799804688 28 169.900390625 26 c 2,64,-1
 199.599609375 23 l 2,65,66
 211.700195312 21 211.700195312 21 211.700195312 12 c 0,67,68
 211.700195312 0 211.700195312 0 195.200195312 0 c 2,69,-1
 9.2998046875 0 l 2,0,1
EndSplineSet
EndChar

StartChar: eng
Encoding: 331 331 178
Width: 485
GlyphClass: 1
Flags: W
LayerCount: 2
Fore
SplineSet
253.549804688 -215 m 0,0,1
 221.650390625 -215 221.650390625 -215 200.75 -200 c 128,-1,2
 179.849609375 -185 179.849609375 -185 179.849609375 -161 c 0,3,4
 179.849609375 -144 179.849609375 -144 191.400390625 -131.5 c 128,-1,5
 202.950195312 -119 202.950195312 -119 222.75 -119 c 0,6,7
 240.349609375 -119 240.349609375 -119 248.049804688 -127.5 c 128,-1,8
 255.75 -136 255.75 -136 260.150390625 -147 c 128,-1,9
 264.549804688 -158 264.549804688 -158 271.700195312 -166.5 c 128,-1,10
 278.849609375 -175 278.849609375 -175 293.150390625 -175 c 0,11,12
 314.049804688 -175 314.049804688 -175 325.049804688 -153 c 128,-1,13
 336.049804688 -131 336.049804688 -131 336.049804688 -91 c 2,14,-1
 336.049804688 381 l 2,15,16
 336.049804688 430 336.049804688 430 316.25 450 c 128,-1,17
 296.450195312 470 296.450195312 470 260.150390625 470 c 0,18,19
 224.950195312 470 224.950195312 470 196.900390625 451.5 c 128,-1,20
 168.849609375 433 168.849609375 433 152.349609375 402.5 c 128,-1,21
 135.849609375 372 135.849609375 372 135.849609375 335 c 2,22,-1
 135.849609375 67 l 2,23,24
 135.849609375 46 135.849609375 46 143 37 c 128,-1,25
 150.150390625 28 150.150390625 28 173.25 26 c 2,26,-1
 202.950195312 23 l 2,27,28
 215.049804688 21 215.049804688 21 215.049804688 12 c 0,29,30
 215.049804688 0 215.049804688 0 198.549804688 0 c 2,31,-1
 12.650390625 0 l 2,32,33
 -3.849609375 0 -3.849609375 0 -3.849609375 11 c 0,34,35
 -3.849609375 20 -3.849609375 20 10.4501953125 23 c 2,36,-1
 23.650390625 25 l 2,37,38
 46.75 29 46.75 29 53.900390625 37.5 c 128,-1,39
 61.0498046875 46 61.0498046875 46 61.0498046875 67 c 2,40,-1
 61.0498046875 403 l 2,41,42
 61.0498046875 421 61.0498046875 421 55 427.5 c 128,-1,43
 48.9501953125 434 48.9501953125 434 33.5498046875 436 c 2,44,-1
 10.4501953125 439 l 2,45,46
 -3.849609375 440 -3.849609375 440 -3.849609375 450 c 0,47,48
 -3.849609375 458 -3.849609375 458 13.75 461 c 0,49,50
 47.849609375 466 47.849609375 466 66 477 c 128,-1,51
 84.150390625 488 84.150390625 488 103.950195312 504 c 0,52,53
 113.849609375 513 113.849609375 513 120.450195312 513 c 0,54,55
 130.349609375 513 130.349609375 513 130.349609375 501 c 2,56,-1
 130.349609375 456 l 2,57,58
 130.349609375 447 130.349609375 447 137.5 444.5 c 128,-1,59
 144.650390625 442 144.650390625 442 153.450195312 450 c 0,60,61
 197.450195312 488 197.450195312 488 231 502 c 128,-1,62
 264.549804688 516 264.549804688 516 301.950195312 516 c 0,63,64
 351.450195312 516 351.450195312 516 381.150390625 484.5 c 128,-1,65
 410.849609375 453 410.849609375 453 410.849609375 392 c 2,66,-1
 410.849609375 44 l 2,67,68
 410.849609375 -76 410.849609375 -76 367.950195312 -145.5 c 128,-1,69
 325.049804688 -215 325.049804688 -215 253.549804688 -215 c 0,0,1
EndSplineSet
EndChar

StartChar: o
Encoding: 111 111 179
Width: 428
GlyphClass: 2
Flags: W
AnchorPoint: "Anchor-2" 383.4 10 basechar 0
AnchorPoint: "Anchor-1" 204.1 0 basechar 0
AnchorPoint: "Anchor-0" 204.1 510 basechar 0
LayerCount: 2
Fore
SplineSet
203 -9 m 256,0,1
 146.900390625 -9 146.900390625 -9 102.349609375 25.5 c 128,-1,2
 57.7998046875 60 57.7998046875 60 31.400390625 120 c 128,-1,3
 5 180 5 180 5 254 c 256,4,5
 5 328 5 328 31.400390625 387 c 128,-1,6
 57.7998046875 446 57.7998046875 446 102.900390625 481 c 128,-1,7
 148 516 148 516 203 516 c 0,8,9
 259.099609375 516 259.099609375 516 303.650390625 481 c 128,-1,10
 348.200195312 446 348.200195312 446 374.599609375 387 c 128,-1,11
 401 328 401 328 401 254 c 256,12,13
 401 180 401 180 375.150390625 120 c 128,-1,14
 349.299804688 60 349.299804688 60 304.200195312 25.5 c 128,-1,15
 259.099609375 -9 259.099609375 -9 203 -9 c 256,0,1
203 16 m 256,16,17
 317.400390625 16 317.400390625 16 317.400390625 254 c 0,18,19
 317.400390625 491 317.400390625 491 203 491 c 256,20,21
 88.599609375 491 88.599609375 491 88.599609375 254 c 0,22,23
 88.599609375 16 88.599609375 16 203 16 c 256,16,17
EndSplineSet
Substitution2: "Single Substitution lookup 17 subtable" ordmasculine
Substitution2: "'aalt' Access All Alternates in Latin lookup 0 subtable" ordmasculine
EndChar

StartChar: oslash
Encoding: 248 248 186
Width: 428
GlyphClass: 2
Flags: W
AnchorPoint: "Anchor-2" 383.4 10 basechar 0
AnchorPoint: "Anchor-1" 204.1 0 basechar 0
AnchorPoint: "Anchor-0" 204.1 510 basechar 0
LayerCount: 2
Fore
SplineSet
58.900390625 -50 m 2,0,1
 44.599609375 -50 44.599609375 -50 50.099609375 -38 c 2,2,-1
 86.400390625 39 l 1,3,4
 49 74 49 74 27 130 c 128,-1,5
 5 186 5 186 5 254 c 0,6,7
 5 328 5 328 31.400390625 387 c 128,-1,8
 57.7998046875 446 57.7998046875 446 102.900390625 481 c 128,-1,9
 148 516 148 516 203 516 c 0,10,11
 253.599609375 516 253.599609375 516 296.5 486 c 1,12,-1
 327.299804688 552 l 2,13,14
 330.599609375 560 330.599609375 560 339.400390625 560 c 2,15,-1
 347.099609375 560 l 2,16,17
 361.400390625 560 361.400390625 560 355.900390625 548 c 2,18,-1
 318.5 468 l 1,19,20
 355.900390625 433 355.900390625 433 378.450195312 377 c 128,-1,21
 401 321 401 321 401 254 c 0,22,23
 401 180 401 180 375.150390625 120 c 128,-1,24
 349.299804688 60 349.299804688 60 304.200195312 25.5 c 128,-1,25
 259.099609375 -9 259.099609375 -9 203 -9 c 0,26,27
 152.400390625 -9 152.400390625 -9 108.400390625 21 c 1,28,-1
 78.7001953125 -42 l 2,29,30
 75.400390625 -50 75.400390625 -50 66.599609375 -50 c 2,31,-1
 58.900390625 -50 l 2,0,1
88.599609375 254 m 0,32,33
 88.599609375 148 88.599609375 148 110.599609375 90 c 1,34,-1
 278.900390625 449 l 1,35,36
 251.400390625 491 251.400390625 491 203 491 c 0,37,38
 88.599609375 491 88.599609375 491 88.599609375 254 c 0,32,33
203 16 m 0,39,40
 317.400390625 16 317.400390625 16 317.400390625 254 c 0,41,42
 317.400390625 360 317.400390625 360 294.299804688 418 c 1,43,-1
 126 58 l 1,44,45
 153.5 16 153.5 16 203 16 c 0,39,40
EndSplineSet
EndChar

StartChar: oe
Encoding: 339 339 188
Width: 671
GlyphClass: 1
Flags: W
LayerCount: 2
Fore
SplineSet
191.450195312 -9 m 0,0,1
 135.349609375 -9 135.349609375 -9 90.7998046875 25.5 c 128,-1,2
 46.25 60 46.25 60 19.849609375 120 c 128,-1,3
 -6.5498046875 180 -6.5498046875 180 -6.5498046875 254 c 256,4,5
 -6.5498046875 328 -6.5498046875 328 19.849609375 387 c 128,-1,6
 46.25 446 46.25 446 91.349609375 481 c 128,-1,7
 136.450195312 516 136.450195312 516 191.450195312 516 c 0,8,9
 240.950195312 516 240.950195312 516 280 488 c 128,-1,10
 319.049804688 460 319.049804688 460 343.25 413 c 1,11,12
 369.650390625 461 369.650390625 461 409.799804688 488.5 c 128,-1,13
 449.950195312 516 449.950195312 516 498.349609375 516 c 0,14,15
 563.25 516 563.25 516 603.400390625 467.5 c 128,-1,16
 643.549804688 419 643.549804688 419 643.549804688 310 c 0,17,18
 643.549804688 277 643.549804688 277 616.049804688 277 c 2,19,-1
 407.049804688 277 l 2,20,21
 385.049804688 277 385.049804688 277 385.049804688 254 c 0,22,23
 385.049804688 148 385.049804688 148 419.150390625 95 c 128,-1,24
 453.25 42 453.25 42 506.049804688 42 c 0,25,26
 547.849609375 42 547.849609375 42 574.25 69 c 128,-1,27
 600.650390625 96 600.650390625 96 617.150390625 160 c 0,28,29
 620.450195312 171 620.450195312 171 631.450195312 171 c 0,30,31
 644.650390625 171 644.650390625 171 641.349609375 151 c 0,32,33
 623.75 62 623.75 62 585.25 26.5 c 128,-1,34
 546.75 -9 546.75 -9 491.75 -9 c 0,35,36
 444.450195312 -9 444.450195312 -9 405.400390625 17 c 128,-1,37
 366.349609375 43 366.349609375 43 341.049804688 90 c 1,38,39
 316.849609375 44 316.849609375 44 278.349609375 17.5 c 128,-1,40
 239.849609375 -9 239.849609375 -9 191.450195312 -9 c 0,0,1
191.450195312 16 m 256,41,42
 305.849609375 16 305.849609375 16 305.849609375 254 c 0,43,44
 305.849609375 491 305.849609375 491 191.450195312 491 c 256,45,46
 77.0498046875 491 77.0498046875 491 77.0498046875 254 c 0,47,48
 77.0498046875 16 77.0498046875 16 191.450195312 16 c 256,41,42
403.75 302 m 2,49,-1
 514.849609375 302 l 2,50,51
 567.650390625 302 567.650390625 302 567.650390625 352 c 0,52,53
 567.650390625 417 567.650390625 417 550.049804688 454 c 128,-1,54
 532.450195312 491 532.450195312 491 497.25 491 c 0,55,56
 454.349609375 491 454.349609375 491 425.200195312 446 c 128,-1,57
 396.049804688 401 396.049804688 401 387.25 318 c 0,58,59
 385.049804688 302 385.049804688 302 403.75 302 c 2,49,-1
EndSplineSet
EndChar

StartChar: p
Encoding: 112 112 189
Width: 467
GlyphClass: 1
Flags: W
LayerCount: 2
Fore
SplineSet
8.400390625 -205 m 2,0,1
 -8.099609375 -205 -8.099609375 -205 -8.099609375 -194 c 256,2,3
 -8.099609375 -183 -8.099609375 -183 6.2001953125 -182 c 2,4,-1
 21.599609375 -180 l 2,5,6
 44.7001953125 -177 44.7001953125 -177 51.849609375 -168 c 128,-1,7
 59 -159 59 -159 59 -138 c 2,8,-1
 59 403 l 2,9,10
 59 421 59 421 52.9501953125 427.5 c 128,-1,11
 46.900390625 434 46.900390625 434 31.5 436 c 2,12,-1
 8.400390625 439 l 2,13,14
 -5.900390625 440 -5.900390625 440 -5.900390625 450 c 0,15,16
 -5.900390625 458 -5.900390625 458 11.7001953125 461 c 0,17,18
 45.7998046875 466 45.7998046875 466 63.9501953125 477 c 128,-1,19
 82.099609375 488 82.099609375 488 101.900390625 504 c 0,20,21
 111.799804688 513 111.799804688 513 118.400390625 513 c 0,22,23
 128.299804688 513 128.299804688 513 128.299804688 501 c 2,24,-1
 128.299804688 470 l 2,25,26
 128.299804688 463 128.299804688 463 134.900390625 460.5 c 128,-1,27
 141.5 458 141.5 458 150.299804688 466 c 2,28,-1
 162.400390625 477 l 2,29,30
 184.400390625 497 184.400390625 497 207.5 506.5 c 128,-1,31
 230.599609375 516 230.599609375 516 260.299804688 516 c 0,32,33
 310.900390625 516 310.900390625 516 349.950195312 485.5 c 128,-1,34
 389 455 389 455 411.549804688 401 c 128,-1,35
 434.099609375 347 434.099609375 347 434.099609375 274 c 0,36,37
 434.099609375 191 434.099609375 191 405.5 127 c 128,-1,38
 376.900390625 63 376.900390625 63 326.849609375 27 c 128,-1,39
 276.799804688 -9 276.799804688 -9 211.900390625 -9 c 0,40,41
 178.900390625 -9 178.900390625 -9 153.599609375 2 c 0,42,43
 133.799804688 10 133.799804688 10 133.799804688 -9 c 2,44,-1
 133.799804688 -138 l 2,45,46
 133.799804688 -159 133.799804688 -159 140.950195312 -166.5 c 128,-1,47
 148.099609375 -174 148.099609375 -174 171.200195312 -177 c 2,48,-1
 211.900390625 -182 l 2,49,50
 224 -184 224 -184 224 -193 c 0,51,52
 224 -205 224 -205 207.5 -205 c 2,53,-1
 8.400390625 -205 l 2,0,1
215.200195312 16 m 0,54,55
 276.799804688 16 276.799804688 16 314.75 82 c 128,-1,56
 352.700195312 148 352.700195312 148 352.700195312 260 c 0,57,58
 352.700195312 363 352.700195312 363 319.700195312 417 c 128,-1,59
 286.700195312 471 286.700195312 471 226.200195312 471 c 0,60,61
 188.799804688 471 188.799804688 471 161.299804688 443 c 128,-1,62
 133.799804688 415 133.799804688 415 133.799804688 365 c 2,63,-1
 133.799804688 113 l 2,64,65
 133.799804688 68 133.799804688 68 156.349609375 42 c 128,-1,66
 178.900390625 16 178.900390625 16 215.200195312 16 c 0,54,55
EndSplineSet
EndChar

StartChar: thorn
Encoding: 254 254 190
Width: 467
GlyphClass: 1
Flags: W
LayerCount: 2
Fore
SplineSet
8.4501953125 -205 m 2,0,1
 -8.0498046875 -205 -8.0498046875 -205 -8.0498046875 -194 c 256,2,3
 -8.0498046875 -183 -8.0498046875 -183 6.25 -182 c 2,4,-1
 21.650390625 -180 l 2,5,6
 44.75 -177 44.75 -177 51.900390625 -168 c 128,-1,7
 59.0498046875 -159 59.0498046875 -159 59.0498046875 -138 c 2,8,-1
 59.0498046875 640 l 2,9,10
 59.0498046875 658 59.0498046875 658 50.25 664.5 c 128,-1,11
 41.4501953125 671 41.4501953125 671 26.0498046875 673 c 2,12,-1
 2.9501953125 676 l 2,13,14
 -9.150390625 678 -9.150390625 678 -9.150390625 688 c 256,15,16
 -9.150390625 698 -9.150390625 698 2.9501953125 700 c 0,17,18
 33.75 706 33.75 706 54.650390625 714 c 128,-1,19
 75.5498046875 722 75.5498046875 722 89.849609375 730 c 0,20,21
 107.450195312 740 107.450195312 740 116.25 740 c 0,22,23
 128.349609375 740 128.349609375 740 128.349609375 724 c 2,24,-1
 128.349609375 470 l 2,25,26
 128.349609375 463 128.349609375 463 134.950195312 460.5 c 128,-1,27
 141.549804688 458 141.549804688 458 150.349609375 466 c 2,28,-1
 162.450195312 477 l 2,29,30
 184.450195312 497 184.450195312 497 207.549804688 506.5 c 128,-1,31
 230.650390625 516 230.650390625 516 260.349609375 516 c 0,32,33
 310.950195312 516 310.950195312 516 350 485.5 c 128,-1,34
 389.049804688 455 389.049804688 455 411.599609375 401 c 128,-1,35
 434.150390625 347 434.150390625 347 434.150390625 274 c 0,36,37
 434.150390625 191 434.150390625 191 405.549804688 127 c 128,-1,38
 376.950195312 63 376.950195312 63 326.900390625 27 c 128,-1,39
 276.849609375 -9 276.849609375 -9 211.950195312 -9 c 0,40,41
 178.950195312 -9 178.950195312 -9 153.650390625 2 c 0,42,43
 133.849609375 10 133.849609375 10 133.849609375 -9 c 2,44,-1
 133.849609375 -138 l 2,45,46
 133.849609375 -159 133.849609375 -159 141 -166.5 c 128,-1,47
 148.150390625 -174 148.150390625 -174 171.25 -177 c 2,48,-1
 211.950195312 -182 l 2,49,50
 224.049804688 -184 224.049804688 -184 224.049804688 -193 c 0,51,52
 224.049804688 -205 224.049804688 -205 207.549804688 -205 c 2,53,-1
 8.4501953125 -205 l 2,0,1
215.25 16 m 0,54,55
 276.849609375 16 276.849609375 16 314.799804688 82 c 128,-1,56
 352.75 148 352.75 148 352.75 260 c 0,57,58
 352.75 363 352.75 363 319.75 417 c 128,-1,59
 286.75 471 286.75 471 226.25 471 c 0,60,61
 188.849609375 471 188.849609375 471 161.349609375 443 c 128,-1,62
 133.849609375 415 133.849609375 415 133.849609375 365 c 2,63,-1
 133.849609375 113 l 2,64,65
 133.849609375 68 133.849609375 68 156.400390625 42 c 128,-1,66
 178.950195312 16 178.950195312 16 215.25 16 c 0,54,55
EndSplineSet
EndChar

StartChar: q
Encoding: 113 113 191
Width: 463
GlyphClass: 1
Flags: W
LayerCount: 2
Fore
SplineSet
236.5 -205 m 2,0,1
 220 -205 220 -205 220 -193 c 0,2,3
 220 -184 220 -184 232.099609375 -182 c 2,4,-1
 272.799804688 -177 l 2,5,6
 295.900390625 -174 295.900390625 -174 303.049804688 -166.5 c 128,-1,7
 310.200195312 -159 310.200195312 -159 310.200195312 -138 c 2,8,-1
 310.200195312 45 l 2,9,10
 310.200195312 53 310.200195312 53 302.5 55.5 c 128,-1,11
 294.799804688 58 294.799804688 58 287.099609375 50 c 0,12,13
 259.599609375 17 259.599609375 17 235.400390625 4 c 128,-1,14
 211.200195312 -9 211.200195312 -9 176 -9 c 0,15,16
 127.599609375 -9 127.599609375 -9 89.650390625 21.5 c 128,-1,17
 51.7001953125 52 51.7001953125 52 30.7998046875 106.5 c 128,-1,18
 9.900390625 161 9.900390625 161 9.900390625 233 c 0,19,20
 9.900390625 317 9.900390625 317 38.5 380.5 c 128,-1,21
 67.099609375 444 67.099609375 444 117.700195312 480 c 128,-1,22
 168.299804688 516 168.299804688 516 232.099609375 516 c 0,23,24
 254.099609375 516 254.099609375 516 273.349609375 510 c 128,-1,25
 292.599609375 504 292.599609375 504 313.5 490 c 0,26,27
 337.700195312 475 337.700195312 475 357.5 498 c 0,28,29
 368.5 509 368.5 509 374.549804688 512.5 c 128,-1,30
 380.599609375 516 380.599609375 516 385 516 c 0,31,32
 397.099609375 516 397.099609375 516 393.799804688 502 c 0,33,34
 389.400390625 480 389.400390625 480 387.200195312 443.5 c 128,-1,35
 385 407 385 407 385 347 c 2,36,-1
 385 -138 l 2,37,38
 385 -159 385 -159 392.150390625 -168 c 128,-1,39
 399.299804688 -177 399.299804688 -177 422.400390625 -180 c 2,40,-1
 437.799804688 -182 l 2,41,42
 452.099609375 -183 452.099609375 -183 452.099609375 -194 c 256,43,44
 452.099609375 -205 452.099609375 -205 435.599609375 -205 c 2,45,-1
 236.5 -205 l 2,0,1
200.200195312 37 m 0,46,47
 228.799804688 37 228.799804688 37 253.549804688 54.5 c 128,-1,48
 278.299804688 72 278.299804688 72 294.25 102 c 128,-1,49
 310.200195312 132 310.200195312 132 310.200195312 169 c 2,50,-1
 310.200195312 394 l 2,51,52
 310.200195312 439 310.200195312 439 287.650390625 465 c 128,-1,53
 265.099609375 491 265.099609375 491 228.799804688 491 c 0,54,55
 167.200195312 491 167.200195312 491 129.25 425.5 c 128,-1,56
 91.2998046875 360 91.2998046875 360 91.2998046875 247 c 0,57,58
 91.2998046875 144 91.2998046875 144 120.450195312 90.5 c 128,-1,59
 149.599609375 37 149.599609375 37 200.200195312 37 c 0,46,47
EndSplineSet
EndChar

StartChar: r
Encoding: 114 114 192
Width: 333
GlyphClass: 2
Flags: W
AnchorPoint: "Anchor-1" 103.25 0 basechar 0
AnchorPoint: "Anchor-0" 158.25 510 basechar 0
LayerCount: 2
Fore
SplineSet
152.75 446 m 0,0,1
 197.849609375 516 197.849609375 516 261.650390625 516 c 0,2,3
 297.950195312 516 297.950195312 516 315.549804688 496.5 c 128,-1,4
 333.150390625 477 333.150390625 477 333.150390625 453 c 0,5,6
 333.150390625 434 333.150390625 434 322.700195312 422 c 128,-1,7
 312.25 410 312.25 410 290.25 410 c 0,8,9
 272.650390625 410 272.650390625 410 264.400390625 417.5 c 128,-1,10
 256.150390625 425 256.150390625 425 251.200195312 435 c 128,-1,11
 246.25 445 246.25 445 239.650390625 452.5 c 128,-1,12
 233.049804688 460 233.049804688 460 217.650390625 460 c 0,13,14
 197.849609375 460 197.849609375 460 180.25 438.5 c 128,-1,15
 162.650390625 417 162.650390625 417 151.099609375 381 c 128,-1,16
 139.549804688 345 139.549804688 345 139.549804688 299 c 2,17,-1
 139.549804688 67 l 2,18,19
 139.549804688 46 139.549804688 46 146.700195312 37 c 128,-1,20
 153.849609375 28 153.849609375 28 176.950195312 26 c 2,21,-1
 206.650390625 23 l 2,22,23
 218.75 21 218.75 21 218.75 12 c 0,24,25
 218.75 0 218.75 0 202.25 0 c 2,26,-1
 16.349609375 0 l 2,27,28
 -0.150390625 0 -0.150390625 0 -0.150390625 11 c 0,29,30
 -0.150390625 20 -0.150390625 20 14.150390625 23 c 2,31,-1
 27.349609375 25 l 2,32,33
 50.4501953125 29 50.4501953125 29 57.599609375 37.5 c 128,-1,34
 64.75 46 64.75 46 64.75 67 c 2,35,-1
 64.75 403 l 2,36,37
 64.75 421 64.75 421 58.7001953125 427.5 c 128,-1,38
 52.650390625 434 52.650390625 434 37.25 436 c 2,39,-1
 14.150390625 439 l 2,40,41
 -0.150390625 440 -0.150390625 440 -0.150390625 450 c 0,42,43
 -0.150390625 458 -0.150390625 458 17.4501953125 461 c 0,44,45
 51.5498046875 466 51.5498046875 466 69.7001953125 477 c 128,-1,46
 87.849609375 488 87.849609375 488 107.650390625 504 c 0,47,48
 117.549804688 513 117.549804688 513 124.150390625 513 c 0,49,50
 134.049804688 513 134.049804688 513 134.049804688 501 c 2,51,-1
 134.049804688 447 l 2,52,53
 134.049804688 440 134.049804688 440 140.650390625 438.5 c 128,-1,54
 147.25 437 147.25 437 152.75 446 c 0,0,1
EndSplineSet
EndChar

StartChar: s
Encoding: 115 115 196
Width: 323
GlyphClass: 2
Flags: W
AnchorPoint: "Anchor-1" 143 0 basechar 0
AnchorPoint: "Anchor-0" 154 510 basechar 0
LayerCount: 2
Fore
SplineSet
128.700195312 -9 m 0,0,1
 103.400390625 -9 103.400390625 -9 74.7998046875 -3.5 c 128,-1,2
 46.2001953125 2 46.2001953125 2 28.599609375 10 c 0,3,4
 18.7001953125 15 18.7001953125 15 18.7001953125 27 c 2,5,-1
 15.400390625 139 l 2,6,7
 15.400390625 156 15.400390625 156 29.7001953125 156 c 0,8,9
 41.7998046875 156 41.7998046875 156 46.2001953125 140 c 0,10,11
 64.900390625 69 64.900390625 69 91.849609375 43 c 128,-1,12
 118.799804688 17 118.799804688 17 157.299804688 17 c 0,13,14
 189.200195312 17 189.200195312 17 210.099609375 39.5 c 128,-1,15
 231 62 231 62 231 102 c 256,16,17
 231 142 231 142 206.799804688 173 c 128,-1,18
 182.599609375 204 182.599609375 204 125.400390625 241 c 0,19,20
 68.2001953125 276 68.2001953125 276 41.7998046875 311.5 c 128,-1,21
 15.400390625 347 15.400390625 347 15.400390625 389 c 0,22,23
 15.400390625 446 15.400390625 446 59.400390625 481 c 128,-1,24
 103.400390625 516 103.400390625 516 176 516 c 0,25,26
 198 516 198 516 218.900390625 511.5 c 128,-1,27
 239.799804688 507 239.799804688 507 256.299804688 497 c 0,28,29
 266.200195312 491 266.200195312 491 266.200195312 481 c 2,30,-1
 268.400390625 371 l 2,31,32
 268.400390625 356 268.400390625 356 255.200195312 356 c 0,33,34
 247.5 356 247.5 356 244.200195312 360.5 c 128,-1,35
 240.900390625 365 240.900390625 365 238.700195312 372 c 0,36,37
 216.700195312 437 216.700195312 437 194.700195312 462.5 c 128,-1,38
 172.700195312 488 172.700195312 488 140.799804688 488 c 0,39,40
 112.200195312 488 112.200195312 488 93.5 470 c 128,-1,41
 74.7998046875 452 74.7998046875 452 74.7998046875 425 c 0,42,43
 74.7998046875 390 74.7998046875 390 97.900390625 364 c 128,-1,44
 121 338 121 338 181.5 300 c 0,45,46
 236.5 264 236.5 264 264.549804688 222.5 c 128,-1,47
 292.599609375 181 292.599609375 181 292.599609375 132 c 0,48,49
 292.599609375 68 292.599609375 68 247.5 29.5 c 128,-1,50
 202.400390625 -9 202.400390625 -9 128.700195312 -9 c 0,0,1
EndSplineSet
EndChar

StartChar: germandbls
Encoding: 223 223 201
Width: 465
GlyphClass: 1
Flags: W
LayerCount: 2
Fore
SplineSet
304.5 -9 m 0,0,1
 273.700195312 -9 273.700195312 -9 249.5 -3.5 c 128,-1,2
 225.299804688 2 225.299804688 2 207.700195312 10 c 0,3,4
 197.799804688 15 197.799804688 15 197.799804688 27 c 2,5,-1
 194.5 139 l 2,6,7
 194.5 156 194.5 156 208.799804688 156 c 0,8,9
 220.900390625 156 220.900390625 156 225.299804688 140 c 0,10,11
 244 69 244 69 263.799804688 43 c 128,-1,12
 283.599609375 17 283.599609375 17 319.900390625 17 c 0,13,14
 349.599609375 17 349.599609375 17 371.599609375 39.5 c 128,-1,15
 393.599609375 62 393.599609375 62 393.599609375 102 c 256,16,17
 393.599609375 142 393.599609375 142 371.049804688 174 c 128,-1,18
 348.5 206 348.5 206 301.200195312 235 c 0,19,20
 244 270 244 270 219.25 304 c 128,-1,21
 194.5 338 194.5 338 194.5 379 c 0,22,23
 194.5 412 194.5 412 209.349609375 436.5 c 128,-1,24
 224.200195312 461 224.200195312 461 245.650390625 482 c 128,-1,25
 267.099609375 503 267.099609375 503 288.549804688 525 c 128,-1,26
 310 547 310 547 324.849609375 575.5 c 128,-1,27
 339.700195312 604 339.700195312 604 339.700195312 643 c 0,28,29
 339.700195312 677 339.700195312 677 321 697 c 128,-1,30
 302.299804688 717 302.299804688 717 262.700195312 717 c 0,31,32
 215.400390625 717 215.400390625 717 180.75 682 c 128,-1,33
 146.099609375 647 146.099609375 647 146.099609375 570 c 2,34,-1
 146.099609375 20 l 2,35,36
 146.099609375 0 146.099609375 0 124.099609375 0 c 2,37,-1
 8.599609375 0 l 2,38,39
 -7.900390625 0 -7.900390625 0 -7.900390625 11 c 256,40,41
 -7.900390625 22 -7.900390625 22 6.400390625 23 c 2,42,-1
 33.900390625 25 l 2,43,44
 57 27 57 27 64.150390625 36.5 c 128,-1,45
 71.2998046875 46 71.2998046875 46 71.2998046875 67 c 2,46,-1
 71.2998046875 458 l 2,47,48
 71.2998046875 482 71.2998046875 482 44.900390625 482 c 2,49,-1
 19.599609375 482 l 2,50,51
 6.400390625 482 6.400390625 482 6.400390625 492 c 256,52,53
 6.400390625 502 6.400390625 502 19.599609375 503 c 0,54,55
 71.2998046875 508 71.2998046875 508 71.2998046875 544 c 0,56,57
 71.2998046875 599 71.2998046875 599 94.9501953125 645.5 c 128,-1,58
 118.599609375 692 118.599609375 692 162.599609375 720 c 128,-1,59
 206.599609375 748 206.599609375 748 268.200195312 748 c 0,60,61
 316.599609375 748 316.599609375 748 347.950195312 730.5 c 128,-1,62
 379.299804688 713 379.299804688 713 394.700195312 688 c 128,-1,63
 410.099609375 663 410.099609375 663 410.099609375 638 c 0,64,65
 410.099609375 604 410.099609375 604 393.049804688 577 c 128,-1,66
 376 550 376 550 351.25 528.5 c 128,-1,67
 326.5 507 326.5 507 301.75 487.5 c 128,-1,68
 277 468 277 468 259.950195312 448 c 128,-1,69
 242.900390625 428 242.900390625 428 242.900390625 405 c 0,70,71
 242.900390625 387 242.900390625 387 251.700195312 371 c 128,-1,72
 260.5 355 260.5 355 283.049804688 337.5 c 128,-1,73
 305.599609375 320 305.599609375 320 346.299804688 294 c 0,74,75
 396.900390625 263 396.900390625 263 424.400390625 222 c 128,-1,76
 451.900390625 181 451.900390625 181 451.900390625 132 c 0,77,78
 451.900390625 68 451.900390625 68 412.299804688 29.5 c 128,-1,79
 372.700195312 -9 372.700195312 -9 304.5 -9 c 0,0,1
EndSplineSet
EndChar

StartChar: t
Encoding: 116 116 202
Width: 272
GlyphClass: 2
Flags: W
AnchorPoint: "Anchor-1" 152.25 0 basechar 0
AnchorPoint: "Anchor-0" 130.25 510 basechar 0
LayerCount: 2
Fore
SplineSet
148.950195312 -9 m 0,0,1
 110.450195312 -9 110.450195312 -9 85.7001953125 15.5 c 128,-1,2
 60.9501953125 40 60.9501953125 40 60.9501953125 96 c 2,3,-1
 60.9501953125 470 l 2,4,5
 60.9501953125 482 60.9501953125 482 47.75 482 c 2,6,-1
 15.849609375 482 l 2,7,8
 -1.75 482 -1.75 482 -1.75 494 c 0,9,10
 -1.75 502 -1.75 502 8.150390625 508 c 0,11,12
 44.4501953125 531 44.4501953125 531 66.4501953125 557.5 c 128,-1,13
 88.4501953125 584 88.4501953125 584 104.950195312 630 c 0,14,15
 112.650390625 651 112.650390625 651 123.650390625 651 c 0,16,17
 135.75 651 135.75 651 135.75 635 c 2,18,-1
 135.75 524 l 2,19,20
 135.75 510 135.75 510 151.150390625 510 c 2,21,-1
 222.650390625 510 l 2,22,23
 240.25 510 240.25 510 240.25 496 c 256,24,25
 240.25 482 240.25 482 222.650390625 482 c 2,26,-1
 151.150390625 482 l 2,27,28
 135.75 482 135.75 482 135.75 468 c 2,29,-1
 135.75 95 l 2,30,31
 135.75 73 135.75 73 143.450195312 60.5 c 128,-1,32
 151.150390625 48 151.150390625 48 172.049804688 48 c 0,33,34
 195.150390625 48 195.150390625 48 210 69 c 128,-1,35
 224.849609375 90 224.849609375 90 229.25 137 c 0,36,37
 231.450195312 151 231.450195312 151 243.549804688 151 c 0,38,39
 256.75 151 256.75 151 256.75 136 c 0,40,41
 253.450195312 59 253.450195312 59 222.099609375 25 c 128,-1,42
 190.75 -9 190.75 -9 148.950195312 -9 c 0,0,1
EndSplineSet
EndChar

StartChar: u
Encoding: 117 117 205
Width: 476
GlyphClass: 2
Flags: W
AnchorPoint: "Anchor-2" 347.1 0 basechar 0
AnchorPoint: "Anchor-1" 226.1 0 basechar 0
AnchorPoint: "Anchor-0" 215.1 510 basechar 0
LayerCount: 2
Fore
SplineSet
165.599609375 -9 m 0,0,1
 138.099609375 -9 138.099609375 -9 112.799804688 2 c 128,-1,2
 87.5 13 87.5 13 71 37 c 128,-1,3
 54.5 61 54.5 61 54.5 101 c 2,4,-1
 54.5 449 l 2,5,6
 54.5 467 54.5 467 48.4501953125 474 c 128,-1,7
 42.400390625 481 42.400390625 481 27 482 c 2,8,-1
 8.2998046875 484 l 2,9,10
 -10.400390625 486 -10.400390625 486 -10.400390625 497 c 0,11,12
 -10.400390625 510 -10.400390625 510 10.5 510 c 2,13,-1
 112.799804688 510 l 2,14,15
 129.299804688 510 129.299804688 510 129.299804688 495 c 2,16,-1
 129.299804688 122 l 2,17,18
 129.299804688 76 129.299804688 76 148.549804688 56.5 c 128,-1,19
 167.799804688 37 167.799804688 37 201.900390625 37 c 256,20,21
 236 37 236 37 262.400390625 54.5 c 128,-1,22
 288.799804688 72 288.799804688 72 304.75 101.5 c 128,-1,23
 320.700195312 131 320.700195312 131 320.700195312 166 c 2,24,-1
 320.700195312 449 l 2,25,26
 320.700195312 467 320.700195312 467 314.650390625 474 c 128,-1,27
 308.599609375 481 308.599609375 481 293.200195312 482 c 2,28,-1
 274.5 484 l 2,29,30
 255.799804688 486 255.799804688 486 255.799804688 497 c 0,31,32
 255.799804688 510 255.799804688 510 276.700195312 510 c 2,33,-1
 379 510 l 2,34,35
 395.5 510 395.5 510 395.5 495 c 2,36,-1
 395.5 107 l 2,37,38
 395.5 89 395.5 89 401.549804688 82.5 c 128,-1,39
 407.599609375 76 407.599609375 76 423 74 c 2,40,-1
 446.099609375 71 l 2,41,42
 460.400390625 70 460.400390625 70 460.400390625 61 c 256,43,44
 460.400390625 52 460.400390625 52 442.799804688 49 c 0,45,46
 408.700195312 45 408.700195312 45 388.349609375 33 c 128,-1,47
 368 21 368 21 352.599609375 4 c 0,48,49
 342.700195312 -5 342.700195312 -5 336.099609375 -5 c 0,50,51
 326.200195312 -5 326.200195312 -5 326.200195312 7 c 2,52,-1
 326.200195312 53 l 2,53,54
 326.200195312 61 326.200195312 61 320.150390625 62.5 c 128,-1,55
 314.099609375 64 314.099609375 64 307.5 58 c 0,56,57
 266.799804688 21 266.799804688 21 235.450195312 6 c 128,-1,58
 204.099609375 -9 204.099609375 -9 165.599609375 -9 c 0,0,1
EndSplineSet
EndChar

StartChar: v
Encoding: 118 118 215
Width: 412
GlyphClass: 1
Flags: W
LayerCount: 2
Fore
SplineSet
194.049804688 -9 m 256,0,1
 184.150390625 -9 184.150390625 -9 179.75 2 c 2,2,-1
 33.4501953125 443 l 2,3,4
 25.75 467 25.75 467 18.599609375 474 c 128,-1,5
 11.4501953125 481 11.4501953125 481 -3.9501953125 484 c 2,6,-1
 -20.4501953125 487 l 2,7,8
 -34.75 490 -34.75 490 -34.75 500 c 256,9,10
 -34.75 510 -34.75 510 -19.349609375 510 c 2,11,-1
 162.150390625 510 l 2,12,13
 177.549804688 510 177.549804688 510 177.549804688 500 c 0,14,15
 177.549804688 489 177.549804688 489 163.25 487 c 2,16,-1
 145.650390625 485 l 2,17,18
 119.25 482 119.25 482 112.650390625 473.5 c 128,-1,19
 106.049804688 465 106.049804688 465 112.650390625 443 c 2,20,-1
 203.950195312 154 l 2,21,22
 207.25 143 207.25 143 214.950195312 143 c 128,-1,23
 222.650390625 143 222.650390625 143 225.950195312 154 c 2,24,-1
 315.049804688 425 l 2,25,26
 323.849609375 452 323.849609375 452 320 465.5 c 128,-1,27
 316.150390625 479 316.150390625 479 288.650390625 483 c 2,28,-1
 265.549804688 487 l 2,29,30
 251.25 490 251.25 490 251.25 500 c 256,31,32
 251.25 510 251.25 510 266.650390625 510 c 2,33,-1
 406.349609375 510 l 2,34,35
 421.75 510 421.75 510 421.75 499 c 0,36,37
 421.75 489 421.75 489 408.549804688 485 c 2,38,-1
 398.650390625 482 l 2,39,40
 382.150390625 477 382.150390625 477 370.599609375 464 c 128,-1,41
 359.049804688 451 359.049804688 451 348.049804688 419 c 2,42,-1
 208.349609375 2 l 2,43,44
 203.950195312 -9 203.950195312 -9 194.049804688 -9 c 256,0,1
EndSplineSet
EndChar

StartChar: w
Encoding: 119 119 216
Width: 627
GlyphClass: 2
Flags: W
AnchorPoint: "Anchor-1" 299.35 0 basechar 0
AnchorPoint: "Anchor-0" 312.55 510 basechar 0
LayerCount: 2
Fore
SplineSet
176.150390625 -9 m 256,0,1
 161.849609375 -9 161.849609375 -9 156.349609375 11 c 2,2,-1
 23.25 443 l 2,3,4
 15.5498046875 467 15.5498046875 467 8.400390625 474 c 128,-1,5
 1.25 481 1.25 481 -14.150390625 484 c 2,6,-1
 -30.650390625 487 l 2,7,8
 -44.9501953125 490 -44.9501953125 490 -44.9501953125 500 c 256,9,10
 -44.9501953125 510 -44.9501953125 510 -29.5498046875 510 c 2,11,-1
 148.650390625 510 l 2,12,13
 164.049804688 510 164.049804688 510 164.049804688 500 c 0,14,15
 164.049804688 489 164.049804688 489 149.75 487 c 2,16,-1
 132.150390625 485 l 2,17,18
 105.75 482 105.75 482 99.150390625 473.5 c 128,-1,19
 92.5498046875 465 92.5498046875 465 99.150390625 443 c 2,20,-1
 186.049804688 152 l 2,21,22
 189.349609375 142 189.349609375 142 196.5 142 c 128,-1,23
 203.650390625 142 203.650390625 142 206.950195312 152 c 2,24,-1
 281.75 411 l 2,25,26
 283.950195312 419 283.950195312 419 284.5 427 c 128,-1,27
 285.049804688 435 285.049804688 435 281.75 444 c 0,28,29
 274.049804688 468 274.049804688 468 266.900390625 474.5 c 128,-1,30
 259.75 481 259.75 481 244.349609375 484 c 2,31,-1
 227.849609375 487 l 2,32,33
 213.549804688 490 213.549804688 490 213.549804688 500 c 256,34,35
 213.549804688 510 213.549804688 510 228.950195312 510 c 2,36,-1
 407.150390625 510 l 2,37,38
 422.549804688 510 422.549804688 510 422.549804688 500 c 0,39,40
 422.549804688 489 422.549804688 489 408.25 487 c 2,41,-1
 390.650390625 485 l 2,42,43
 364.25 482 364.25 482 358.75 473.5 c 128,-1,44
 353.25 465 353.25 465 357.650390625 443 c 2,45,-1
 428.049804688 154 l 2,46,47
 430.25 144 430.25 144 437.400390625 144 c 128,-1,48
 444.549804688 144 444.549804688 144 447.849609375 154 c 2,49,-1
 531.450195312 425 l 2,50,51
 540.25 452 540.25 452 536.400390625 465.5 c 128,-1,52
 532.549804688 479 532.549804688 479 505.049804688 483 c 2,53,-1
 481.950195312 487 l 2,54,55
 467.650390625 490 467.650390625 490 467.650390625 500 c 256,56,57
 467.650390625 510 467.650390625 510 483.049804688 510 c 2,58,-1
 620.549804688 510 l 2,59,60
 635.950195312 510 635.950195312 510 635.950195312 499 c 0,61,62
 635.950195312 489 635.950195312 489 622.75 485 c 2,63,-1
 612.849609375 482 l 2,64,65
 596.349609375 477 596.349609375 477 584.25 464 c 128,-1,66
 572.150390625 451 572.150390625 451 562.25 419 c 2,67,-1
 436.849609375 11 l 2,68,69
 431.349609375 -9 431.349609375 -9 415.950195312 -9 c 0,70,71
 402.75 -9 402.75 -9 397.25 11 c 2,72,-1
 311.450195312 331 l 2,73,74
 308.150390625 342 308.150390625 342 301 342.5 c 128,-1,75
 293.849609375 343 293.849609375 343 290.549804688 331 c 2,76,-1
 195.950195312 11 l 2,77,78
 190.450195312 -9 190.450195312 -9 176.150390625 -9 c 256,0,1
EndSplineSet
EndChar

StartChar: x
Encoding: 120 120 221
Width: 404
GlyphClass: 1
Flags: W
LayerCount: 2
Fore
SplineSet
230.650390625 0 m 2,0,1
 215.25 0 215.25 0 215.25 10 c 256,2,3
 215.25 20 215.25 20 229.549804688 23 c 2,4,-1
 246.049804688 26 l 2,5,6
 279.049804688 33 279.049804688 33 263.650390625 59 c 2,7,-1
 185.549804688 199 l 2,8,9
 181.150390625 206 181.150390625 206 175.099609375 206.5 c 128,-1,10
 169.049804688 207 169.049804688 207 164.650390625 199 c 2,11,-1
 93.150390625 77 l 2,12,13
 68.9501953125 35 68.9501953125 35 100.849609375 29 c 2,14,-1
 129.450195312 23 l 2,15,16
 143.75 20 143.75 20 143.75 10 c 256,17,18
 143.75 0 143.75 0 128.349609375 0 c 2,19,-1
 -12.4501953125 0 l 2,20,21
 -27.849609375 0 -27.849609375 0 -27.849609375 11 c 256,22,23
 -27.849609375 22 -27.849609375 22 -14.650390625 25 c 2,24,-1
 -1.4501953125 28 l 2,25,26
 19.4501953125 33 19.4501953125 33 33.75 43.5 c 128,-1,27
 48.0498046875 54 48.0498046875 54 70.0498046875 91 c 2,28,-1
 151.450195312 227 l 2,29,30
 160.25 242 160.25 242 153.650390625 256 c 2,31,-1
 49.150390625 443 l 2,32,33
 37.0498046875 466 37.0498046875 466 28.7998046875 474 c 128,-1,34
 20.5498046875 482 20.5498046875 482 9.5498046875 484 c 2,35,-1
 -6.9501953125 487 l 2,36,37
 -21.25 490 -21.25 490 -21.25 500 c 256,38,39
 -21.25 510 -21.25 510 -5.849609375 510 c 2,40,-1
 156.950195312 510 l 2,41,42
 172.349609375 510 172.349609375 510 172.349609375 500 c 256,43,44
 172.349609375 490 172.349609375 490 158.049804688 487 c 2,45,-1
 141.549804688 484 l 2,46,47
 108.549804688 477 108.549804688 477 123.950195312 451 c 2,48,-1
 198.75 319 l 2,49,50
 203.150390625 312 203.150390625 312 208.650390625 312 c 128,-1,51
 214.150390625 312 214.150390625 312 218.549804688 319 c 2,52,-1
 284.549804688 433 l 2,53,54
 308.75 475 308.75 475 276.849609375 481 c 2,55,-1
 248.25 487 l 2,56,57
 233.950195312 490 233.950195312 490 233.950195312 500 c 256,58,59
 233.950195312 510 233.950195312 510 249.349609375 510 c 2,60,-1
 390.150390625 510 l 2,61,62
 405.549804688 510 405.549804688 510 405.549804688 499 c 256,63,64
 405.549804688 488 405.549804688 488 392.349609375 485 c 2,65,-1
 379.150390625 482 l 2,66,67
 358.25 478 358.25 478 343.950195312 467.5 c 128,-1,68
 329.650390625 457 329.650390625 457 307.650390625 419 c 2,69,-1
 231.75 291 l 2,70,71
 221.849609375 276 221.849609375 276 230.650390625 260 c 2,72,-1
 338.450195312 67 l 2,73,74
 351.650390625 43 351.650390625 43 359.349609375 35.5 c 128,-1,75
 367.049804688 28 367.049804688 28 378.049804688 26 c 2,76,-1
 394.549804688 23 l 2,77,78
 408.849609375 20 408.849609375 20 408.849609375 10 c 256,79,80
 408.849609375 0 408.849609375 0 393.450195312 0 c 2,81,-1
 230.650390625 0 l 2,0,1
EndSplineSet
EndChar

StartChar: y
Encoding: 121 121 222
Width: 421
GlyphClass: 2
Flags: W
AnchorPoint: "Anchor-1" 201.35 0 basechar 0
AnchorPoint: "Anchor-0" 201.35 510 basechar 0
LayerCount: 2
Fore
SplineSet
71.5498046875 -205 m 0,0,1
 41.849609375 -205 41.849609375 -205 24.25 -186.5 c 128,-1,2
 6.650390625 -168 6.650390625 -168 6.650390625 -144 c 0,3,4
 6.650390625 -125 6.650390625 -125 18.75 -112 c 128,-1,5
 30.849609375 -99 30.849609375 -99 51.75 -99 c 0,6,7
 69.349609375 -99 69.349609375 -99 77.0498046875 -106 c 128,-1,8
 84.75 -113 84.75 -113 88.0498046875 -122 c 128,-1,9
 91.349609375 -131 91.349609375 -131 94.650390625 -138 c 128,-1,10
 97.9501953125 -145 97.9501953125 -145 107.849609375 -145 c 0,11,12
 119.950195312 -145 119.950195312 -145 129.849609375 -129.5 c 128,-1,13
 139.75 -114 139.75 -114 157.349609375 -64 c 0,14,15
 168.349609375 -34 168.349609375 -34 171.099609375 -12 c 128,-1,16
 173.849609375 10 173.849609375 10 170 35 c 128,-1,17
 166.150390625 60 166.150390625 60 152.950195312 96 c 2,18,-1
 33.0498046875 443 l 2,19,20
 25.349609375 467 25.349609375 467 18.2001953125 474 c 128,-1,21
 11.0498046875 481 11.0498046875 481 -4.349609375 484 c 2,22,-1
 -20.849609375 487 l 2,23,24
 -35.150390625 490 -35.150390625 490 -35.150390625 500 c 256,25,26
 -35.150390625 510 -35.150390625 510 -19.75 510 c 2,27,-1
 161.75 510 l 2,28,29
 177.150390625 510 177.150390625 510 177.150390625 500 c 0,30,31
 177.150390625 489 177.150390625 489 162.849609375 487 c 2,32,-1
 145.25 485 l 2,33,34
 118.849609375 482 118.849609375 482 111.700195312 473.5 c 128,-1,35
 104.549804688 465 104.549804688 465 112.25 443 c 2,36,-1
 209.049804688 150 l 2,37,38
 212.349609375 140 212.349609375 140 219.5 140 c 128,-1,39
 226.650390625 140 226.650390625 140 229.950195312 150 c 2,40,-1
 323.450195312 425 l 2,41,42
 332.25 452 332.25 452 328.400390625 465.5 c 128,-1,43
 324.549804688 479 324.549804688 479 297.049804688 483 c 2,44,-1
 273.950195312 487 l 2,45,46
 259.650390625 490 259.650390625 490 259.650390625 500 c 256,47,48
 259.650390625 510 259.650390625 510 275.049804688 510 c 2,49,-1
 414.75 510 l 2,50,51
 430.150390625 510 430.150390625 510 430.150390625 499 c 0,52,53
 430.150390625 489 430.150390625 489 416.950195312 485 c 2,54,-1
 407.049804688 482 l 2,55,56
 390.549804688 477 390.549804688 477 379.549804688 464 c 128,-1,57
 368.549804688 451 368.549804688 451 356.450195312 419 c 2,58,-1
 192.549804688 -46 l 2,59,60
 168.349609375 -116 168.349609375 -116 149.099609375 -150 c 128,-1,61
 129.849609375 -184 129.849609375 -184 112.25 -194.5 c 128,-1,62
 94.650390625 -205 94.650390625 -205 71.5498046875 -205 c 0,0,1
EndSplineSet
EndChar

StartChar: z
Encoding: 122 122 227
Width: 370
GlyphClass: 2
Flags: W
AnchorPoint: "Anchor-1" 177.021 0 basechar 0
AnchorPoint: "Anchor-0" 205.622 510 basechar 0
LayerCount: 2
Fore
SplineSet
15.322265625 0 m 2,0,1
 -1.177734375 0 -1.177734375 0 -1.177734375 13 c 0,2,3
 -1.177734375 17 -1.177734375 17 2.1220703125 23 c 128,-1,4
 5.421875 29 5.421875 29 9.822265625 38 c 2,5,-1
 256.221679688 464 l 2,6,7
 261.721679688 472 261.721679688 472 257.872070312 478 c 128,-1,8
 254.021484375 484 254.021484375 484 243.021484375 484 c 2,9,-1
 196.822265625 484 l 2,10,11
 142.921875 484 142.921875 484 117.072265625 467 c 128,-1,12
 91.2216796875 450 91.2216796875 450 74.7216796875 418 c 2,13,-1
 50.521484375 372 l 2,14,15
 43.921875 359 43.921875 359 34.021484375 359 c 0,16,17
 19.7216796875 359 19.7216796875 359 23.021484375 374 c 2,18,-1
 49.421875 510 l 2,19,20
 53.822265625 534 53.822265625 534 69.2216796875 534 c 0,21,22
 79.1220703125 534 79.1220703125 534 81.322265625 528 c 128,-1,23
 83.521484375 522 83.521484375 522 89.572265625 516 c 128,-1,24
 95.6220703125 510 95.6220703125 510 116.521484375 510 c 2,25,-1
 336.521484375 510 l 2,26,27
 353.021484375 510 353.021484375 510 353.021484375 497 c 0,28,29
 353.021484375 493 353.021484375 493 350.271484375 487 c 128,-1,30
 347.521484375 481 347.521484375 481 342.021484375 472 c 2,31,-1
 96.7216796875 46 l 2,32,33
 92.322265625 38 92.322265625 38 95.072265625 32 c 128,-1,34
 97.822265625 26 97.822265625 26 109.921875 26 c 2,35,-1
 159.421875 26 l 2,36,37
 224.322265625 26 224.322265625 26 250.721679688 42.5 c 128,-1,38
 277.122070312 59 277.122070312 59 293.622070312 96 c 2,39,-1
 326.622070312 169 l 2,40,41
 333.221679688 182 333.221679688 182 343.122070312 182 c 0,42,43
 357.421875 182 357.421875 182 354.122070312 165 c 2,44,-1
 325.521484375 18 l 2,45,46
 322.221679688 0 322.221679688 0 302.421875 0 c 2,47,-1
 15.322265625 0 l 2,0,1
EndSplineSet
EndChar

StartChar: a.ss01
Encoding: 65538 -1 231
Width: 408
GlyphClass: 1
Flags: W
LayerCount: 2
Fore
SplineSet
112.150390625 -9 m 0,0,1
 65.9501953125 -9 65.9501953125 -9 36.25 17.5 c 128,-1,2
 6.5498046875 44 6.5498046875 44 6.5498046875 88 c 0,3,4
 6.5498046875 131 6.5498046875 131 36.25 169.5 c 128,-1,5
 65.9501953125 208 65.9501953125 208 117.650390625 239 c 128,-1,6
 169.349609375 270 169.349609375 270 235.349609375 289 c 0,7,8
 249.650390625 293 249.650390625 293 249.650390625 306 c 2,9,-1
 249.650390625 397 l 2,10,11
 249.650390625 445 249.650390625 445 233.150390625 465.5 c 128,-1,12
 216.650390625 486 216.650390625 486 188.049804688 486 c 0,13,14
 160.549804688 486 160.549804688 486 138 463.5 c 128,-1,15
 115.450195312 441 115.450195312 441 105.549804688 388 c 0,16,17
 100.049804688 356 100.049804688 356 81.900390625 341.5 c 128,-1,18
 63.75 327 63.75 327 45.0498046875 327 c 0,19,20
 14.25 327 14.25 327 14.25 355 c 0,21,22
 14.25 384 14.25 384 32.400390625 412.5 c 128,-1,23
 50.5498046875 441 50.5498046875 441 80.25 464.5 c 128,-1,24
 109.950195312 488 109.950195312 488 145.150390625 502 c 128,-1,25
 180.349609375 516 180.349609375 516 215.549804688 516 c 0,26,27
 324.450195312 516 324.450195312 516 324.450195312 401 c 2,28,-1
 324.450195312 66 l 2,29,30
 324.450195312 33 324.450195312 33 349.75 33 c 0,31,32
 361.849609375 33 361.849609375 33 368.450195312 38 c 128,-1,33
 375.049804688 43 375.049804688 43 381.650390625 43 c 0,34,35
 390.450195312 43 390.450195312 43 390.450195312 35 c 0,36,37
 390.450195312 23 390.450195312 23 370.099609375 7 c 128,-1,38
 349.75 -9 349.75 -9 321.150390625 -9 c 256,39,40
 292.549804688 -9 292.549804688 -9 278.799804688 6.5 c 128,-1,41
 265.049804688 22 265.049804688 22 259.549804688 57 c 0,42,43
 258.450195312 67 258.450195312 67 250.200195312 67.5 c 128,-1,44
 241.950195312 68 241.950195312 68 234.25 58 c 0,45,46
 207.849609375 25 207.849609375 25 180.349609375 8 c 128,-1,47
 152.849609375 -9 152.849609375 -9 112.150390625 -9 c 0,0,1
141.849609375 37 m 0,48,49
 170.450195312 37 170.450195312 37 194.650390625 55.5 c 128,-1,50
 218.849609375 74 218.849609375 74 234.25 105 c 128,-1,51
 249.650390625 136 249.650390625 136 249.650390625 175 c 2,52,-1
 249.650390625 248 l 2,53,54
 249.650390625 267 249.650390625 267 226.549804688 259 c 0,55,56
 159.450195312 237 159.450195312 237 122.599609375 198.5 c 128,-1,57
 85.75 160 85.75 160 85.75 106 c 0,58,59
 85.75 37 85.75 37 141.849609375 37 c 0,48,49
EndSplineSet
EndChar

StartChar: c.ss01
Encoding: 65549 -1 242
Width: 355
GlyphClass: 2
Flags: W
AnchorPoint: "Anchor-1" 183.2 0 basechar 0
AnchorPoint: "Anchor-0" 211.8 510 basechar 0
LayerCount: 2
Fore
SplineSet
186.5 -9 m 0,0,1
 135.900390625 -9 135.900390625 -9 95.2001953125 20.5 c 128,-1,2
 54.5 50 54.5 50 31.400390625 105 c 128,-1,3
 8.2998046875 160 8.2998046875 160 8.2998046875 236 c 0,4,5
 8.2998046875 321 8.2998046875 321 36.349609375 384 c 128,-1,6
 64.400390625 447 64.400390625 447 112.799804688 481.5 c 128,-1,7
 161.200195312 516 161.200195312 516 220.599609375 516 c 0,8,9
 271.200195312 516 271.200195312 516 299.799804688 498 c 0,10,11
 310.799804688 491 310.799804688 491 310.799804688 476 c 2,12,-1
 313 354 l 2,13,14
 313 339 313 339 299.799804688 339 c 0,15,16
 287.700195312 339 287.700195312 339 284.400390625 352 c 0,17,18
 269 407 269 407 254.700195312 437 c 128,-1,19
 240.400390625 467 240.400390625 467 225 478.5 c 128,-1,20
 209.599609375 490 209.599609375 490 190.900390625 490 c 0,21,22
 168.900390625 490 168.900390625 490 145.25 467 c 128,-1,23
 121.599609375 444 121.599609375 444 105.650390625 392.5 c 128,-1,24
 89.7001953125 341 89.7001953125 341 89.7001953125 257 c 0,25,26
 89.7001953125 150 89.7001953125 150 121.049804688 93.5 c 128,-1,27
 152.400390625 37 152.400390625 37 207.400390625 37 c 0,28,29
 241.5 37 241.5 37 267.900390625 57.5 c 128,-1,30
 294.299804688 78 294.299804688 78 308.599609375 119 c 0,31,32
 311.900390625 130 311.900390625 130 321.799804688 130 c 0,33,34
 328.400390625 130 328.400390625 130 330.599609375 125 c 128,-1,35
 332.799804688 120 332.799804688 120 330.599609375 114 c 0,36,37
 316.299804688 57 316.299804688 57 281.099609375 24 c 128,-1,38
 245.900390625 -9 245.900390625 -9 186.5 -9 c 0,0,1
EndSplineSet
EndChar

StartChar: d.ss01
Encoding: 65554 -1 247
Width: 467
GlyphClass: 2
Flags: W
AnchorPoint: "Anchor-1" 222 0 basechar 0
AnchorPoint: "Anchor-0" 222 740 basechar 0
LayerCount: 2
Fore
SplineSet
175.799804688 -9 m 0,0,1
 127.400390625 -9 127.400390625 -9 89.4501953125 21.5 c 128,-1,2
 51.5 52 51.5 52 30.599609375 106.5 c 128,-1,3
 9.7001953125 161 9.7001953125 161 9.7001953125 233 c 0,4,5
 9.7001953125 317 9.7001953125 317 38.2998046875 380.5 c 128,-1,6
 66.900390625 444 66.900390625 444 117.5 480 c 128,-1,7
 168.099609375 516 168.099609375 516 231.900390625 516 c 0,8,9
 247.299804688 516 247.299804688 516 262.700195312 513.5 c 128,-1,10
 278.099609375 511 278.099609375 511 292.400390625 505 c 0,11,12
 310 497 310 497 310 512 c 2,13,-1
 310 640 l 2,14,15
 310 658 310 658 303.950195312 665 c 128,-1,16
 297.900390625 672 297.900390625 672 282.5 673 c 2,17,-1
 253.900390625 676 l 2,18,19
 241.799804688 678 241.799804688 678 241.799804688 688 c 256,20,21
 241.799804688 698 241.799804688 698 253.900390625 700 c 0,22,23
 289.099609375 706 289.099609375 706 310.549804688 714 c 128,-1,24
 332 722 332 722 346.299804688 730 c 0,25,26
 363.900390625 740 363.900390625 740 372.700195312 740 c 0,27,28
 384.799804688 740 384.799804688 740 384.799804688 724 c 2,29,-1
 384.799804688 66 l 2,30,31
 384.799804688 33 384.799804688 33 409 33 c 0,32,33
 424.400390625 33 424.400390625 33 432.650390625 41 c 128,-1,34
 440.900390625 49 440.900390625 49 447.5 49 c 0,35,36
 456.299804688 49 456.299804688 49 456.299804688 41 c 0,37,38
 456.299804688 29 456.299804688 29 435.950195312 10 c 128,-1,39
 415.599609375 -9 415.599609375 -9 380.400390625 -9 c 0,40,41
 352.900390625 -9 352.900390625 -9 336.950195312 6.5 c 128,-1,42
 321 22 321 22 315.5 57 c 0,43,44
 314.400390625 66 314.400390625 66 306.700195312 66 c 128,-1,45
 299 66 299 66 293.5 58 c 0,46,47
 262.700195312 19 262.700195312 19 237.400390625 5 c 128,-1,48
 212.099609375 -9 212.099609375 -9 175.799804688 -9 c 0,0,1
200 37 m 0,49,50
 228.599609375 37 228.599609375 37 253.349609375 54.5 c 128,-1,51
 278.099609375 72 278.099609375 72 294.049804688 102 c 128,-1,52
 310 132 310 132 310 169 c 2,53,-1
 310 394 l 2,54,55
 310 439 310 439 287.450195312 465 c 128,-1,56
 264.900390625 491 264.900390625 491 228.599609375 491 c 0,57,58
 167 491 167 491 129.049804688 425.5 c 128,-1,59
 91.099609375 360 91.099609375 360 91.099609375 247 c 0,60,61
 91.099609375 144 91.099609375 144 120.25 90.5 c 128,-1,62
 149.400390625 37 149.400390625 37 200 37 c 0,49,50
EndSplineSet
EndChar

StartChar: dcroat.ss01
Encoding: 65556 -1 249
Width: 479
GlyphClass: 2
Flags: W
AnchorPoint: "Anchor-1" 221.95 0 basechar 0
AnchorPoint: "Anchor-0" 221.95 740 basechar 0
LayerCount: 2
Fore
SplineSet
175.75 -9 m 0,0,1
 127.349609375 -9 127.349609375 -9 89.400390625 21.5 c 128,-1,2
 51.4501953125 52 51.4501953125 52 30.5498046875 106.5 c 128,-1,3
 9.650390625 161 9.650390625 161 9.650390625 233 c 0,4,5
 9.650390625 317 9.650390625 317 38.25 380.5 c 128,-1,6
 66.849609375 444 66.849609375 444 117.450195312 480 c 128,-1,7
 168.049804688 516 168.049804688 516 231.849609375 516 c 0,8,9
 247.25 516 247.25 516 262.650390625 513.5 c 128,-1,10
 278.049804688 511 278.049804688 511 292.349609375 505 c 0,11,12
 309.950195312 497 309.950195312 497 309.950195312 512 c 2,13,-1
 309.950195312 578 l 1,14,-1
 143.849609375 578 l 2,15,16
 132.849609375 578 132.849609375 578 132.849609375 588 c 2,17,-1
 132.849609375 596 l 2,18,19
 132.849609375 606 132.849609375 606 143.849609375 606 c 2,20,-1
 309.950195312 606 l 1,21,-1
 309.950195312 640 l 2,22,23
 309.950195312 658 309.950195312 658 303.900390625 665 c 128,-1,24
 297.849609375 672 297.849609375 672 282.450195312 673 c 2,25,-1
 253.849609375 676 l 2,26,27
 241.75 678 241.75 678 241.75 688 c 256,28,29
 241.75 698 241.75 698 253.849609375 700 c 0,30,31
 289.049804688 706 289.049804688 706 310.5 714 c 128,-1,32
 331.950195312 722 331.950195312 722 346.25 730 c 0,33,34
 363.849609375 740 363.849609375 740 372.650390625 740 c 0,35,36
 384.75 740 384.75 740 384.75 724 c 2,37,-1
 384.75 606 l 1,38,-1
 446.349609375 606 l 2,39,40
 457.349609375 606 457.349609375 606 457.349609375 596 c 2,41,-1
 457.349609375 588 l 2,42,43
 457.349609375 578 457.349609375 578 446.349609375 578 c 2,44,-1
 384.75 578 l 1,45,-1
 384.75 66 l 2,46,47
 384.75 33 384.75 33 408.950195312 33 c 0,48,49
 424.349609375 33 424.349609375 33 432.599609375 41 c 128,-1,50
 440.849609375 49 440.849609375 49 447.450195312 49 c 0,51,52
 456.25 49 456.25 49 456.25 41 c 0,53,54
 456.25 29 456.25 29 435.900390625 10 c 128,-1,55
 415.549804688 -9 415.549804688 -9 380.349609375 -9 c 0,56,57
 352.849609375 -9 352.849609375 -9 336.900390625 6.5 c 128,-1,58
 320.950195312 22 320.950195312 22 315.450195312 57 c 0,59,60
 314.349609375 66 314.349609375 66 306.650390625 66 c 128,-1,61
 298.950195312 66 298.950195312 66 293.450195312 58 c 0,62,63
 262.650390625 19 262.650390625 19 237.349609375 5 c 128,-1,64
 212.049804688 -9 212.049804688 -9 175.75 -9 c 0,0,1
199.950195312 37 m 0,65,66
 228.549804688 37 228.549804688 37 253.299804688 54.5 c 128,-1,67
 278.049804688 72 278.049804688 72 294 102 c 128,-1,68
 309.950195312 132 309.950195312 132 309.950195312 169 c 2,69,-1
 309.950195312 394 l 2,70,71
 309.950195312 439 309.950195312 439 287.400390625 465 c 128,-1,72
 264.849609375 491 264.849609375 491 228.549804688 491 c 0,73,74
 166.950195312 491 166.950195312 491 129 425.5 c 128,-1,75
 91.0498046875 360 91.0498046875 360 91.0498046875 247 c 0,76,77
 91.0498046875 144 91.0498046875 144 120.200195312 90.5 c 128,-1,78
 149.349609375 37 149.349609375 37 199.950195312 37 c 0,65,66
EndSplineSet
EndChar

StartChar: e.ss01
Encoding: 65557 -1 250
Width: 372
GlyphClass: 2
Flags: W
AnchorPoint: "Anchor-2" 274.95 10 basechar 0
AnchorPoint: "Anchor-1" 178.15 0 basechar 0
AnchorPoint: "Anchor-0" 178.15 510 basechar 0
LayerCount: 2
Fore
SplineSet
196.849609375 -9 m 0,0,1
 142.950195312 -9 142.950195312 -9 100.049804688 23 c 128,-1,2
 57.150390625 55 57.150390625 55 32.400390625 113.5 c 128,-1,3
 7.650390625 172 7.650390625 172 7.650390625 249 c 0,4,5
 7.650390625 328 7.650390625 328 32.9501953125 388 c 128,-1,6
 58.25 448 58.25 448 102.25 482 c 128,-1,7
 146.25 516 146.25 516 200.150390625 516 c 0,8,9
 265.049804688 516 265.049804688 516 305.200195312 467.5 c 128,-1,10
 345.349609375 419 345.349609375 419 345.349609375 310 c 0,11,12
 345.349609375 277 345.349609375 277 317.849609375 277 c 2,13,-1
 108.849609375 277 l 2,14,15
 86.849609375 277 86.849609375 277 86.849609375 254 c 0,16,17
 86.849609375 148 86.849609375 148 120.950195312 92.5 c 128,-1,18
 155.049804688 37 155.049804688 37 216.650390625 37 c 0,19,20
 255.150390625 37 255.150390625 37 279.900390625 56 c 128,-1,21
 304.650390625 75 304.650390625 75 318.950195312 109 c 0,22,23
 324.450195312 120 324.450195312 120 333.25 120 c 0,24,25
 339.849609375 120 339.849609375 120 342.049804688 115 c 128,-1,26
 344.25 110 344.25 110 342.049804688 104 c 0,27,28
 327.75 55 327.75 55 293.099609375 23 c 128,-1,29
 258.450195312 -9 258.450195312 -9 196.849609375 -9 c 0,0,1
105.549804688 302 m 2,30,-1
 216.650390625 302 l 2,31,32
 269.450195312 302 269.450195312 302 269.450195312 352 c 0,33,34
 269.450195312 417 269.450195312 417 251.849609375 454 c 128,-1,35
 234.25 491 234.25 491 199.049804688 491 c 0,36,37
 156.150390625 491 156.150390625 491 127 446 c 128,-1,38
 97.849609375 401 97.849609375 401 89.0498046875 318 c 0,39,40
 86.849609375 302 86.849609375 302 105.549804688 302 c 2,30,-1
EndSplineSet
EndChar

StartChar: g.ss01
Encoding: 65566 -1 259
Width: 413
GlyphClass: 2
Flags: W
AnchorPoint: "Anchor-1" 197.25 -205 basechar 0
AnchorPoint: "Anchor-0" 197.25 510 basechar 0
LayerCount: 2
Fore
SplineSet
175.25 -215 m 0,0,1
 91.650390625 -215 91.650390625 -215 43.25 -184.5 c 128,-1,2
 -5.150390625 -154 -5.150390625 -154 -5.150390625 -111 c 0,3,4
 -5.150390625 -93 -5.150390625 -93 0.349609375 -78.5 c 128,-1,5
 5.849609375 -64 5.849609375 -64 24 -45 c 128,-1,6
 42.150390625 -26 42.150390625 -26 79.5498046875 4 c 0,7,8
 92.75 15 92.75 15 92.75 24.5 c 128,-1,9
 92.75 34 92.75 34 79.5498046875 39 c 0,10,11
 39.9501953125 54 39.9501953125 54 32.25 77.5 c 128,-1,12
 24.5498046875 101 24.5498046875 101 50.9501953125 121 c 2,13,-1
 114.75 170 l 2,14,15
 126.849609375 180 126.849609375 180 125.75 190.5 c 128,-1,16
 124.650390625 201 124.650390625 201 111.450195312 208 c 0,17,18
 79.5498046875 228 79.5498046875 228 55.349609375 266 c 128,-1,19
 31.150390625 304 31.150390625 304 31.150390625 352 c 0,20,21
 31.150390625 398 31.150390625 398 53.150390625 435 c 128,-1,22
 75.150390625 472 75.150390625 472 112.549804688 494 c 128,-1,23
 149.950195312 516 149.950195312 516 196.150390625 516 c 0,24,25
 211.549804688 516 211.549804688 516 222 514.5 c 128,-1,26
 232.450195312 513 232.450195312 513 246.200195312 511.5 c 128,-1,27
 259.950195312 510 259.950195312 510 284.150390625 510 c 2,28,-1
 382.049804688 510 l 2,29,30
 398.549804688 510 398.549804688 510 398.549804688 498 c 256,31,32
 398.549804688 486 398.549804688 486 384.25 483 c 2,33,-1
 324.849609375 470 l 2,34,35
 313.849609375 467 313.849609375 467 320.450195312 458 c 0,36,37
 339.150390625 436 339.150390625 436 349.049804688 408 c 128,-1,38
 358.950195312 380 358.950195312 380 358.950195312 348 c 0,39,40
 358.950195312 300 358.950195312 300 337.5 262 c 128,-1,41
 316.049804688 224 316.049804688 224 279.200195312 202 c 128,-1,42
 242.349609375 180 242.349609375 180 196.150390625 180 c 0,43,44
 176.349609375 180 176.349609375 180 160.950195312 171.5 c 128,-1,45
 145.549804688 163 145.549804688 163 124.650390625 142 c 0,46,47
 102.650390625 119 102.650390625 119 107.599609375 103 c 128,-1,48
 112.549804688 87 112.549804688 87 136.75 87 c 2,49,-1
 244.549804688 87 l 2,50,51
 323.75 87 323.75 87 369.950195312 51.5 c 128,-1,52
 416.150390625 16 416.150390625 16 416.150390625 -46 c 0,53,54
 416.150390625 -95 416.150390625 -95 384.799804688 -133 c 128,-1,55
 353.450195312 -171 353.450195312 -171 299.549804688 -193 c 128,-1,56
 245.650390625 -215 245.650390625 -215 175.25 -215 c 0,0,1
109.25 350 m 0,57,58
 109.25 283 109.25 283 132.349609375 244 c 128,-1,59
 155.450195312 205 155.450195312 205 195.049804688 205 c 256,60,61
 234.650390625 205 234.650390625 205 257.75 244 c 128,-1,62
 280.849609375 283 280.849609375 283 280.849609375 350 c 0,63,64
 280.849609375 415 280.849609375 415 257.200195312 454.5 c 128,-1,65
 233.549804688 494 233.549804688 494 195.049804688 494 c 256,66,67
 156.549804688 494 156.549804688 494 132.900390625 454.5 c 128,-1,68
 109.25 415 109.25 415 109.25 350 c 0,57,58
60.849609375 -98 m 0,69,70
 60.849609375 -140 60.849609375 -140 94.400390625 -166.5 c 128,-1,71
 127.950195312 -193 127.950195312 -193 188.450195312 -193 c 0,72,73
 257.75 -193 257.75 -193 301.75 -158 c 128,-1,74
 345.75 -123 345.75 -123 345.75 -68 c 0,75,76
 345.75 -23 345.75 -23 316.599609375 1.5 c 128,-1,77
 287.450195312 26 287.450195312 26 234.650390625 26 c 2,78,-1
 196.150390625 26 l 2,79,80
 162.049804688 26 162.049804688 26 144.450195312 19.5 c 128,-1,81
 126.849609375 13 126.849609375 13 107.049804688 -6 c 0,82,83
 76.25 -36 76.25 -36 68.5498046875 -56.5 c 128,-1,84
 60.849609375 -77 60.849609375 -77 60.849609375 -98 c 0,69,70
EndSplineSet
EndChar

StartChar: f_b
Encoding: 65570 -1 263
Width: 753
GlyphClass: 3
LigCaretCntFixed: 1
Flags: W
AnchorPoint: "Anchor-4" 162.45 0 baselig 0
AnchorPoint: "Anchor-3" 162.45 740 baselig 0
AnchorPoint: "Anchor-4" 556.25 0 baselig 1
AnchorPoint: "Anchor-3" 556.25 740 baselig 1
LayerCount: 2
Fore
SplineSet
334.049804688 -9 m 0,0,1
 321.950195312 -9 321.950195312 -9 325.25 5 c 0,2,3
 329.650390625 28 329.650390625 28 331.849609375 64 c 128,-1,4
 334.049804688 100 334.049804688 100 334.049804688 160 c 2,5,-1
 334.049804688 606 l 2,6,7
 334.049804688 655 334.049804688 655 313.150390625 689 c 128,-1,8
 292.25 723 292.25 723 238.349609375 723 c 0,9,10
 210.849609375 723 210.849609375 723 187.200195312 711 c 128,-1,11
 163.549804688 699 163.549804688 699 148.700195312 670 c 128,-1,12
 133.849609375 641 133.849609375 641 133.849609375 590 c 2,13,-1
 133.849609375 522 l 2,14,15
 133.849609375 510 133.849609375 510 147.049804688 510 c 2,16,-1
 241.650390625 510 l 2,17,18
 258.150390625 510 258.150390625 510 258.150390625 496 c 256,19,20
 258.150390625 482 258.150390625 482 241.650390625 482 c 2,21,-1
 147.049804688 482 l 2,22,23
 133.849609375 482 133.849609375 482 133.849609375 470 c 2,24,-1
 133.849609375 67 l 2,25,26
 133.849609375 46 133.849609375 46 140.450195312 37 c 128,-1,27
 147.049804688 28 147.049804688 28 165.75 26 c 2,28,-1
 193.25 23 l 2,29,30
 205.349609375 21 205.349609375 21 205.349609375 12 c 0,31,32
 205.349609375 0 205.349609375 0 188.849609375 0 c 2,33,-1
 -3.650390625 0 l 2,34,35
 -20.150390625 0 -20.150390625 0 -20.150390625 11 c 256,36,37
 -20.150390625 22 -20.150390625 22 -5.849609375 23 c 2,38,-1
 16.150390625 25 l 2,39,40
 43.650390625 27 43.650390625 27 51.349609375 36.5 c 128,-1,41
 59.0498046875 46 59.0498046875 46 59.0498046875 67 c 2,42,-1
 59.0498046875 458 l 2,43,44
 59.0498046875 482 59.0498046875 482 32.650390625 482 c 2,45,-1
 7.349609375 482 l 2,46,47
 -5.849609375 482 -5.849609375 482 -5.849609375 492 c 256,48,49
 -5.849609375 502 -5.849609375 502 7.349609375 503 c 0,50,51
 59.0498046875 508 59.0498046875 508 59.0498046875 544 c 2,52,-1
 59.0498046875 550 l 2,53,54
 59.0498046875 602 59.0498046875 602 81.0498046875 647 c 128,-1,55
 103.049804688 692 103.049804688 692 145.400390625 720 c 128,-1,56
 187.75 748 187.75 748 247.150390625 748 c 0,57,58
 308.75 748 308.75 748 349.450195312 709 c 0,59,60
 354.950195312 704 354.950195312 704 360.450195312 704.5 c 128,-1,61
 365.950195312 705 365.950195312 705 368.150390625 712 c 0,62,63
 374.75 730 374.75 730 379.700195312 736.5 c 128,-1,64
 384.650390625 743 384.650390625 743 394.549804688 743 c 0,65,66
 408.849609375 743 408.849609375 743 408.849609375 724 c 2,67,-1
 408.849609375 477 l 2,68,69
 408.849609375 469 408.849609375 469 416 466.5 c 128,-1,70
 423.150390625 464 423.150390625 464 431.950195312 472 c 0,71,72
 479.25 516 479.25 516 535.349609375 516 c 0,73,74
 585.950195312 516 585.950195312 516 625 485.5 c 128,-1,75
 664.049804688 455 664.049804688 455 686.599609375 401 c 128,-1,76
 709.150390625 347 709.150390625 347 709.150390625 274 c 0,77,78
 709.150390625 191 709.150390625 191 680.549804688 127 c 128,-1,79
 651.950195312 63 651.950195312 63 603 27 c 128,-1,80
 554.049804688 -9 554.049804688 -9 492.450195312 -9 c 0,81,82
 447.349609375 -9 447.349609375 -9 405.549804688 17 c 0,83,84
 381.349609375 32 381.349609375 32 361.549804688 9 c 0,85,86
 350.549804688 -2 350.549804688 -2 345.049804688 -5.5 c 128,-1,87
 339.549804688 -9 339.549804688 -9 334.049804688 -9 c 0,0,1
490.25 16 m 0,88,89
 551.849609375 16 551.849609375 16 589.799804688 82 c 128,-1,90
 627.75 148 627.75 148 627.75 260 c 0,91,92
 627.75 363 627.75 363 594.75 417 c 128,-1,93
 561.75 471 561.75 471 501.25 471 c 0,94,95
 463.849609375 471 463.849609375 471 436.349609375 443 c 128,-1,96
 408.849609375 415 408.849609375 415 408.849609375 365 c 2,97,-1
 408.849609375 113 l 2,98,99
 408.849609375 68 408.849609375 68 431.400390625 42 c 128,-1,100
 453.950195312 16 453.950195312 16 490.25 16 c 0,88,89
EndSplineSet
Ligature2: "'dlig' Discretionary Ligatures in Latin lookup 19 subtable" f b
LCarets2: 1 359
EndChar

